<svg width="30" height="30" viewBox="0 0 30 30" fill="none" xmlns="http://www.w3.org/2000/svg">
<g clip-path="url(#clip0_202_137)">
<path d="M10.912 9.53465C10.9121 9.17668 11.0543 8.83338 11.3074 8.58026C11.5606 8.32713 11.9039 8.18491 12.2618 8.18485L20.8532 8.18485C21.2112 8.18491 21.5545 8.32713 21.8076 8.58026C22.0607 8.83338 22.203 9.17668 22.203 9.53465V18.126C22.1969 18.48 22.0519 18.8173 21.7995 19.0654C21.547 19.3135 21.2072 19.4526 20.8532 19.4526C20.4992 19.4526 20.1594 19.3135 19.9069 19.0654C19.6545 18.8173 19.5096 18.48 19.5034 18.126L19.4213 12.8757L10.3526 21.9444C10.0995 22.1976 9.75608 22.3398 9.39804 22.3398C9.03999 22.3398 8.69662 22.1976 8.44344 21.9444C8.19027 21.6912 8.04803 21.3479 8.04803 20.9898C8.04803 20.6318 8.19027 20.2884 8.44344 20.0352L17.5121 10.9665L12.2618 10.8845C11.9039 10.8844 11.5606 10.7422 11.3074 10.489C11.0543 10.2359 10.9121 9.89262 10.912 9.53465Z" fill="#00FFC2"/>
</g>
<defs>
<clipPath id="clip0_202_137">
<rect width="20.2501" height="20.2501" fill="white" transform="translate(0.806641 15.2622) rotate(-45)"/>
</clipPath>
</defs>
</svg>
