<svg width="90" height="112" viewBox="0 0 90 112" fill="none" xmlns="http://www.w3.org/2000/svg">
<path d="M12.7496 57.8417L10.0019 56.8453L9.00248 54.0945C8.95324 53.9619 8.86459 53.8475 8.74843 53.7667C8.63227 53.6859 8.49417 53.6426 8.35268 53.6426C8.21119 53.6426 8.07309 53.6859 7.95693 53.7667C7.84077 53.8475 7.75211 53.9619 7.70288 54.0945L6.70652 56.8423L3.95571 57.8417C3.82306 57.8909 3.70866 57.9796 3.62787 58.0957C3.54709 58.2119 3.50378 58.35 3.50378 58.4915C3.50378 58.633 3.54709 58.7711 3.62787 58.8872C3.70866 59.0034 3.82306 59.092 3.95571 59.1413L6.70349 60.1376L7.70288 62.8884C7.75211 63.0211 7.84077 63.1355 7.95693 63.2163C8.07309 63.2971 8.21119 63.3404 8.35268 63.3404C8.49417 63.3404 8.63227 63.2971 8.74843 63.2163C8.86459 63.1355 8.95324 63.0211 9.00248 62.8884L10.0019 60.1402L12.7496 59.1413C12.8823 59.092 12.9967 59.0034 13.0775 58.8872C13.1583 58.7711 13.2016 58.633 13.2016 58.4915C13.2016 58.35 13.1583 58.2119 13.0775 58.0957C12.9967 57.9796 12.8823 57.8909 12.7496 57.8417ZM9.76361 59.4878C9.66878 59.5225 9.58266 59.5774 9.51128 59.6488C9.4399 59.7202 9.38497 59.8063 9.35033 59.9011L8.35268 62.6458L7.35632 59.9024C7.32171 59.8072 7.26665 59.7207 7.19503 59.6491C7.1234 59.5775 7.03695 59.5224 6.94175 59.4878L4.1983 58.4915L6.94175 57.4951C7.03695 57.4605 7.1234 57.4054 7.19503 57.3338C7.26665 57.2622 7.32171 57.1757 7.35632 57.0805L8.35268 54.3371L9.34903 57.0805C9.38367 57.1754 9.4386 57.2615 9.50998 57.3329C9.58136 57.4043 9.66748 57.4592 9.76231 57.4938L12.5058 58.4902L9.76361 59.4878Z" fill="#00FFC2"/>
<path d="M86.22 57.8417L83.4722 56.8453L82.4728 54.0945C82.4236 53.9619 82.3349 53.8475 82.2188 53.7667C82.1026 53.6859 81.9645 53.6426 81.823 53.6426C81.6815 53.6426 81.5434 53.6859 81.4273 53.7667C81.3111 53.8475 81.2225 53.9619 81.1732 54.0945L80.1769 56.8423L77.426 57.8417C77.2934 57.8909 77.179 57.9796 77.0982 58.0957C77.0174 58.2119 76.9741 58.35 76.9741 58.4915C76.9741 58.633 77.0174 58.7711 77.0982 58.8872C77.179 59.0034 77.2934 59.092 77.426 59.1413L80.1738 60.1376L81.1732 62.8884C81.2225 63.0211 81.3111 63.1355 81.4273 63.2163C81.5434 63.2971 81.6815 63.3404 81.823 63.3404C81.9645 63.3404 82.1026 63.2971 82.2188 63.2163C82.3349 63.1355 82.4236 63.0211 82.4728 62.8884L83.4722 60.1402L86.22 59.1413C86.3526 59.092 86.467 59.0034 86.5478 58.8872C86.6286 58.7711 86.6719 58.633 86.6719 58.4915C86.6719 58.35 86.6286 58.2119 86.5478 58.0957C86.467 57.9796 86.3526 57.8909 86.22 57.8417ZM83.2339 59.4878C83.1391 59.5225 83.053 59.5774 82.9816 59.6488C82.9102 59.7202 82.8553 59.8063 82.8207 59.9011L81.823 62.6458L80.8267 59.9024C80.792 59.8072 80.737 59.7207 80.6654 59.6491C80.5937 59.5775 80.5073 59.5224 80.4121 59.4878L77.6686 58.4915L80.4121 57.4951C80.5073 57.4605 80.5937 57.4054 80.6654 57.3338C80.737 57.2622 80.792 57.1757 80.8267 57.0805L81.823 54.3371L82.8194 57.0805C82.854 57.1754 82.9089 57.2615 82.9803 57.3329C83.0517 57.4043 83.1378 57.4592 83.2326 57.4938L85.9761 58.4902L83.2339 59.4878Z" fill="#00FFC2"/>
<path d="M11.2364 43.6085C11.2382 43.4338 11.2328 43.1995 11.2199 42.9055C11.2032 42.6075 11.1508 42.2972 11.0629 41.9746C10.9709 41.652 10.8192 41.3565 10.6075 41.0882C10.3959 40.8199 10.0981 40.6222 9.71425 40.4951L9.74033 37.9995C10.8307 38.1578 11.653 38.7025 12.2072 39.6336C12.7574 40.5647 13.0235 41.8958 13.0054 43.627C12.9856 45.5211 12.6333 46.9311 11.9485 47.8572C11.2638 48.7793 10.2702 49.2335 8.96781 49.2199L8.52706 49.2153C7.22466 49.2017 6.2408 48.7268 5.57549 47.7906C4.91022 46.8504 4.58748 45.4333 4.60728 43.5393C4.62537 41.808 4.92117 40.4828 5.49469 39.5635C6.06423 38.6441 6.89376 38.1167 7.98328 37.9812L7.9572 40.4768C7.57472 40.5959 7.27488 40.7873 7.05768 41.0511C6.84048 41.3149 6.68453 41.6072 6.58985 41.9278C6.49119 42.2485 6.43236 42.5576 6.41336 42.8552C6.39044 43.1489 6.37806 43.383 6.37624 43.5577C6.37458 43.7166 6.3803 43.9291 6.3934 44.1953C6.40257 44.4575 6.44136 44.7359 6.50976 45.0305C6.57817 45.325 6.6924 45.6042 6.85246 45.868C7.01252 46.1318 7.23857 46.3505 7.53062 46.5244C7.81875 46.6942 8.19509 46.7815 8.65967 46.7863L8.88005 46.7886C9.34462 46.7935 9.7247 46.7141 10.0203 46.5504C10.3119 46.3827 10.5425 46.1687 10.712 45.9083C10.8776 45.648 10.9976 45.3712 11.0721 45.0781C11.1467 44.7851 11.1933 44.5076 11.2119 44.2457C11.2266 43.9797 11.2348 43.7674 11.2364 43.6085Z" fill="white"/>
<path d="M13.4282 23.1907C13.9906 23.4505 14.4183 23.8407 14.7115 24.3611C15.0064 24.8779 15.1345 25.4336 15.096 26.0282L18.0729 25.3369L16.991 27.6782L14.2942 28.2036L12.5527 31.9724L14.5749 32.9068L13.548 35.1291L6.28091 31.771L6.32838 31.6683L7.30782 29.5487L9.59401 24.6013C9.81721 24.1183 10.1394 23.7335 10.5605 23.4469C10.9781 23.1586 11.4392 22.989 11.944 22.9379C12.4505 22.8832 12.9452 22.9675 13.4282 23.1907ZM8.91912 30.2933L10.9414 31.2278L12.9477 26.8859C13.076 26.6084 13.0859 26.3264 12.9776 26.0402C12.871 25.7503 12.6789 25.5412 12.4013 25.413C12.1238 25.2847 11.84 25.2739 11.5502 25.3806C11.262 25.4836 11.0537 25.6739 10.9255 25.9515L8.91912 30.2933Z" fill="white"/>
<path d="M14.1615 17.9223L15.7827 16.0959L21.7696 21.4104L20.1484 23.2368L14.1615 17.9223Z" fill="white"/>
<path d="M28.8734 6.43448L29.7938 7.95918L26.1783 10.1417L29.3951 15.4705L27.2993 16.7357L24.0825 11.4068L20.4671 13.5893L19.5467 12.0646L28.8734 6.43448Z" fill="white"/>
<path d="M34.4189 4.76404L36.7902 4.18026L38.7039 11.9536L36.3325 12.5374L34.4189 4.76404Z" fill="white"/>
<path d="M53.3436 3.67091L48.9582 7.41597L52.8608 11.6618L49.7929 11.4764L46.7574 8.28551L44.3197 8.13823L44.1387 11.1348L41.695 10.9872L42.1778 2.99629L44.6215 3.14393L44.4404 6.14051L46.8781 6.28779L50.2757 3.48555L53.3436 3.67091Z" fill="white"/>
<path d="M75.5124 18.587L70.0602 13.5078L68.9478 14.7019L74.3999 19.7811L73.3565 20.9012L67.9043 15.822L66.7918 17.0161L72.244 22.0954L71.1478 23.2721L63.9087 16.5282L69.3655 10.6707L76.6046 17.4146L75.5124 18.587Z" fill="white"/>
<path d="M83.8827 30.4792L84.9744 33.0118L78.387 30.9867L75.8545 32.0784L74.8877 29.8358L77.4203 28.7441L80.4708 22.5644L81.5625 25.0969L79.4133 29.2146L83.8827 30.4792Z" fill="white"/>
<path d="M84.4149 48.9169L84.4655 41.4655L82.8334 41.4545L82.7828 48.9058L81.2521 48.8954L81.3027 41.4441L79.6707 41.433L79.6201 48.8843L78.0119 48.8734L78.079 38.98L86.0843 39.0343L86.0171 48.9277L84.4149 48.9169Z" fill="white"/>
<path d="M5.94948 77.449C5.99617 77.6174 6.06643 77.841 6.16026 78.12C6.25898 78.4016 6.39532 78.6853 6.56928 78.9708C6.74707 79.2553 6.97483 79.4971 7.25256 79.6962C7.53028 79.8952 7.87118 80.0026 8.27525 80.0183L8.94217 82.4233C7.85061 82.5735 6.90952 82.2782 6.11891 81.5373C5.33212 80.7953 4.70741 79.5901 4.24476 77.9218C3.7386 76.0965 3.68609 74.6441 4.08724 73.5644C4.48945 72.4886 5.31811 71.7767 6.57322 71.4286L6.99797 71.3109C8.25307 70.9628 9.33004 71.1463 10.2289 71.8613C11.1287 72.5802 11.8317 73.8522 12.3379 75.6775C12.8006 77.3459 12.8838 78.7012 12.5877 79.7434C12.2954 80.7846 11.6446 81.5214 10.6354 81.9537L9.9685 79.5488C10.303 79.3283 10.538 79.0612 10.6735 78.7475C10.809 78.4338 10.8778 78.1098 10.8799 77.7755C10.8858 77.44 10.8566 77.1267 10.7923 76.8355C10.7329 76.547 10.6799 76.3186 10.6332 76.1502C10.5907 75.9972 10.5263 75.7946 10.4399 75.5424C10.3584 75.2931 10.2439 75.0363 10.0965 74.7723C9.94913 74.5082 9.76197 74.2717 9.53505 74.0626C9.30813 73.8536 9.03027 73.706 8.70148 73.62C8.37757 73.5368 7.99177 73.5572 7.54406 73.6814L7.33169 73.7402C6.88398 73.8644 6.54083 74.0461 6.30223 74.2853C6.06852 74.5273 5.90633 74.7969 5.81564 75.094C5.72879 75.3901 5.69019 75.6892 5.69983 75.9915C5.70948 76.2938 5.74166 76.5733 5.79639 76.8301C5.85601 77.0897 5.90704 77.296 5.94948 77.449Z" fill="white"/>
<path d="M18.0543 92.5194C17.5511 92.8806 17.0008 93.0605 16.4034 93.0591C15.8084 93.0609 15.2617 92.8985 14.7634 92.5719L13.8976 95.5028L12.3937 93.4075L13.2658 90.802L10.845 87.4291L9.03523 88.7281L7.60779 86.7392L14.1115 82.0714L14.1775 82.1633L15.5389 84.0602L18.7168 88.488C19.0271 88.9203 19.2031 89.3903 19.2449 89.8979C19.2899 90.4033 19.2102 90.8882 19.0058 91.3526C18.8038 91.8202 18.4866 92.2091 18.0543 92.5194ZM14.0969 85.0952L12.2871 86.3942L15.076 90.2799C15.2543 90.5283 15.4947 90.676 15.7971 90.7228C16.1019 90.7729 16.3785 90.7088 16.6269 90.5305C16.8753 90.3522 17.0245 90.1107 17.0746 89.8059C17.127 89.5044 17.0641 89.2294 16.8858 88.981L14.0969 85.0952Z" fill="white"/>
<path d="M21.8302 91.6605L23.6917 93.2412L18.5099 99.3433L16.6484 97.7626L21.8302 91.6605Z" fill="white"/>
<path d="M34.6051 99.4252L33.8263 101.027L30.0284 99.1801L27.3065 104.778L25.1048 103.707L27.8268 98.1096L24.0288 96.2628L24.8076 94.6612L34.6051 99.4252Z" fill="white"/>
<path d="M36.6564 99.6123L39.0493 100.1L37.4498 107.944L35.0569 107.456L36.6564 99.6123Z" fill="white"/>
<path d="M51.8825 100.243L47.9373 104.449L52.2849 108.238L49.2152 108.393L45.846 105.556L43.4069 105.679L43.5578 108.677L41.1128 108.8L40.7104 100.805L43.1554 100.682L43.3063 103.68L45.7454 103.558L48.8128 100.397L51.8825 100.243Z" fill="white"/>
<path d="M69.2844 92.6858L63.2415 97.0457L64.1965 98.3692L70.2393 94.0094L71.135 95.2508L65.0921 99.6107L66.047 100.934L72.0899 96.5743L73.0309 97.8786L65.0075 103.667L60.3236 97.1752L68.3469 91.3864L69.2844 92.6858Z" fill="white"/>
<path d="M74.224 83.4823L75.7834 81.2077L77.5855 87.8595L79.8602 89.4189L78.4793 91.4331L76.2047 89.8737L69.3505 90.5911L70.9099 88.3165L75.5392 87.937L74.224 83.4823Z" fill="white"/>
<path d="M80.1544 71.1348L78.2665 78.3432L79.8454 78.7566L81.7332 71.5483L83.214 71.9361L81.3262 79.1445L82.905 79.5579L84.7929 72.3496L86.3486 72.757L83.8421 82.3279L76.0978 80.2997L78.6044 70.7288L80.1544 71.1348Z" fill="white"/>
<path d="M43.7489 74.0607C44.3347 74.6464 45.2844 74.6464 45.8702 74.0607L55.4162 64.5147C56.002 63.9289 56.002 62.9792 55.4162 62.3934C54.8304 61.8076 53.8806 61.8076 53.2948 62.3934L44.8096 70.8787L36.3243 62.3934C35.7385 61.8076 34.7888 61.8076 34.203 62.3934C33.6172 62.9792 33.6172 63.9289 34.203 64.5147L43.7489 74.0607ZM43.3096 36L43.3096 73L46.3096 73L46.3096 36L43.3096 36Z" fill="#00FFC2"/>
</svg>
