<svg width="1324" height="105" viewBox="0 0 1324 105" fill="none" xmlns="http://www.w3.org/2000/svg">
<path d="M196.224 82.4614C198.386 82.4614 201.286 82.3631 204.924 82.1665C208.61 81.9207 212.444 81.2326 216.426 80.1021C220.407 78.9224 224.045 77.0054 227.338 74.3511C230.631 71.6968 233.04 67.9857 234.563 63.2178H265.457C263.638 76.735 257.002 86.9836 245.549 93.9634C234.097 100.894 217.655 104.359 196.224 104.359C172.777 104.359 155.279 100.181 143.728 91.8252C132.226 83.4691 126.475 71.2298 126.475 55.1074V49.6514C126.475 33.529 132.226 21.2897 143.728 12.9336C155.279 4.57747 172.777 0.399414 196.224 0.399414C217.655 0.399414 234.097 3.88932 245.549 10.8691C257.002 17.7998 263.638 27.9992 265.457 41.4673H234.563C233.04 36.7485 230.631 33.062 227.338 30.4077C224.045 27.7534 220.407 25.861 216.426 24.7305C212.444 23.5508 208.61 22.8626 204.924 22.666C201.286 22.4202 198.386 22.2974 196.224 22.2974C194.257 22.2974 191.628 22.3957 188.334 22.5923C185.09 22.7397 181.65 23.2559 178.012 24.1406C174.375 25.0254 170.934 26.4754 167.69 28.4907C164.446 30.506 161.767 33.3324 159.653 36.9697C157.589 40.5579 156.557 45.2275 156.557 50.9785V53.7065C156.557 59.4575 157.589 64.1517 159.653 67.7891C161.767 71.3773 164.446 74.2036 167.69 76.2681C170.934 78.2834 174.375 79.7334 178.012 80.6182C181.65 81.5029 185.09 82.0436 188.334 82.2402C191.628 82.3877 194.257 82.4614 196.224 82.4614ZM409.821 38.6655C409.821 46.3335 407.658 53.1659 403.333 59.1626C399.056 65.1593 393.477 69.4849 386.596 72.1392L409.821 102H377.896L357.988 74.4248H306.598V102H276.295V2.90625H277.696H306.598H374.062C380.648 2.90625 386.645 4.52832 392.052 7.77246C397.459 10.9674 401.76 15.2684 404.955 20.6753C408.199 26.0822 409.821 32.0789 409.821 38.6655ZM306.598 24.8779V52.4531H365.804C369.589 52.4531 372.808 51.1014 375.462 48.3979C378.166 45.6945 379.518 42.4504 379.518 38.6655C379.518 34.8807 378.166 31.6366 375.462 28.9331C372.808 26.2297 369.589 24.8779 365.804 24.8779H306.598ZM421.839 2.90625H452.068V102H421.839V2.90625ZM599.161 2.90625V24.9517H546.886V102H516.583V24.9517H464.308V2.90625H599.161ZM610.736 2.90625H640.966V102H610.736V2.90625ZM797.864 2.90625L746.474 52.4531L797.864 102H759.819L719.931 64.8398H689.702V102H659.398V2.90625H689.702V40.0664H719.931L759.819 2.90625H797.864ZM925.934 22.7397H833.697V42.9419H925.934V61.8906H833.697V82.0928H925.934V102H803.468V2.90625H925.934V22.7397ZM1035.65 2.90625H1069.78L1014.48 67.8628V102H984.255V67.8628L928.957 2.90625H963.094L999.37 47.5132L1035.65 2.90625ZM1195.2 22.7397H1102.96V42.9419H1195.2V61.8906H1102.96V82.0928H1195.2V102H1072.73V2.90625H1195.2V22.7397Z" fill="#00FFC2" fill-opacity="0.7"/>
<path d="M57.581 55.151L40.4685 48.9459L34.2445 31.8145C33.9379 30.9884 33.3858 30.2759 32.6624 29.7728C31.939 29.2697 31.0789 29 30.1978 29C29.3166 29 28.4565 29.2697 27.7331 29.7728C27.0097 30.2759 26.4576 30.9884 26.151 31.8145L19.9459 48.927L2.81447 55.151C1.98838 55.4576 1.27591 56.0097 0.772794 56.7331C0.269674 57.4565 0 58.3166 0 59.1978C0 60.0789 0.269674 60.939 0.772794 61.6624C1.27591 62.3858 1.98838 62.9379 2.81447 63.2445L19.927 69.4496L26.151 86.581C26.4576 87.4071 27.0097 88.1196 27.7331 88.6227C28.4565 89.1258 29.3166 89.3955 30.1978 89.3955C31.0789 89.3955 31.939 89.1258 32.6624 88.6227C33.3858 88.1196 33.9379 87.4071 34.2445 86.581L40.4685 69.4658L57.581 63.2445C58.4071 62.9379 59.1196 62.3858 59.6227 61.6624C60.1258 60.939 60.3955 60.0789 60.3955 59.1978C60.3955 58.3166 60.1258 57.4565 59.6227 56.7331C59.1196 56.0097 58.4071 55.4576 57.581 55.151ZM38.9847 65.4028C38.3941 65.6185 37.8578 65.9606 37.4133 66.4052C36.9687 66.8497 36.6266 67.386 36.4109 67.9766L30.1978 85.0702L23.9927 67.9847C23.7771 67.3918 23.4342 66.8534 22.9882 66.4073C22.5421 65.9613 22.0037 65.6184 21.4108 65.4028L4.32527 59.1978L21.4108 52.9927C22.0037 52.7771 22.5421 52.4342 22.9882 51.9882C23.4342 51.5421 23.7771 51.0037 23.9927 50.4108L30.1978 33.3253L36.4028 50.4108C36.6185 51.0014 36.9606 51.5377 37.4052 51.9822C37.8497 52.4268 38.386 52.7689 38.9766 52.9846L56.0621 59.1897L38.9847 65.4028Z" fill="#00FFC2" fill-opacity="0.7"/>
<path d="M1320.58 55.151L1303.47 48.9459L1297.24 31.8145C1296.94 30.9884 1296.39 30.2759 1295.66 29.7728C1294.94 29.2697 1294.08 29 1293.2 29C1292.32 29 1291.46 29.2697 1290.73 29.7728C1290.01 30.2759 1289.46 30.9884 1289.15 31.8145L1282.95 48.927L1265.81 55.151C1264.99 55.4576 1264.28 56.0097 1263.77 56.7331C1263.27 57.4565 1263 58.3166 1263 59.1978C1263 60.0789 1263.27 60.939 1263.77 61.6624C1264.28 62.3858 1264.99 62.9379 1265.81 63.2445L1282.93 69.4496L1289.15 86.581C1289.46 87.4071 1290.01 88.1196 1290.73 88.6227C1291.46 89.1258 1292.32 89.3955 1293.2 89.3955C1294.08 89.3955 1294.94 89.1258 1295.66 88.6227C1296.39 88.1196 1296.94 87.4071 1297.24 86.581L1303.47 69.4658L1320.58 63.2445C1321.41 62.9379 1322.12 62.3858 1322.62 61.6624C1323.13 60.939 1323.4 60.0789 1323.4 59.1978C1323.4 58.3166 1323.13 57.4565 1322.62 56.7331C1322.12 56.0097 1321.41 55.4576 1320.58 55.151ZM1301.98 65.4028C1301.39 65.6185 1300.86 65.9606 1300.41 66.4052C1299.97 66.8497 1299.63 67.386 1299.41 67.9766L1293.2 85.0702L1286.99 67.9847C1286.78 67.3918 1286.43 66.8534 1285.99 66.4073C1285.54 65.9613 1285 65.6184 1284.41 65.4028L1267.33 59.1978L1284.41 52.9927C1285 52.7771 1285.54 52.4342 1285.99 51.9882C1286.43 51.5421 1286.78 51.0037 1286.99 50.4108L1293.2 33.3253L1299.4 50.4108C1299.62 51.0014 1299.96 51.5377 1300.41 51.9822C1300.85 52.4268 1301.39 52.7689 1301.98 52.9846L1319.06 59.1897L1301.98 65.4028Z" fill="#00FFC2" fill-opacity="0.7"/>
</svg>
