<svg width="105" height="101" viewBox="0 0 105 101" fill="none" xmlns="http://www.w3.org/2000/svg">
<path d="M19.9124 16.9645C19.4416 16.9645 18.9927 16.7595 18.6878 16.4058L6.84125 2.63449C6.26307 1.96361 6.34358 0.956068 7.01934 0.382772C7.6951 -0.190525 8.71239 -0.110019 9.29057 0.55842L21.1371 14.3297C21.7153 15.0006 21.6347 16.0082 20.959 16.5815C20.6662 16.8278 20.2954 16.9645 19.9124 16.9645Z" fill="#292929"/>
<path d="M10.5704 24.8932C9.27257 25.93 7.37215 25.7275 6.32558 24.4394C6.18897 24.2711 6.06943 24.0881 5.97429 23.8954C2.21005 15.9644 5.64007 6.50624 13.6345 2.77127C19.1357 0.202411 25.6323 0.948917 30.3967 4.69852C31.6799 5.75485 31.858 7.64307 30.7944 8.91408C30.6553 9.07997 30.4992 9.23122 30.326 9.3654L10.5704 24.8932Z" fill="#00FFC2"/>
<path d="M86.0339 16.8597C85.1459 16.8597 84.4238 16.1449 84.4238 15.2618C84.4238 14.8397 84.5946 14.4323 84.8947 14.1322L97.7999 1.33431C98.4513 0.734177 99.4686 0.770771 100.074 1.41725C100.647 2.02958 100.647 2.97857 100.074 3.5909L87.1683 16.3913C86.8658 16.6913 86.4584 16.8597 86.0315 16.8597H86.0339Z" fill="#292929"/>
<path d="M10.2267 100.997C8.89226 100.995 7.81397 99.9216 7.81641 98.5969C7.81641 98.1017 7.97254 97.6186 8.26285 97.2161L18.8261 82.4543C19.5775 81.3614 21.0779 81.0784 22.1805 81.8225C23.2832 82.5665 23.5687 84.0571 22.8173 85.15C22.8002 85.1744 22.7807 85.2013 22.7636 85.2257L12.1979 99.9874C11.7441 100.622 11.0098 100.997 10.2267 100.995V100.997Z" fill="#00FFC2"/>
<path d="M58.8986 92.5595C84.0628 92.5595 104.462 72.3216 104.462 47.3569C104.462 22.3922 84.0628 2.1543 58.8986 2.1543C33.7345 2.1543 13.335 22.3922 13.335 47.3569C13.335 72.3216 33.7345 92.5595 58.8986 92.5595Z" fill="#00FFC2"/>
<path d="M46.1008 92.5595C71.2649 92.5595 91.6645 72.3216 91.6645 47.3569C91.6645 22.3922 71.2649 2.1543 46.1008 2.1543C20.9367 2.1543 0.537109 22.3922 0.537109 47.3569C0.537109 72.3216 20.9367 92.5595 46.1008 92.5595Z" fill="#292929"/>
<path d="M93.4921 100.997C92.709 100.997 91.9747 100.622 91.5234 99.9898L80.9576 85.228C80.1965 84.1424 80.4697 82.6494 81.5651 81.8956C82.6434 81.1515 84.1242 81.4028 84.8951 82.4567L95.4584 97.2185C96.2293 98.2968 95.9731 99.7922 94.8875 100.558C94.4801 100.846 93.9922 101 93.4921 101V100.997Z" fill="#00FFC2"/>
<path d="M64.3419 49.0031H44.7742C43.8862 49.0031 43.1641 48.2883 43.1641 47.4076V11.4021C43.1641 10.5214 43.8837 9.80664 44.7742 9.80664C45.6646 9.80664 46.3843 10.5214 46.3843 11.4021V45.8072H64.3419C65.2299 45.8072 65.952 46.522 65.952 47.4027C65.952 48.2834 65.2323 48.9982 64.3419 48.9982V49.0031Z" fill="#00FFC2"/>
<path d="M10.3371 50.4134C12.0118 50.4134 13.3694 49.0667 13.3694 47.4054C13.3694 45.7442 12.0118 44.3975 10.3371 44.3975C8.66233 44.3975 7.30469 45.7442 7.30469 47.4054C7.30469 49.0667 8.66233 50.4134 10.3371 50.4134Z" fill="#00FFC2"/>
<path d="M44.7736 85.348C46.4483 85.348 47.806 84.0013 47.806 82.34C47.806 80.6787 46.4483 79.332 44.7736 79.332C43.0989 79.332 41.7412 80.6787 41.7412 82.34C41.7412 84.0013 43.0989 85.348 44.7736 85.348Z" fill="#00FFC2"/>
<path d="M81.8673 50.1156C83.5421 50.1156 84.8997 48.7688 84.8997 47.1076C84.8997 45.4463 83.5421 44.0996 81.8673 44.0996C80.1926 44.0996 78.835 45.4463 78.835 47.1076C78.835 48.7688 80.1926 50.1156 81.8673 50.1156Z" fill="#00FFC2"/>
<path d="M76.1514 7.17694C75.0121 5.96936 75.078 4.07382 76.2953 2.9443C76.4563 2.79549 76.632 2.66375 76.8223 2.55397C84.5215 -1.74697 94.2798 0.956059 98.6173 8.59432C101.601 13.8516 101.325 20.3335 97.9001 25.32C96.9316 26.6666 95.0482 26.9789 93.6894 26.0201C93.5113 25.8957 93.3479 25.7493 93.2015 25.5907L76.1514 7.17694Z" fill="#00FFC2"/>
</svg>
