<svg width="18" height="17" viewBox="0 0 18 17" fill="none" xmlns="http://www.w3.org/2000/svg">
<path d="M8.99758 5.66546C7.345 5.66546 5.99636 6.9392 5.99636 8.5C5.99636 10.0608 7.345 11.3345 8.99758 11.3345C10.6502 11.3345 11.9988 10.0608 11.9988 8.5C11.9988 6.9392 10.6502 5.66546 8.99758 5.66546ZM17.999 8.5C17.999 7.32621 18.0103 6.16305 17.9405 4.99138C17.8707 3.63046 17.5419 2.42264 16.4883 1.42747C15.4323 0.430173 14.1557 0.121839 12.7148 0.0559198C11.472 -0.00999972 10.2404 0.000632496 8.99983 0.000632496C7.75702 0.000632496 6.52546 -0.00999972 5.28489 0.0559198C3.84395 0.121839 2.5651 0.432299 1.51141 1.42747C0.455469 2.42477 0.129004 3.63046 0.0592081 4.99138C-0.0105877 6.16517 0.000669689 7.32833 0.000669689 8.5C0.000669689 9.67167 -0.0105877 10.837 0.0592081 12.0086C0.129004 13.3695 0.45772 14.5774 1.51141 15.5725C2.56736 16.5698 3.84395 16.8782 5.28489 16.9441C6.52771 17.01 7.75927 16.9994 8.99983 16.9994C10.2426 16.9994 11.4742 17.01 12.7148 16.9441C14.1557 16.8782 15.4346 16.5677 16.4883 15.5725C17.5442 14.5752 17.8707 13.3695 17.9405 12.0086C18.0125 10.837 17.999 9.67379 17.999 8.5ZM8.99758 12.8613C6.44215 12.8613 4.3798 10.9135 4.3798 8.5C4.3798 6.08649 6.44215 4.13868 8.99758 4.13868C11.553 4.13868 13.6154 6.08649 13.6154 8.5C13.6154 10.9135 11.553 12.8613 8.99758 12.8613ZM13.8045 4.97862C13.2078 4.97862 12.726 4.52356 12.726 3.96006C12.726 3.39655 13.2078 2.94149 13.8045 2.94149C14.4011 2.94149 14.8829 3.39655 14.8829 3.96006C14.8831 4.09386 14.8554 4.22639 14.8012 4.35004C14.7471 4.4737 14.6677 4.58605 14.5675 4.68067C14.4673 4.77528 14.3483 4.8503 14.2174 4.90143C14.0865 4.95256 13.9462 4.97879 13.8045 4.97862Z" fill="white"/>
</svg>
