<svg width="61" height="60" viewBox="0 0 61 60" fill="none" xmlns="http://www.w3.org/2000/svg">
<path d="M43.9752 55.1766C40.9851 55.2212 38.9865 55.7099 37.3173 57.9439C36.125 59.5378 34.6127 60.1465 32.5796 59.9708C30.4084 59.7825 28.2058 59.9708 26.0158 59.8955C25.451 59.8766 24.7858 59.588 24.3717 59.2052C22.966 57.9188 21.6169 56.5571 20.3117 55.164C19.7406 54.5553 19.1445 54.3294 18.3224 54.3608C16.8541 54.4235 15.3731 54.4549 13.911 54.3482C13.2647 54.298 12.4928 54.0345 12.0348 53.6015C10.0393 51.719 8.10652 49.7611 6.2177 47.7719C5.85374 47.3891 5.59019 46.749 5.57136 46.2157C5.49606 44.2704 5.60901 42.3125 5.51489 40.3672C5.48351 39.7334 5.1572 39.0055 4.73677 38.5161C3.72647 37.3426 2.54674 36.3198 1.51762 35.1589C1.15994 34.7572 0.877557 34.136 0.871282 33.6089C0.808531 30.7851 0.808531 27.955 0.871282 25.1312C0.883833 24.6041 1.16621 23.9766 1.53017 23.5875C2.8856 22.1317 4.35398 20.7825 5.70941 19.3267C6.0671 18.9376 6.32438 18.3227 6.36203 17.7893C6.45616 16.484 6.48126 15.1537 6.36831 13.8548C6.25535 12.5056 6.67579 11.533 7.67353 10.6168C9.48705 8.94759 11.1625 7.1278 12.9509 5.43351C13.3337 5.06956 13.9738 4.82483 14.5009 4.79973C16.4462 4.72442 18.404 4.8311 20.3493 4.73697C20.9894 4.7056 21.7236 4.39184 22.2068 3.97141C23.3739 2.96111 24.3842 1.76256 25.5451 0.733435C25.9718 0.356927 26.637 0.061995 27.2018 0.0494447C29.9879 -0.0195818 32.7741 -0.0133067 35.5603 0.0494447C36.0874 0.061995 36.7149 0.331826 37.1039 0.689509C38.5347 2.01356 39.8399 3.4694 41.2895 4.77463C41.7601 5.19506 42.4943 5.48372 43.1343 5.52764C44.678 5.63432 46.2405 5.50882 47.7842 5.59039C48.3239 5.62177 48.9702 5.84767 49.353 6.21163C51.3673 8.13183 53.3377 10.1022 55.2579 12.1228C55.647 12.5307 55.9294 13.2084 55.9545 13.7795C56.036 15.6055 56.0423 17.4441 55.9545 19.2702C55.9043 20.2868 56.2431 20.9959 56.9648 21.6673C58.0127 22.6399 59.0418 23.644 59.9831 24.7233C60.3596 25.1563 60.6483 25.8214 60.6608 26.3862C60.7298 29.21 60.7173 32.0401 60.6608 34.8639C60.6483 35.3534 60.391 35.9432 60.0521 36.3072C58.7532 37.7003 57.3915 39.0494 56.0109 40.3672C55.396 40.9508 55.0697 41.5532 55.1199 42.4443C55.2014 43.9503 55.2077 45.4752 55.1073 46.9812C55.0634 47.5899 54.7873 48.299 54.3731 48.7383C52.6286 50.5957 50.7712 52.3402 49.0079 54.1788C48.2988 54.9193 47.7027 55.2345 46.6327 55.2212C45.8201 55.1899 45.271 55.1766 44.4364 55.1766H43.9752ZM30.7661 43.2475C32.2344 43.2475 33.7154 43.3165 35.1775 43.2161C35.7799 43.1722 36.4827 42.8961 36.9157 42.4882C39.0994 40.4049 41.2393 38.265 43.3289 36.0813C43.7179 35.6734 43.9878 34.9894 44.0003 34.4247C44.0631 31.4063 44.0568 28.3817 44.0066 25.3571C44.0003 24.899 43.7807 24.3342 43.4669 24.0079C41.2518 21.7301 38.999 19.4836 36.7149 17.2684C36.3886 16.9547 35.8301 16.7413 35.372 16.735C32.2721 16.6911 29.1722 16.6911 26.0722 16.735C25.6204 16.7413 25.0682 16.9798 24.7419 17.2998C22.5142 19.4585 20.3179 21.6485 18.1656 23.8762C17.8016 24.2527 17.513 24.8864 17.5004 25.401C17.4377 28.4633 17.4439 31.5255 17.5004 34.5878C17.5067 35.071 17.7702 35.6609 18.1091 36.0185C19.8097 37.8007 21.6734 39.4385 23.2798 41.2959C24.6227 42.8459 26.1036 43.5613 28.143 43.2601C28.9965 43.1346 29.8875 43.2412 30.7661 43.2412V43.2475ZM58.9289 27.7856C56.9522 29.8438 55.1199 31.7515 53.2813 33.6591C52.7981 33.201 52.4655 32.8872 51.9823 32.4292C54.2476 30.2266 56.4816 28.0491 58.6339 25.9532C58.2135 25.4198 57.8998 25.0245 57.3915 24.397C55.1387 26.7564 52.98 29.0155 50.7775 31.3185C50.3194 30.829 49.9868 30.4713 49.5099 29.9568C51.8191 27.6914 54.028 25.5265 56.1302 23.462C55.785 23.0353 55.4524 22.6211 55.0383 22.1066C53.0553 24.1209 51.1477 26.0348 49.2777 27.9864C48.6314 28.6578 48.1043 28.6641 47.4767 27.9989C46.9559 27.4404 46.3911 26.9196 45.6946 26.2356V40.066C48.3929 40.066 51.0097 40.0848 53.6201 40.0409C53.9527 40.0409 54.3292 39.7272 54.599 39.4636C55.8039 38.3027 56.9146 37.0414 58.1759 35.9558C59.2301 35.0522 59.1611 34.0231 58.9477 32.5484C57.7492 33.8913 56.7263 35.0334 55.6533 36.2382C55.1073 35.6609 54.7685 35.3095 54.3229 34.8451C55.5466 33.6654 56.6385 32.4982 57.8433 31.4753C58.9352 30.5529 59.3493 29.4987 58.9038 27.7856H58.9289ZM2.80403 34.0168C3.27466 34.5376 3.62607 34.9329 4.0716 35.4224C6.3181 33.1383 8.4893 30.942 10.6793 28.7143C11.0998 29.0845 11.4637 29.4108 12.0222 29.9066C9.6502 32.197 7.4037 34.3682 5.27016 36.4264C5.65294 36.9598 5.95415 37.374 6.28673 37.8446C6.66951 37.4869 6.93307 37.261 7.1778 37.01C8.80933 35.3785 10.4722 33.7783 12.0473 32.0966C12.8568 31.2369 13.4655 31.2871 14.1934 32.128C14.6389 32.6425 15.1661 33.0818 15.8689 33.7658C15.8689 29.1284 15.8814 24.8425 15.8249 20.5629C15.8249 20.337 15.2163 19.9291 14.8774 19.9165C12.656 19.8601 10.4283 19.8538 8.20065 19.9103C7.74884 19.9228 7.22172 20.1801 6.88287 20.4939C5.69059 21.6046 4.62382 22.8533 3.39389 23.9138C2.33966 24.8237 2.24554 25.8654 2.57812 27.5408C3.7704 26.1101 4.76814 24.9115 5.76589 23.713C5.85374 23.8008 5.94787 23.895 6.03572 23.9828C6.38713 24.2966 6.73854 24.6103 7.3033 25.1124C5.93532 26.3925 4.72422 27.6601 3.36879 28.7582C2.24554 29.6681 2.32084 30.7223 2.52164 32.2535C4.54224 30.1262 6.36831 28.206 8.2383 26.2482C8.72148 26.7062 9.06662 27.02 9.51843 27.453C7.24682 29.6744 5.01287 31.8581 2.80403 34.0168ZM44.2137 7.27841H42.4378C42.4378 9.87631 42.4378 12.3801 42.4378 14.8776C42.4378 16.095 41.8103 16.7037 40.5553 16.7037C39.9842 16.7037 39.4195 16.7037 38.8924 16.7037C42.1429 19.9856 45.3118 23.1922 48.6188 26.5368C49.8488 25.2567 51.0222 23.8385 52.3965 22.6462C53.8899 21.3535 54.6994 19.9291 54.3794 17.9022C54.2413 17.0111 54.2539 16.0636 54.3794 15.1663C54.5865 13.6853 53.8899 12.7754 52.5784 11.9283V16.6346H50.9971C50.9971 14.9153 50.8904 13.2837 51.0285 11.671C51.154 10.2277 50.4825 9.38685 49.2087 8.56481V16.6033H47.5709V7.24076H45.7762V16.6346H44.2137V7.27841ZM8.92856 48.0292V43.2601H10.4911C10.4911 45.1238 10.5475 46.9436 10.4722 48.7634C10.4158 50.1 11.288 50.6334 12.336 51.4491V43.3416H13.9173V52.7041H15.712V43.3165H17.3184V52.6602H19.0378C19.0378 49.8929 19.0629 47.2259 19.0253 44.5653C19.0127 43.5926 19.3641 43.1722 20.3556 43.2287C21.1149 43.2789 21.8742 43.2412 22.5205 43.2412C19.2951 39.9782 16.1261 36.7716 12.8945 33.5022C11.15 35.2593 9.33645 37.0477 7.58568 38.8926C7.3033 39.1938 7.15897 39.7272 7.14015 40.1664C7.08995 41.6787 7.22172 43.1973 7.08995 44.6971C6.96444 46.1404 7.48528 47.1381 8.91601 48.0229L8.92856 48.0292ZM25.1623 3.31879C27.5344 5.62804 29.7495 7.78042 32.0085 9.98299C31.6446 10.3846 31.3308 10.7297 30.8414 11.2694C28.5572 8.89112 26.3923 6.63834 24.2901 4.45459C23.7316 4.8562 23.3175 5.15113 22.8907 5.45234C23.148 5.77237 23.2547 5.9418 23.3928 6.07985C25.1623 7.85572 26.9131 9.65041 28.7141 11.3949C29.4232 12.0789 29.442 12.6248 28.7141 13.2837C28.1744 13.7732 27.6975 14.3379 27.0574 15.0031H40.7937C40.7937 12.5809 40.7623 10.2403 40.8125 7.90592C40.8314 7.0525 40.6243 6.39989 39.9717 5.81002C38.8798 4.82483 37.7691 3.83335 36.8592 2.685C35.9305 1.51155 34.8386 1.58685 33.4393 2.00729C34.5939 3.01759 35.7422 4.02161 36.9659 5.09466C36.445 5.64687 36.125 5.98573 35.6858 6.45009C34.3303 5.05701 33.0188 3.83963 31.8642 2.49047C30.948 1.4237 29.9315 1.5994 28.8521 1.76256C28.7643 1.88179 28.6827 1.99474 28.5948 2.11397C30.5025 3.94631 32.4039 5.77865 34.186 7.49176C33.8973 7.93102 33.6401 8.32635 33.2761 8.89739C30.9543 6.50656 28.8019 4.27889 26.5994 2.00729C26.1413 2.434 25.771 2.77286 25.1623 3.33762V3.31879ZM38.6539 54.3545C36.671 52.3967 34.8323 50.5831 32.9937 48.7696C31.9018 47.6903 31.9081 47.5272 32.9686 46.4792C33.4267 46.0274 33.8785 45.563 34.4684 44.9669H20.6882C20.6882 47.6715 20.6693 50.2882 20.7133 52.905C20.7133 53.2375 21.0333 53.614 21.2906 53.8839C22.4201 55.0573 23.6563 56.1366 24.7168 57.3728C25.6393 58.4522 26.6872 58.3957 27.8293 58.2263C27.9234 58.107 28.0175 57.9815 28.1054 57.8623C26.9382 56.8646 25.7773 55.8731 24.5474 54.8189C25.0745 54.3231 25.4134 54.0031 25.9279 53.5199C27.1516 54.8189 28.4066 55.9923 29.4671 57.3226C30.377 58.4584 31.4438 58.3894 32.818 58.22C30.7849 56.2935 28.8647 54.4737 26.8692 52.5786C27.4339 51.9762 27.7728 51.6123 28.2434 51.1103C30.5464 53.4697 32.7051 55.6848 34.9955 58.0317C35.3971 57.5988 35.7422 57.2348 36.2568 56.6889C33.9162 54.4612 31.6571 52.3088 29.5047 50.2631C29.9315 49.6482 30.2201 49.2403 30.6154 48.6692C32.9749 51.0914 35.1335 53.3128 37.3047 55.5405C37.7377 55.1577 38.1205 54.8189 38.6476 54.3545H38.6539ZM52.1329 48.4433H44.0944V46.8306H53.4068V45.0171H44.1133V43.4358H53.4256V41.6725C52.9236 41.6725 52.4906 41.6725 52.0639 41.6725C49.8362 41.6725 47.6085 41.6285 45.3871 41.685C44.3266 41.7164 43.9501 41.2959 44.0129 40.2856C44.0631 39.5577 44.0191 38.8173 44.0191 38.058C40.731 41.365 37.5558 44.559 34.3052 47.8284C36.1376 49.6482 38.0515 51.5495 39.9654 53.4572C41.9107 53.4885 43.8623 53.4321 45.795 53.5889C47.2132 53.7082 47.9599 52.9803 48.8259 51.8068H44.0191V50.1878C45.6695 50.1878 47.2571 50.0937 48.8322 50.2192C50.2629 50.3321 51.2795 49.8678 52.1266 48.4433H52.1329ZM8.04377 18.2787C10.6166 18.2787 13.0764 18.2787 15.5363 18.2787C16.8206 18.2787 17.4628 18.9125 17.4628 20.1801C17.4628 20.7511 17.4628 21.3222 17.4628 21.9058C20.7635 18.6176 23.9575 15.4361 27.2269 12.173C25.4447 10.3972 23.6375 8.55853 21.7738 6.77639C21.5039 6.51911 20.9894 6.43754 20.5878 6.42499C18.9562 6.38734 17.3184 6.51284 15.6994 6.37479C14.2938 6.25556 13.5345 6.98347 12.6623 8.15065H17.469V9.76336C15.643 9.76336 13.8985 9.85121 12.1665 9.73199C10.786 9.63786 10.1271 10.4097 9.349 11.533H17.3937V13.1457H8.06887V14.9278H17.4063V16.4778H8.05004V18.2725L8.04377 18.2787Z" fill="white"/>
<path d="M31.466 39.3293C29.5873 39.3293 27.8966 38.9429 26.3937 38.1701C24.8908 37.3974 23.7049 36.3319 22.836 34.9737C21.9671 33.5921 21.5327 32.0348 21.5327 30.3019C21.5327 28.5456 21.9671 26.9884 22.836 25.6302C23.7284 24.2486 24.926 23.1714 26.4289 22.3986C27.9553 21.6024 29.6695 21.2043 31.5716 21.2043C32.9336 21.2043 34.1547 21.4151 35.235 21.8366C36.3387 22.2581 37.3602 22.9021 38.2995 23.7685L33.9669 28.089C33.6616 27.808 33.3211 27.5973 32.9454 27.4567C32.5697 27.3162 32.1117 27.246 31.5716 27.246C31.008 27.246 30.4914 27.3748 30.0218 27.6324C29.5756 27.8665 29.2116 28.2061 28.9298 28.651C28.648 29.096 28.5071 29.6228 28.5071 30.2317C28.5071 30.8405 28.648 31.3791 28.9298 31.8475C29.2116 32.2924 29.5873 32.6437 30.057 32.9013C30.5266 33.1588 31.0315 33.2876 31.5716 33.2876C32.1822 33.2876 32.6871 33.194 33.0863 33.0066C33.4855 32.8193 33.8377 32.5617 34.143 32.2339L38.4756 36.5543C37.4658 37.491 36.4091 38.1936 35.3054 38.6619C34.2017 39.1068 32.9219 39.3293 31.466 39.3293Z" fill="white"/>
</svg>
