<svg width="18" height="19" viewBox="0 0 18 19" fill="none" xmlns="http://www.w3.org/2000/svg">
<path d="M9.52969 0.26582C10.5521 0.25 11.5687 0.259375 12.5841 0.25C12.6456 1.44586 13.0757 2.66399 13.951 3.50947C14.8246 4.37604 16.0603 4.77271 17.2626 4.90688V8.05268C16.1359 8.01577 15.0039 7.7814 13.9815 7.29626C13.5362 7.0947 13.1214 6.83514 12.7153 6.56972C12.7101 8.85246 12.7247 11.1323 12.7007 13.4056C12.6397 14.4978 12.2794 15.5847 11.6443 16.4846C10.6224 17.9828 8.84885 18.9596 7.02723 18.99C5.90988 19.0539 4.79371 18.7492 3.84159 18.1879C2.26371 17.2575 1.15339 15.5542 0.99168 13.7261C0.97131 13.339 0.968182 12.9511 0.982305 12.5637C1.12293 11.0772 1.85825 9.65517 2.99962 8.68782C4.29333 7.56109 6.10558 7.02439 7.8024 7.34196C7.81822 8.49915 7.77193 9.65517 7.77193 10.8124C6.99676 10.5616 6.09093 10.6319 5.41361 11.1024C4.91806 11.4288 4.54358 11.9091 4.34782 12.4693C4.18611 12.8654 4.2324 13.3054 4.24177 13.7261C4.42751 15.0081 5.66028 16.0856 6.97625 15.969C7.84869 15.9597 8.68479 15.4534 9.13947 14.7122C9.28653 14.4527 9.45118 14.1872 9.45996 13.882C9.53672 12.4846 9.50625 11.093 9.51563 9.6956C9.52207 6.54628 9.50625 3.40576 9.53027 0.266406L9.52969 0.26582Z" fill="white"/>
</svg>
