<svg width="1752" height="28" viewBox="0 0 1752 28" fill="none" xmlns="http://www.w3.org/2000/svg">
<path d="M18.3203 0.730469C12.9818 0.730469 8.86719 1.59635 5.97656 3.32812C4.38802 4.29167 3.18359 5.52214 2.36328 7.01953C1.47786 8.66016 1.03516 10.6198 1.03516 12.8984V14.8125C1.03516 17.0911 1.47786 19.0508 2.36328 20.6914C3.18359 22.1888 4.38802 23.4193 5.97656 24.3828C8.86719 26.1146 12.9818 26.9805 18.3203 26.9805C23.4115 26.9805 27.3828 26.1927 30.2344 24.6172C31.8099 23.7578 33.0339 22.651 33.9062 21.2969C34.7396 20.0078 35.2669 18.4909 35.4883 16.7461H26.1328C25.6771 17.6706 25.026 18.3672 24.1797 18.8359C23.3333 19.2917 22.3893 19.5911 21.3477 19.7344C20.319 19.8646 19.3099 19.9297 18.3203 19.9297C15.7292 19.9297 13.8151 19.5846 12.5781 18.8945C10.8594 17.957 10 16.3815 10 14.168V13.543C10 11.3294 10.8594 9.75391 12.5781 8.81641C13.8151 8.1263 15.7292 7.78125 18.3203 7.78125C19.3099 7.78125 20.319 7.85286 21.3477 7.99609C22.3893 8.1263 23.3333 8.42578 24.1797 8.89453C25.026 9.35026 25.6771 10.0469 26.1328 10.9844H35.4883C35.2669 9.22656 34.7396 7.70312 33.9062 6.41406C33.0339 5.0599 31.8099 3.95312 30.2344 3.09375C27.3828 1.51823 23.4115 0.730469 18.3203 0.730469ZM18.3203 0.0859375C20.6901 0.0859375 22.9167 0.27474 25 0.652344C27.0833 1.02995 28.9323 1.65495 30.5469 2.52734C32.1615 3.39974 33.457 4.58464 34.4336 6.08203C35.4232 7.56641 36.0091 9.40885 36.1914 11.6094H25.7031C25.3776 10.75 24.8568 10.0924 24.1406 9.63672C23.4375 9.16797 22.5846 8.84896 21.582 8.67969C20.5794 8.4974 19.4922 8.40625 18.3203 8.40625C16.901 8.40625 15.612 8.54297 14.4531 8.81641C13.2943 9.07682 12.3698 9.57812 11.6797 10.3203C10.9896 11.0495 10.6445 12.1237 10.6445 13.543V14.168C10.6445 15.5872 10.9896 16.668 11.6797 17.4102C12.3698 18.1393 13.2943 18.6406 14.4531 18.9141C15.612 19.1745 16.901 19.3047 18.3203 19.3047C19.4922 19.3047 20.5794 19.2201 21.582 19.0508C22.5846 18.8685 23.4375 18.5495 24.1406 18.0938C24.8568 17.625 25.3776 16.9609 25.7031 16.1016H36.1914C36.0091 18.3021 35.4232 20.151 34.4336 21.6484C33.457 23.1328 32.1615 24.3112 30.5469 25.1836C28.9323 26.056 27.0833 26.681 25 27.0586C22.9167 27.4362 20.6901 27.625 18.3203 27.625C15.8464 27.625 13.5221 27.4167 11.3477 27C9.1862 26.5964 7.28516 25.9128 5.64453 24.9492C4.00391 23.9727 2.71484 22.6576 1.77734 21.0039C0.852865 19.3503 0.390625 17.2865 0.390625 14.8125V12.8984C0.390625 10.4245 0.852865 8.36719 1.77734 6.72656C2.71484 5.07292 4.00391 3.75781 5.64453 2.78125C7.28516 1.80469 9.1862 1.11458 11.3477 0.710938C13.5221 0.294271 15.8464 0.0859375 18.3203 0.0859375ZM64.5508 1.39453H39.9023V26.3555H48.8672V20.5938V19.9492H49.5117H58.6523H58.9648L59.1602 20.2031L63.9062 26.3555H73.1641L68.2617 20.0469L67.7539 19.4023L68.4961 19.0703C70.1367 18.276 71.4323 17.1237 72.3828 15.6133C73.3464 14.1029 73.8281 12.4557 73.8281 10.6719C73.8281 8.96615 73.4115 7.41016 72.5781 6.00391C71.7448 4.59766 70.625 3.47786 69.2188 2.64453C67.8125 1.8112 66.2565 1.39453 64.5508 1.39453ZM48.8672 13.543V12.918V8.42578V7.78125H49.5117H61.9922C62.7865 7.78125 63.4635 8.06771 64.0234 8.64062C64.5833 9.20052 64.8633 9.8776 64.8633 10.6719C64.8633 11.4661 64.5833 12.1432 64.0234 12.7031C63.4635 13.263 62.7865 13.543 61.9922 13.543H49.5117H48.8672ZM64.5508 0.75C66.3737 0.75 68.0339 1.19922 69.5312 2.09766C71.0417 2.98307 72.2396 4.18099 73.125 5.69141C74.0234 7.1888 74.4727 8.84896 74.4727 10.6719C74.4727 12.6641 73.9453 14.4544 72.8906 16.043C71.849 17.6315 70.4688 18.8359 68.75 19.6562L74.4727 27H63.5938L58.6523 20.5938H49.5117V27H39.2578V0.75H64.5508ZM49.5117 12.918H61.9922C62.6042 12.918 63.1315 12.6966 63.5742 12.2539C64.0169 11.8112 64.2383 11.2839 64.2383 10.6719C64.2383 10.0469 64.0169 9.51953 63.5742 9.08984C63.1315 8.64714 62.6042 8.42578 61.9922 8.42578H49.5117V12.918ZM87.8906 0.75V27H77.6562V0.75H87.8906ZM87.2656 1.39453H78.3008V26.3555H87.2656V1.39453ZM125.703 0.75V9.07031H113.535V27H103.301V9.07031H91.1328V0.75H125.703ZM125.059 1.39453H91.7773V8.42578H103.301H103.926V9.07031V26.3555H112.891V9.07031V8.42578H113.535H125.059V1.39453ZM139.414 0.75V27H129.18V0.75H139.414ZM138.789 1.39453H129.824V26.3555H138.789V1.39453ZM182.656 0.75L169.043 13.875L182.656 27H169.199L159.59 18.0352H155.117V27H144.883V0.75H155.117V9.71484H159.59L169.199 0.75H182.656ZM181.074 1.39453H169.453L160.02 10.1836L159.824 10.3594H159.59H155.117H154.492V9.71484V1.39453H145.527V26.3555H154.492V18.0352V17.3906H155.117H159.59H159.824L160.02 17.5664L169.453 26.3555H181.074L168.594 14.3438L168.125 13.875L168.594 13.4062L181.074 1.39453ZM214.902 0.75V7.46875H194.414V10.8281H214.902V16.9219H194.414V20.2812H214.902V27H184.18V0.75H214.902ZM214.258 1.39453H184.824V26.3555H214.258V20.9258H194.414H193.789V20.2812V16.9219V16.2773H194.414H214.258V11.4727H194.414H193.789V10.8281V7.46875V6.82422H194.414H214.258V1.39453ZM255.391 0.75L240.664 18.0352V27H230.43V18.0352L215.703 0.75H227.871L235.547 10.1836L243.223 0.75H255.391ZM254.004 1.39453H243.535L236.035 10.5938L235.547 11.1992L235.059 10.5938L227.559 1.39453H217.09L230.918 17.625L231.074 17.8008V18.0352V26.3555H240.02V18.0352V17.8008L240.176 17.625L254.004 1.39453ZM286.895 0.75V7.46875H266.406V10.8281H286.895V16.9219H266.406V20.2812H286.895V27H256.172V0.75H286.895ZM286.25 1.39453H256.816V26.3555H286.25V20.9258H266.406H265.781V20.2812V16.9219V16.2773H266.406H286.25V11.4727H266.406H265.781V10.8281V7.46875V6.82422H266.406H286.25V1.39453ZM335.996 10.0469V17.7227H305.273V10.0469H335.996ZM335.352 10.6914H305.918V17.0781H335.352V10.6914ZM372.305 0.730469C366.966 0.730469 362.852 1.59635 359.961 3.32812C358.372 4.29167 357.168 5.52214 356.348 7.01953C355.462 8.66016 355.02 10.6198 355.02 12.8984V14.8125C355.02 17.0911 355.462 19.0508 356.348 20.6914C357.168 22.1888 358.372 23.4193 359.961 24.3828C362.852 26.1146 366.966 26.9805 372.305 26.9805C377.396 26.9805 381.367 26.1927 384.219 24.6172C385.794 23.7578 387.018 22.651 387.891 21.2969C388.724 20.0078 389.251 18.4909 389.473 16.7461H380.117C379.661 17.6706 379.01 18.3672 378.164 18.8359C377.318 19.2917 376.374 19.5911 375.332 19.7344C374.303 19.8646 373.294 19.9297 372.305 19.9297C369.714 19.9297 367.799 19.5846 366.562 18.8945C364.844 17.957 363.984 16.3815 363.984 14.168V13.543C363.984 11.3294 364.844 9.75391 366.562 8.81641C367.799 8.1263 369.714 7.78125 372.305 7.78125C373.294 7.78125 374.303 7.85286 375.332 7.99609C376.374 8.1263 377.318 8.42578 378.164 8.89453C379.01 9.35026 379.661 10.0469 380.117 10.9844H389.473C389.251 9.22656 388.724 7.70312 387.891 6.41406C387.018 5.0599 385.794 3.95312 384.219 3.09375C381.367 1.51823 377.396 0.730469 372.305 0.730469ZM372.305 0.0859375C374.674 0.0859375 376.901 0.27474 378.984 0.652344C381.068 1.02995 382.917 1.65495 384.531 2.52734C386.146 3.39974 387.441 4.58464 388.418 6.08203C389.408 7.56641 389.993 9.40885 390.176 11.6094H379.688C379.362 10.75 378.841 10.0924 378.125 9.63672C377.422 9.16797 376.569 8.84896 375.566 8.67969C374.564 8.4974 373.477 8.40625 372.305 8.40625C370.885 8.40625 369.596 8.54297 368.438 8.81641C367.279 9.07682 366.354 9.57812 365.664 10.3203C364.974 11.0495 364.629 12.1237 364.629 13.543V14.168C364.629 15.5872 364.974 16.668 365.664 17.4102C366.354 18.1393 367.279 18.6406 368.438 18.9141C369.596 19.1745 370.885 19.3047 372.305 19.3047C373.477 19.3047 374.564 19.2201 375.566 19.0508C376.569 18.8685 377.422 18.5495 378.125 18.0938C378.841 17.625 379.362 16.9609 379.688 16.1016H390.176C389.993 18.3021 389.408 20.151 388.418 21.6484C387.441 23.1328 386.146 24.3112 384.531 25.1836C382.917 26.056 381.068 26.681 378.984 27.0586C376.901 27.4362 374.674 27.625 372.305 27.625C369.831 27.625 367.507 27.4167 365.332 27C363.171 26.5964 361.27 25.9128 359.629 24.9492C357.988 23.9727 356.699 22.6576 355.762 21.0039C354.837 19.3503 354.375 17.2865 354.375 14.8125V12.8984C354.375 10.4245 354.837 8.36719 355.762 6.72656C356.699 5.07292 357.988 3.75781 359.629 2.78125C361.27 1.80469 363.171 1.11458 365.332 0.710938C367.507 0.294271 369.831 0.0859375 372.305 0.0859375ZM418.535 1.39453H393.887V26.3555H402.852V20.5938V19.9492H403.496H412.637H412.949L413.145 20.2031L417.891 26.3555H427.148L422.246 20.0469L421.738 19.4023L422.48 19.0703C424.121 18.276 425.417 17.1237 426.367 15.6133C427.331 14.1029 427.812 12.4557 427.812 10.6719C427.812 8.96615 427.396 7.41016 426.562 6.00391C425.729 4.59766 424.609 3.47786 423.203 2.64453C421.797 1.8112 420.241 1.39453 418.535 1.39453ZM402.852 13.543V12.918V8.42578V7.78125H403.496H415.977C416.771 7.78125 417.448 8.06771 418.008 8.64062C418.568 9.20052 418.848 9.8776 418.848 10.6719C418.848 11.4661 418.568 12.1432 418.008 12.7031C417.448 13.263 416.771 13.543 415.977 13.543H403.496H402.852ZM418.535 0.75C420.358 0.75 422.018 1.19922 423.516 2.09766C425.026 2.98307 426.224 4.18099 427.109 5.69141C428.008 7.1888 428.457 8.84896 428.457 10.6719C428.457 12.6641 427.93 14.4544 426.875 16.043C425.833 17.6315 424.453 18.8359 422.734 19.6562L428.457 27H417.578L412.637 20.5938H403.496V27H393.242V0.75H418.535ZM403.496 12.918H415.977C416.589 12.918 417.116 12.6966 417.559 12.2539C418.001 11.8112 418.223 11.2839 418.223 10.6719C418.223 10.0469 418.001 9.51953 417.559 9.08984C417.116 8.64714 416.589 8.42578 415.977 8.42578H403.496V12.918ZM441.875 0.75V27H431.641V0.75H441.875ZM441.25 1.39453H432.285V26.3555H441.25V1.39453ZM479.688 0.75V9.07031H467.52V27H457.285V9.07031H445.117V0.75H479.688ZM479.043 1.39453H445.762V8.42578H457.285H457.91V9.07031V26.3555H466.875V9.07031V8.42578H467.52H479.043V1.39453ZM493.398 0.75V27H483.164V0.75H493.398ZM492.773 1.39453H483.809V26.3555H492.773V1.39453ZM536.641 0.75L523.027 13.875L536.641 27H523.184L513.574 18.0352H509.102V27H498.867V0.75H509.102V9.71484H513.574L523.184 0.75H536.641ZM535.059 1.39453H523.438L514.004 10.1836L513.809 10.3594H513.574H509.102H508.477V9.71484V1.39453H499.512V26.3555H508.477V18.0352V17.3906H509.102H513.574H513.809L514.004 17.5664L523.438 26.3555H535.059L522.578 14.3438L522.109 13.875L522.578 13.4062L535.059 1.39453ZM568.887 0.75V7.46875H548.398V10.8281H568.887V16.9219H548.398V20.2812H568.887V27H538.164V0.75H568.887ZM568.242 1.39453H538.809V26.3555H568.242V20.9258H548.398H547.773V20.2812V16.9219V16.2773H548.398H568.242V11.4727H548.398H547.773V10.8281V7.46875V6.82422H548.398H568.242V1.39453ZM609.375 0.75L594.648 18.0352V27H584.414V18.0352L569.688 0.75H581.855L589.531 10.1836L597.207 0.75H609.375ZM607.988 1.39453H597.52L590.02 10.5938L589.531 11.1992L589.043 10.5938L581.543 1.39453H571.074L584.902 17.625L585.059 17.8008V18.0352V26.3555H594.004V18.0352V17.8008L594.16 17.625L607.988 1.39453ZM640.879 0.75V7.46875H620.391V10.8281H640.879V16.9219H620.391V20.2812H640.879V27H610.156V0.75H640.879ZM640.234 1.39453H610.801V26.3555H640.234V20.9258H620.391H619.766V20.2812V16.9219V16.2773H620.391H640.234V11.4727H620.391H619.766V10.8281V7.46875V6.82422H620.391H640.234V1.39453ZM689.98 10.0469V17.7227H659.258V10.0469H689.98ZM689.336 10.6914H659.902V17.0781H689.336V10.6914ZM726.289 0.730469C720.951 0.730469 716.836 1.59635 713.945 3.32812C712.357 4.29167 711.152 5.52214 710.332 7.01953C709.447 8.66016 709.004 10.6198 709.004 12.8984V14.8125C709.004 17.0911 709.447 19.0508 710.332 20.6914C711.152 22.1888 712.357 23.4193 713.945 24.3828C716.836 26.1146 720.951 26.9805 726.289 26.9805C731.38 26.9805 735.352 26.1927 738.203 24.6172C739.779 23.7578 741.003 22.651 741.875 21.2969C742.708 20.0078 743.236 18.4909 743.457 16.7461H734.102C733.646 17.6706 732.995 18.3672 732.148 18.8359C731.302 19.2917 730.358 19.5911 729.316 19.7344C728.288 19.8646 727.279 19.9297 726.289 19.9297C723.698 19.9297 721.784 19.5846 720.547 18.8945C718.828 17.957 717.969 16.3815 717.969 14.168V13.543C717.969 11.3294 718.828 9.75391 720.547 8.81641C721.784 8.1263 723.698 7.78125 726.289 7.78125C727.279 7.78125 728.288 7.85286 729.316 7.99609C730.358 8.1263 731.302 8.42578 732.148 8.89453C732.995 9.35026 733.646 10.0469 734.102 10.9844H743.457C743.236 9.22656 742.708 7.70312 741.875 6.41406C741.003 5.0599 739.779 3.95312 738.203 3.09375C735.352 1.51823 731.38 0.730469 726.289 0.730469ZM726.289 0.0859375C728.659 0.0859375 730.885 0.27474 732.969 0.652344C735.052 1.02995 736.901 1.65495 738.516 2.52734C740.13 3.39974 741.426 4.58464 742.402 6.08203C743.392 7.56641 743.978 9.40885 744.16 11.6094H733.672C733.346 10.75 732.826 10.0924 732.109 9.63672C731.406 9.16797 730.553 8.84896 729.551 8.67969C728.548 8.4974 727.461 8.40625 726.289 8.40625C724.87 8.40625 723.581 8.54297 722.422 8.81641C721.263 9.07682 720.339 9.57812 719.648 10.3203C718.958 11.0495 718.613 12.1237 718.613 13.543V14.168C718.613 15.5872 718.958 16.668 719.648 17.4102C720.339 18.1393 721.263 18.6406 722.422 18.9141C723.581 19.1745 724.87 19.3047 726.289 19.3047C727.461 19.3047 728.548 19.2201 729.551 19.0508C730.553 18.8685 731.406 18.5495 732.109 18.0938C732.826 17.625 733.346 16.9609 733.672 16.1016H744.16C743.978 18.3021 743.392 20.151 742.402 21.6484C741.426 23.1328 740.13 24.3112 738.516 25.1836C736.901 26.056 735.052 26.681 732.969 27.0586C730.885 27.4362 728.659 27.625 726.289 27.625C723.815 27.625 721.491 27.4167 719.316 27C717.155 26.5964 715.254 25.9128 713.613 24.9492C711.973 23.9727 710.684 22.6576 709.746 21.0039C708.822 19.3503 708.359 17.2865 708.359 14.8125V12.8984C708.359 10.4245 708.822 8.36719 709.746 6.72656C710.684 5.07292 711.973 3.75781 713.613 2.78125C715.254 1.80469 717.155 1.11458 719.316 0.710938C721.491 0.294271 723.815 0.0859375 726.289 0.0859375ZM772.52 1.39453H747.871V26.3555H756.836V20.5938V19.9492H757.48H766.621H766.934L767.129 20.2031L771.875 26.3555H781.133L776.23 20.0469L775.723 19.4023L776.465 19.0703C778.105 18.276 779.401 17.1237 780.352 15.6133C781.315 14.1029 781.797 12.4557 781.797 10.6719C781.797 8.96615 781.38 7.41016 780.547 6.00391C779.714 4.59766 778.594 3.47786 777.188 2.64453C775.781 1.8112 774.225 1.39453 772.52 1.39453ZM756.836 13.543V12.918V8.42578V7.78125H757.48H769.961C770.755 7.78125 771.432 8.06771 771.992 8.64062C772.552 9.20052 772.832 9.8776 772.832 10.6719C772.832 11.4661 772.552 12.1432 771.992 12.7031C771.432 13.263 770.755 13.543 769.961 13.543H757.48H756.836ZM772.52 0.75C774.342 0.75 776.003 1.19922 777.5 2.09766C779.01 2.98307 780.208 4.18099 781.094 5.69141C781.992 7.1888 782.441 8.84896 782.441 10.6719C782.441 12.6641 781.914 14.4544 780.859 16.043C779.818 17.6315 778.438 18.8359 776.719 19.6562L782.441 27H771.562L766.621 20.5938H757.48V27H747.227V0.75H772.52ZM757.48 12.918H769.961C770.573 12.918 771.1 12.6966 771.543 12.2539C771.986 11.8112 772.207 11.2839 772.207 10.6719C772.207 10.0469 771.986 9.51953 771.543 9.08984C771.1 8.64714 770.573 8.42578 769.961 8.42578H757.48V12.918ZM795.859 0.75V27H785.625V0.75H795.859ZM795.234 1.39453H786.27V26.3555H795.234V1.39453ZM833.672 0.75V9.07031H821.504V27H811.27V9.07031H799.102V0.75H833.672ZM833.027 1.39453H799.746V8.42578H811.27H811.895V9.07031V26.3555H820.859V9.07031V8.42578H821.504H833.027V1.39453ZM847.383 0.75V27H837.148V0.75H847.383ZM846.758 1.39453H837.793V26.3555H846.758V1.39453ZM890.625 0.75L877.012 13.875L890.625 27H877.168L867.559 18.0352H863.086V27H852.852V0.75H863.086V9.71484H867.559L877.168 0.75H890.625ZM889.043 1.39453H877.422L867.988 10.1836L867.793 10.3594H867.559H863.086H862.461V9.71484V1.39453H853.496V26.3555H862.461V18.0352V17.3906H863.086H867.559H867.793L867.988 17.5664L877.422 26.3555H889.043L876.562 14.3438L876.094 13.875L876.562 13.4062L889.043 1.39453ZM922.871 0.75V7.46875H902.383V10.8281H922.871V16.9219H902.383V20.2812H922.871V27H892.148V0.75H922.871ZM922.227 1.39453H892.793V26.3555H922.227V20.9258H902.383H901.758V20.2812V16.9219V16.2773H902.383H922.227V11.4727H902.383H901.758V10.8281V7.46875V6.82422H902.383H922.227V1.39453ZM963.359 0.75L948.633 18.0352V27H938.398V18.0352L923.672 0.75H935.84L943.516 10.1836L951.191 0.75H963.359ZM961.973 1.39453H951.504L944.004 10.5938L943.516 11.1992L943.027 10.5938L935.527 1.39453H925.059L938.887 17.625L939.043 17.8008V18.0352V26.3555H947.988V18.0352V17.8008L948.145 17.625L961.973 1.39453ZM994.863 0.75V7.46875H974.375V10.8281H994.863V16.9219H974.375V20.2812H994.863V27H964.141V0.75H994.863ZM994.219 1.39453H964.785V26.3555H994.219V20.9258H974.375H973.75V20.2812V16.9219V16.2773H974.375H994.219V11.4727H974.375H973.75V10.8281V7.46875V6.82422H974.375H994.219V1.39453ZM1043.96 10.0469V17.7227H1013.24V10.0469H1043.96ZM1043.32 10.6914H1013.89V17.0781H1043.32V10.6914ZM1080.27 0.730469C1074.93 0.730469 1070.82 1.59635 1067.93 3.32812C1066.34 4.29167 1065.14 5.52214 1064.32 7.01953C1063.43 8.66016 1062.99 10.6198 1062.99 12.8984V14.8125C1062.99 17.0911 1063.43 19.0508 1064.32 20.6914C1065.14 22.1888 1066.34 23.4193 1067.93 24.3828C1070.82 26.1146 1074.93 26.9805 1080.27 26.9805C1085.36 26.9805 1089.34 26.1927 1092.19 24.6172C1093.76 23.7578 1094.99 22.651 1095.86 21.2969C1096.69 20.0078 1097.22 18.4909 1097.44 16.7461H1088.09C1087.63 17.6706 1086.98 18.3672 1086.13 18.8359C1085.29 19.2917 1084.34 19.5911 1083.3 19.7344C1082.27 19.8646 1081.26 19.9297 1080.27 19.9297C1077.68 19.9297 1075.77 19.5846 1074.53 18.8945C1072.81 17.957 1071.95 16.3815 1071.95 14.168V13.543C1071.95 11.3294 1072.81 9.75391 1074.53 8.81641C1075.77 8.1263 1077.68 7.78125 1080.27 7.78125C1081.26 7.78125 1082.27 7.85286 1083.3 7.99609C1084.34 8.1263 1085.29 8.42578 1086.13 8.89453C1086.98 9.35026 1087.63 10.0469 1088.09 10.9844H1097.44C1097.22 9.22656 1096.69 7.70312 1095.86 6.41406C1094.99 5.0599 1093.76 3.95312 1092.19 3.09375C1089.34 1.51823 1085.36 0.730469 1080.27 0.730469ZM1080.27 0.0859375C1082.64 0.0859375 1084.87 0.27474 1086.95 0.652344C1089.04 1.02995 1090.89 1.65495 1092.5 2.52734C1094.11 3.39974 1095.41 4.58464 1096.39 6.08203C1097.38 7.56641 1097.96 9.40885 1098.14 11.6094H1087.66C1087.33 10.75 1086.81 10.0924 1086.09 9.63672C1085.39 9.16797 1084.54 8.84896 1083.54 8.67969C1082.53 8.4974 1081.45 8.40625 1080.27 8.40625C1078.85 8.40625 1077.57 8.54297 1076.41 8.81641C1075.25 9.07682 1074.32 9.57812 1073.63 10.3203C1072.94 11.0495 1072.6 12.1237 1072.6 13.543V14.168C1072.6 15.5872 1072.94 16.668 1073.63 17.4102C1074.32 18.1393 1075.25 18.6406 1076.41 18.9141C1077.57 19.1745 1078.85 19.3047 1080.27 19.3047C1081.45 19.3047 1082.53 19.2201 1083.54 19.0508C1084.54 18.8685 1085.39 18.5495 1086.09 18.0938C1086.81 17.625 1087.33 16.9609 1087.66 16.1016H1098.14C1097.96 18.3021 1097.38 20.151 1096.39 21.6484C1095.41 23.1328 1094.11 24.3112 1092.5 25.1836C1090.89 26.056 1089.04 26.681 1086.95 27.0586C1084.87 27.4362 1082.64 27.625 1080.27 27.625C1077.8 27.625 1075.48 27.4167 1073.3 27C1071.14 26.5964 1069.24 25.9128 1067.6 24.9492C1065.96 23.9727 1064.67 22.6576 1063.73 21.0039C1062.81 19.3503 1062.34 17.2865 1062.34 14.8125V12.8984C1062.34 10.4245 1062.81 8.36719 1063.73 6.72656C1064.67 5.07292 1065.96 3.75781 1067.6 2.78125C1069.24 1.80469 1071.14 1.11458 1073.3 0.710938C1075.48 0.294271 1077.8 0.0859375 1080.27 0.0859375ZM1126.5 1.39453H1101.86V26.3555H1110.82V20.5938V19.9492H1111.46H1120.61H1120.92L1121.11 20.2031L1125.86 26.3555H1135.12L1130.21 20.0469L1129.71 19.4023L1130.45 19.0703C1132.09 18.276 1133.39 17.1237 1134.34 15.6133C1135.3 14.1029 1135.78 12.4557 1135.78 10.6719C1135.78 8.96615 1135.36 7.41016 1134.53 6.00391C1133.7 4.59766 1132.58 3.47786 1131.17 2.64453C1129.77 1.8112 1128.21 1.39453 1126.5 1.39453ZM1110.82 13.543V12.918V8.42578V7.78125H1111.46H1123.95C1124.74 7.78125 1125.42 8.06771 1125.98 8.64062C1126.54 9.20052 1126.82 9.8776 1126.82 10.6719C1126.82 11.4661 1126.54 12.1432 1125.98 12.7031C1125.42 13.263 1124.74 13.543 1123.95 13.543H1111.46H1110.82ZM1126.5 0.75C1128.33 0.75 1129.99 1.19922 1131.48 2.09766C1132.99 2.98307 1134.19 4.18099 1135.08 5.69141C1135.98 7.1888 1136.43 8.84896 1136.43 10.6719C1136.43 12.6641 1135.9 14.4544 1134.84 16.043C1133.8 17.6315 1132.42 18.8359 1130.7 19.6562L1136.43 27H1125.55L1120.61 20.5938H1111.46V27H1101.21V0.75H1126.5ZM1111.46 12.918H1123.95C1124.56 12.918 1125.08 12.6966 1125.53 12.2539C1125.97 11.8112 1126.19 11.2839 1126.19 10.6719C1126.19 10.0469 1125.97 9.51953 1125.53 9.08984C1125.08 8.64714 1124.56 8.42578 1123.95 8.42578H1111.46V12.918ZM1149.84 0.75V27H1139.61V0.75H1149.84ZM1149.22 1.39453H1140.25V26.3555H1149.22V1.39453ZM1187.66 0.75V9.07031H1175.49V27H1165.25V9.07031H1153.09V0.75H1187.66ZM1187.01 1.39453H1153.73V8.42578H1165.25H1165.88V9.07031V26.3555H1174.84V9.07031V8.42578H1175.49H1187.01V1.39453ZM1201.37 0.75V27H1191.13V0.75H1201.37ZM1200.74 1.39453H1191.78V26.3555H1200.74V1.39453ZM1244.61 0.75L1231 13.875L1244.61 27H1231.15L1221.54 18.0352H1217.07V27H1206.84V0.75H1217.07V9.71484H1221.54L1231.15 0.75H1244.61ZM1243.03 1.39453H1231.41L1221.97 10.1836L1221.78 10.3594H1221.54H1217.07H1216.45V9.71484V1.39453H1207.48V26.3555H1216.45V18.0352V17.3906H1217.07H1221.54H1221.78L1221.97 17.5664L1231.41 26.3555H1243.03L1230.55 14.3438L1230.08 13.875L1230.55 13.4062L1243.03 1.39453ZM1276.86 0.75V7.46875H1256.37V10.8281H1276.86V16.9219H1256.37V20.2812H1276.86V27H1246.13V0.75H1276.86ZM1276.21 1.39453H1246.78V26.3555H1276.21V20.9258H1256.37H1255.74V20.2812V16.9219V16.2773H1256.37H1276.21V11.4727H1256.37H1255.74V10.8281V7.46875V6.82422H1256.37H1276.21V1.39453ZM1317.34 0.75L1302.62 18.0352V27H1292.38V18.0352L1277.66 0.75H1289.82L1297.5 10.1836L1305.18 0.75H1317.34ZM1315.96 1.39453H1305.49L1297.99 10.5938L1297.5 11.1992L1297.01 10.5938L1289.51 1.39453H1279.04L1292.87 17.625L1293.03 17.8008V18.0352V26.3555H1301.97V18.0352V17.8008L1302.13 17.625L1315.96 1.39453ZM1348.85 0.75V7.46875H1328.36V10.8281H1348.85V16.9219H1328.36V20.2812H1348.85V27H1318.12V0.75H1348.85ZM1348.2 1.39453H1318.77V26.3555H1348.2V20.9258H1328.36H1327.73V20.2812V16.9219V16.2773H1328.36H1348.2V11.4727H1328.36H1327.73V10.8281V7.46875V6.82422H1328.36H1348.2V1.39453ZM1397.95 10.0469V17.7227H1367.23V10.0469H1397.95ZM1397.3 10.6914H1367.87V17.0781H1397.3V10.6914ZM1434.26 0.730469C1428.92 0.730469 1424.8 1.59635 1421.91 3.32812C1420.33 4.29167 1419.12 5.52214 1418.3 7.01953C1417.42 8.66016 1416.97 10.6198 1416.97 12.8984V14.8125C1416.97 17.0911 1417.42 19.0508 1418.3 20.6914C1419.12 22.1888 1420.33 23.4193 1421.91 24.3828C1424.8 26.1146 1428.92 26.9805 1434.26 26.9805C1439.35 26.9805 1443.32 26.1927 1446.17 24.6172C1447.75 23.7578 1448.97 22.651 1449.84 21.2969C1450.68 20.0078 1451.2 18.4909 1451.43 16.7461H1442.07C1441.61 17.6706 1440.96 18.3672 1440.12 18.8359C1439.27 19.2917 1438.33 19.5911 1437.29 19.7344C1436.26 19.8646 1435.25 19.9297 1434.26 19.9297C1431.67 19.9297 1429.75 19.5846 1428.52 18.8945C1426.8 17.957 1425.94 16.3815 1425.94 14.168V13.543C1425.94 11.3294 1426.8 9.75391 1428.52 8.81641C1429.75 8.1263 1431.67 7.78125 1434.26 7.78125C1435.25 7.78125 1436.26 7.85286 1437.29 7.99609C1438.33 8.1263 1439.27 8.42578 1440.12 8.89453C1440.96 9.35026 1441.61 10.0469 1442.07 10.9844H1451.43C1451.2 9.22656 1450.68 7.70312 1449.84 6.41406C1448.97 5.0599 1447.75 3.95312 1446.17 3.09375C1443.32 1.51823 1439.35 0.730469 1434.26 0.730469ZM1434.26 0.0859375C1436.63 0.0859375 1438.85 0.27474 1440.94 0.652344C1443.02 1.02995 1444.87 1.65495 1446.48 2.52734C1448.1 3.39974 1449.39 4.58464 1450.37 6.08203C1451.36 7.56641 1451.95 9.40885 1452.13 11.6094H1441.64C1441.32 10.75 1440.79 10.0924 1440.08 9.63672C1439.38 9.16797 1438.52 8.84896 1437.52 8.67969C1436.52 8.4974 1435.43 8.40625 1434.26 8.40625C1432.84 8.40625 1431.55 8.54297 1430.39 8.81641C1429.23 9.07682 1428.31 9.57812 1427.62 10.3203C1426.93 11.0495 1426.58 12.1237 1426.58 13.543V14.168C1426.58 15.5872 1426.93 16.668 1427.62 17.4102C1428.31 18.1393 1429.23 18.6406 1430.39 18.9141C1431.55 19.1745 1432.84 19.3047 1434.26 19.3047C1435.43 19.3047 1436.52 19.2201 1437.52 19.0508C1438.52 18.8685 1439.38 18.5495 1440.08 18.0938C1440.79 17.625 1441.32 16.9609 1441.64 16.1016H1452.13C1451.95 18.3021 1451.36 20.151 1450.37 21.6484C1449.39 23.1328 1448.1 24.3112 1446.48 25.1836C1444.87 26.056 1443.02 26.681 1440.94 27.0586C1438.85 27.4362 1436.63 27.625 1434.26 27.625C1431.78 27.625 1429.46 27.4167 1427.29 27C1425.12 26.5964 1423.22 25.9128 1421.58 24.9492C1419.94 23.9727 1418.65 22.6576 1417.71 21.0039C1416.79 19.3503 1416.33 17.2865 1416.33 14.8125V12.8984C1416.33 10.4245 1416.79 8.36719 1417.71 6.72656C1418.65 5.07292 1419.94 3.75781 1421.58 2.78125C1423.22 1.80469 1425.12 1.11458 1427.29 0.710938C1429.46 0.294271 1431.78 0.0859375 1434.26 0.0859375ZM1480.49 1.39453H1455.84V26.3555H1464.8V20.5938V19.9492H1465.45H1474.59H1474.9L1475.1 20.2031L1479.84 26.3555H1489.1L1484.2 20.0469L1483.69 19.4023L1484.43 19.0703C1486.07 18.276 1487.37 17.1237 1488.32 15.6133C1489.28 14.1029 1489.77 12.4557 1489.77 10.6719C1489.77 8.96615 1489.35 7.41016 1488.52 6.00391C1487.68 4.59766 1486.56 3.47786 1485.16 2.64453C1483.75 1.8112 1482.19 1.39453 1480.49 1.39453ZM1464.8 13.543V12.918V8.42578V7.78125H1465.45H1477.93C1478.72 7.78125 1479.4 8.06771 1479.96 8.64062C1480.52 9.20052 1480.8 9.8776 1480.8 10.6719C1480.8 11.4661 1480.52 12.1432 1479.96 12.7031C1479.4 13.263 1478.72 13.543 1477.93 13.543H1465.45H1464.8ZM1480.49 0.75C1482.31 0.75 1483.97 1.19922 1485.47 2.09766C1486.98 2.98307 1488.18 4.18099 1489.06 5.69141C1489.96 7.1888 1490.41 8.84896 1490.41 10.6719C1490.41 12.6641 1489.88 14.4544 1488.83 16.043C1487.79 17.6315 1486.41 18.8359 1484.69 19.6562L1490.41 27H1479.53L1474.59 20.5938H1465.45V27H1455.2V0.75H1480.49ZM1465.45 12.918H1477.93C1478.54 12.918 1479.07 12.6966 1479.51 12.2539C1479.95 11.8112 1480.18 11.2839 1480.18 10.6719C1480.18 10.0469 1479.95 9.51953 1479.51 9.08984C1479.07 8.64714 1478.54 8.42578 1477.93 8.42578H1465.45V12.918ZM1503.83 0.75V27H1493.59V0.75H1503.83ZM1503.2 1.39453H1494.24V26.3555H1503.2V1.39453ZM1541.64 0.75V9.07031H1529.47V27H1519.24V9.07031H1507.07V0.75H1541.64ZM1541 1.39453H1507.71V8.42578H1519.24H1519.86V9.07031V26.3555H1528.83V9.07031V8.42578H1529.47H1541V1.39453ZM1555.35 0.75V27H1545.12V0.75H1555.35ZM1554.73 1.39453H1545.76V26.3555H1554.73V1.39453ZM1598.59 0.75L1584.98 13.875L1598.59 27H1585.14L1575.53 18.0352H1571.05V27H1560.82V0.75H1571.05V9.71484H1575.53L1585.14 0.75H1598.59ZM1597.01 1.39453H1585.39L1575.96 10.1836L1575.76 10.3594H1575.53H1571.05H1570.43V9.71484V1.39453H1561.46V26.3555H1570.43V18.0352V17.3906H1571.05H1575.53H1575.76L1575.96 17.5664L1585.39 26.3555H1597.01L1584.53 14.3438L1584.06 13.875L1584.53 13.4062L1597.01 1.39453ZM1630.84 0.75V7.46875H1610.35V10.8281H1630.84V16.9219H1610.35V20.2812H1630.84V27H1600.12V0.75H1630.84ZM1630.2 1.39453H1600.76V26.3555H1630.2V20.9258H1610.35H1609.73V20.2812V16.9219V16.2773H1610.35H1630.2V11.4727H1610.35H1609.73V10.8281V7.46875V6.82422H1610.35H1630.2V1.39453ZM1671.33 0.75L1656.6 18.0352V27H1646.37V18.0352L1631.64 0.75H1643.81L1651.48 10.1836L1659.16 0.75H1671.33ZM1669.94 1.39453H1659.47L1651.97 10.5938L1651.48 11.1992L1651 10.5938L1643.5 1.39453H1633.03L1646.86 17.625L1647.01 17.8008V18.0352V26.3555H1655.96V18.0352V17.8008L1656.11 17.625L1669.94 1.39453ZM1702.83 0.75V7.46875H1682.34V10.8281H1702.83V16.9219H1682.34V20.2812H1702.83V27H1672.11V0.75H1702.83ZM1702.19 1.39453H1672.75V26.3555H1702.19V20.9258H1682.34H1681.72V20.2812V16.9219V16.2773H1682.34H1702.19V11.4727H1682.34H1681.72V10.8281V7.46875V6.82422H1682.34H1702.19V1.39453ZM1751.93 10.0469V17.7227H1721.21V10.0469H1751.93ZM1751.29 10.6914H1721.86V17.0781H1751.29V10.6914Z" fill="#00FFC2"/>
</svg>
