<svg width="141" height="112" viewBox="0 0 141 112" fill="none" xmlns="http://www.w3.org/2000/svg">
<path d="M38.2885 43.4388C38.2885 43.4388 40.3615 48.6606 36.5175 49.5809C30.7989 50.9498 25.3037 42.22 25.3037 42.22L29.7142 24.8301L41.9842 27.6161L38.2885 43.4388Z" fill="white"/>
<path d="M35.2629 49.9552C29.9767 49.9552 25.325 42.6765 25.1141 42.3423C25.0973 42.3161 25.0862 42.2867 25.0815 42.2559C25.0769 42.225 25.0789 42.1936 25.0873 42.1636L29.4978 24.7737C29.5122 24.7172 29.5481 24.6686 29.5979 24.6382C29.6476 24.6078 29.7073 24.5981 29.7641 24.6111L42.0341 27.3971C42.0627 27.4038 42.0898 27.4161 42.1137 27.4332C42.1377 27.4504 42.158 27.4722 42.1735 27.4972C42.1895 27.5221 42.2003 27.55 42.2052 27.5791C42.2101 27.6083 42.209 27.6382 42.202 27.667L38.5296 43.4271C38.7083 43.8846 39.5929 46.474 38.6637 48.2647C38.2544 49.051 37.5539 49.5692 36.5782 49.8015C36.1474 49.905 35.7059 49.9566 35.2629 49.9552ZM25.543 42.1886C26.0684 42.9892 30.5057 49.5156 35.2843 49.5156C35.6822 49.5159 36.0787 49.4691 36.4656 49.3762C37.3091 49.1743 37.9113 48.7347 38.2526 48.0663C39.1605 46.3185 38.0864 43.5629 38.0739 43.5343C38.0576 43.4921 38.0545 43.446 38.065 43.4021L41.7106 27.7974L29.8713 25.1079L25.543 42.1886Z" fill="#313131"/>
<path d="M40.0575 35.6263C40.0575 35.6263 38.3115 33.3031 34.1102 32.5883C29.8623 31.8609 36.8283 29.2607 36.8283 29.2607L41.3442 30.2865L40.0575 35.6263Z" fill="#313131"/>
<path d="M40.0577 35.8492C40.0254 35.8491 39.9936 35.842 39.9643 35.8284C39.935 35.8148 39.909 35.7951 39.888 35.7706C39.8737 35.7527 38.4422 34.1622 33.6904 32.67C33.654 32.6589 33.6211 32.6386 33.5948 32.6111C33.5685 32.5835 33.5497 32.5497 33.5403 32.5128C33.5308 32.4758 33.5308 32.4371 33.5405 32.4001C33.5502 32.3632 33.5692 32.3294 33.5957 32.3019L36.6677 29.0995C36.6944 29.0718 36.7279 29.0514 36.7649 29.0405C36.8018 29.0295 36.841 29.0283 36.8785 29.037L41.3891 30.0627C41.4178 30.0693 41.4449 30.0815 41.4689 30.0987C41.4928 30.1159 41.5131 30.1377 41.5285 30.1628C41.5452 30.189 41.5564 30.2184 41.5614 30.2492C41.5663 30.2799 41.5648 30.3114 41.5571 30.3415L40.2686 35.6866C40.2593 35.7266 40.239 35.7633 40.2099 35.7923C40.1809 35.8214 40.1442 35.8417 40.1042 35.851C40.0887 35.8525 40.0731 35.8519 40.0577 35.8492ZM34.1604 32.3537C37.6774 33.4921 39.3161 34.668 39.9255 35.1952L41.0692 30.4487L36.9018 29.4998L34.1604 32.3537Z" fill="#313131"/>
<path d="M35.0021 32.8095L35.1004 32.8255L36.1119 32.9935H36.153L36.212 33.0043C37.0768 33.1491 37.9617 33.122 38.8161 32.9246C39.6705 32.7272 40.4776 32.3633 41.1912 31.8538C41.9049 31.3443 42.5112 30.6991 42.9753 29.9551C43.4395 29.2111 43.7524 28.383 43.8963 27.518L43.9124 27.4179L44.5093 23.8295C44.5574 23.5403 44.5872 23.2485 44.5987 22.9556C44.6013 22.9259 44.6013 22.896 44.5987 22.8662C44.6448 21.1634 44.0731 19.5014 42.989 18.1874C41.905 16.8734 40.3819 15.9962 38.7013 15.718L38.2349 15.6412C36.8638 15.4136 35.4561 15.5959 34.1882 16.1653C32.9204 16.7347 31.8489 17.6658 31.1081 18.8418C31.0116 18.9955 30.9205 19.1545 30.8347 19.3171C30.4853 19.9818 30.244 20.6978 30.1199 21.4384L29.9555 22.4248L29.5301 25.0322C29.5141 25.1287 29.5015 25.2234 29.489 25.3181C29.2523 27.0387 29.6958 28.7838 30.7253 30.1826C31.7547 31.5814 33.289 32.5238 35.0021 32.8095Z" fill="white"/>
<path d="M37.2247 33.3087C36.8537 33.3086 36.4832 33.2794 36.1167 33.2211L36.0596 33.2122L35.0642 33.046C33.7857 32.8351 32.5913 32.2719 31.6151 31.4198C31.593 31.4005 31.5748 31.3771 31.5617 31.3508C31.5485 31.3246 31.5407 31.296 31.5386 31.2667C31.5366 31.2374 31.5403 31.208 31.5496 31.1801C31.5589 31.1523 31.5736 31.1265 31.5928 31.1043C31.612 31.0822 31.6355 31.064 31.6617 31.0509C31.688 31.0377 31.7166 31.0299 31.7459 31.0279C31.7752 31.0258 31.8046 31.0295 31.8324 31.0388C31.8603 31.0481 31.886 31.0628 31.9082 31.082C32.8208 31.8798 33.9379 32.4071 35.1339 32.6046L36.165 32.7833H36.1847C37.8938 33.0557 39.6414 32.642 41.0471 31.6322C42.4528 30.6225 43.4028 29.0984 43.6903 27.3917L44.289 23.8033C44.2938 23.7743 44.3043 23.7466 44.3198 23.7216C44.3353 23.6967 44.3556 23.6751 44.3795 23.658C44.4034 23.6409 44.4305 23.6287 44.4591 23.622C44.4877 23.6154 44.5173 23.6144 44.5463 23.6192C44.5753 23.624 44.6031 23.6345 44.628 23.65C44.6529 23.6656 44.6746 23.6859 44.6917 23.7098C44.7088 23.7337 44.721 23.7607 44.7276 23.7893C44.7343 23.8179 44.7352 23.8476 44.7304 23.8766L44.1317 27.465C43.8554 29.0976 43.0104 30.5798 41.7463 31.6493C40.4822 32.7188 38.8806 33.3066 37.2247 33.3087Z" fill="#313131"/>
<path d="M30.4291 29.8936C30.3907 29.8936 30.353 29.8838 30.3195 29.865C30.286 29.8462 30.2579 29.8191 30.2379 29.7863C29.4183 28.4393 29.0764 26.8553 29.2675 25.2901V25.2526C29.2783 25.1668 29.2908 25.0739 29.3051 24.9934L29.9037 21.4068C30.0294 20.6424 30.2774 19.9032 30.6382 19.2177C30.724 19.0515 30.8169 18.8853 30.9188 18.728C31.6811 17.5126 32.7865 16.5502 34.0953 15.9625C35.4041 15.3747 36.8577 15.1878 38.2726 15.4255L38.7372 15.5024C40.4675 15.7958 42.0341 16.7028 43.15 18.0573C44.2659 19.4118 44.8564 21.1231 44.8132 22.8776C44.8109 22.9368 44.7855 22.9928 44.7424 23.0336C44.6993 23.0743 44.642 23.0966 44.5827 23.0956C44.5533 23.0947 44.5245 23.088 44.4977 23.0759C44.471 23.0638 44.4469 23.0465 44.4268 23.0251C44.4067 23.0037 44.391 22.9786 44.3807 22.9511C44.3703 22.9236 44.3655 22.8944 44.3664 22.865C44.4076 21.2184 43.8536 19.612 42.8062 18.3407C41.7587 17.0695 40.2881 16.2184 38.6639 15.9438L38.1975 15.8669C36.8697 15.6438 35.5055 15.819 34.2771 16.3705C33.0488 16.922 32.0114 17.8251 31.2959 18.9657C31.2011 19.114 31.1172 19.2677 31.0314 19.425C30.6934 20.0688 30.4605 20.7626 30.3416 21.4801L29.7447 25.0685C29.7304 25.1507 29.7179 25.2329 29.7072 25.3133V25.3473C29.5288 26.8119 29.8493 28.2939 30.6168 29.554C30.6321 29.5791 30.6423 29.607 30.6468 29.636C30.6513 29.6651 30.65 29.6947 30.643 29.7233C30.6361 29.7519 30.6235 29.7787 30.6061 29.8024C30.5888 29.8261 30.5669 29.8462 30.5417 29.8614C30.5076 29.8817 30.4688 29.8928 30.4291 29.8936Z" fill="#313131"/>
<path d="M29.9639 22.4287C29.9639 22.4287 31.2881 23.8423 33.0662 21.4298C33.9383 20.2467 35.6396 19.8107 36.5528 20.0001C38.4971 20.4076 41.1545 22.1625 44.2371 22.0588C44.3515 22.0588 44.4641 22.0499 44.5749 22.0392C45.7472 21.9284 46.6443 21.4351 46.882 20.2825C47.0911 19.2674 46.3262 18.1076 46.3262 18.1076C46.3262 18.1076 45.5506 20.0001 42.5466 17.6984C42.2606 17.4786 41.9551 17.2195 41.6245 16.9192C40.7555 16.3044 39.7583 15.895 38.708 15.7219L38.2415 15.6451C36.8705 15.4175 35.4627 15.5998 34.1948 16.1692C32.927 16.7386 31.8555 17.6697 31.1147 18.8457C31.0182 18.9994 30.9253 19.1584 30.8431 19.321C30.493 19.9854 30.2516 20.7015 30.1283 21.4423L29.9639 22.4287Z" fill="#313131"/>
<path d="M30.984 23.0665C30.5426 23.0641 30.119 22.892 29.801 22.5858C29.778 22.5604 29.7609 22.5303 29.751 22.4975C29.7412 22.4648 29.7387 22.4302 29.7438 22.3964L29.9064 21.4099C30.034 20.6452 30.2826 19.9056 30.6427 19.219C30.7249 19.0617 30.8214 18.8973 30.9233 18.7311C31.6854 17.5155 32.7907 16.553 34.0996 15.9652C35.4084 15.3775 36.8621 15.1907 38.277 15.4286L38.7417 15.5055C39.8239 15.6821 40.8515 16.1039 41.7457 16.7385C41.7593 16.7472 41.7719 16.7574 41.7833 16.7689C42.0924 17.0513 42.3873 17.305 42.6607 17.5123L42.6821 17.5284C44.1118 18.6203 44.9642 18.7007 45.4307 18.5738C45.5766 18.5356 45.7129 18.4669 45.8305 18.3724C45.9482 18.2779 46.0445 18.1596 46.1133 18.0252C46.1288 17.9877 46.1542 17.955 46.1869 17.9309C46.2195 17.9067 46.2581 17.8919 46.2986 17.888C46.339 17.8842 46.3797 17.8914 46.4164 17.909C46.453 17.9265 46.4842 17.9537 46.5065 17.9877C46.5404 18.0377 47.3214 19.2386 47.0962 20.3323C46.8567 21.4796 46.015 22.1301 44.5943 22.2641C44.4799 22.2748 44.3602 22.282 44.2369 22.2856C42.1728 22.3535 40.3375 21.6244 38.7167 20.9792C38.0007 20.6677 37.2609 20.4143 36.5043 20.2215C35.7001 20.0517 34.0774 20.4324 33.2447 21.5618C32.5424 22.5143 31.815 23.0183 31.0805 23.0612L30.984 23.0665ZM30.2049 22.3517C30.4485 22.5442 30.7545 22.6403 31.0645 22.6215C31.6578 22.5822 32.2707 22.139 32.8873 21.3045C33.8415 20.0089 35.6554 19.5943 36.5972 19.7908C37.3798 19.987 38.1453 20.2457 38.8864 20.5646C40.4644 21.1919 42.2568 21.9049 44.228 21.8388C44.337 21.8388 44.4442 21.8299 44.5496 21.8191C45.7756 21.703 46.4654 21.1883 46.6619 20.2412C46.7888 19.6228 46.5047 18.9241 46.3045 18.5363C46.1048 18.7642 45.8416 18.9272 45.5486 19.0045C44.7301 19.2261 43.6793 18.8508 42.4194 17.8894L42.4016 17.8769C42.1103 17.6517 41.7976 17.3872 41.4705 17.0906C40.6351 16.5002 39.6762 16.1079 38.6666 15.9433L38.202 15.8664C36.8741 15.6428 35.5097 15.8178 34.2813 16.3694C33.0529 16.9209 32.0155 17.8243 31.3003 18.9652C31.2021 19.1207 31.1127 19.2744 31.0376 19.4227C30.699 20.0671 30.4656 20.7615 30.3461 21.4796L30.2049 22.3517Z" fill="#313131"/>
<path d="M44.5712 22.043C44.4604 22.0537 44.3478 22.0608 44.2334 22.0626C44.4269 22.2931 44.5508 22.5739 44.5908 22.8722C44.5995 22.5956 44.593 22.3188 44.5712 22.043Z" fill="#313131"/>
<path d="M41.6191 16.9209C41.9497 17.2211 42.2553 17.4803 42.5413 17.7001C42.2568 17.4143 41.9483 17.1536 41.6191 16.9209Z" fill="#313131"/>
<path d="M44.5053 24.0587H44.4678C44.4104 24.0474 44.3597 24.0143 44.3264 23.9662C44.293 23.9182 44.2796 23.8591 44.2891 23.8014C44.3357 23.5211 44.3643 23.2382 44.3749 22.9543C44.3764 22.9305 44.3764 22.9066 44.3749 22.8828C44.3736 22.8535 44.3781 22.8242 44.3881 22.7966C44.3981 22.769 44.4135 22.7437 44.4334 22.722C44.4532 22.7004 44.4771 22.6828 44.5037 22.6704C44.5303 22.658 44.5591 22.6509 44.5884 22.6496C44.6477 22.647 44.7055 22.6681 44.7493 22.7081C44.7709 22.7279 44.7885 22.7518 44.8009 22.7784C44.8133 22.8051 44.8203 22.8338 44.8216 22.8632C44.8216 22.9007 44.8216 22.9418 44.8216 22.9793C44.8098 23.2788 44.7794 23.5772 44.7305 23.8729C44.7219 23.9259 44.6943 23.9739 44.6529 24.0081C44.6114 24.0423 44.559 24.0603 44.5053 24.0587Z" fill="#313131"/>
<path d="M40.9096 26.8445C40.889 26.845 40.8684 26.842 40.8488 26.8355L38.8527 26.2708C38.8228 26.2645 38.7945 26.252 38.7696 26.2343C38.7447 26.2165 38.7237 26.1939 38.7079 26.1677C38.6921 26.1415 38.6818 26.1123 38.6778 26.082C38.6737 26.0517 38.6759 26.0209 38.6842 25.9914C38.6926 25.962 38.7069 25.9346 38.7262 25.9109C38.7456 25.8873 38.7696 25.8678 38.7968 25.8538C38.824 25.8398 38.8538 25.8315 38.8843 25.8295C38.9148 25.8274 38.9454 25.8317 38.9742 25.8419L40.7845 26.353C40.9564 25.5343 41.0841 24.7069 41.1669 23.8744C41.1686 23.844 41.1764 23.8143 41.19 23.787C41.2035 23.7598 41.2225 23.7356 41.2457 23.7159C41.269 23.6963 41.296 23.6816 41.3251 23.6727C41.3542 23.6639 41.3848 23.6611 41.4151 23.6645C41.4453 23.6679 41.4745 23.6775 41.5009 23.6926C41.5273 23.7077 41.5504 23.728 41.5686 23.7524C41.5869 23.7767 41.6 23.8045 41.6072 23.8341C41.6143 23.8637 41.6153 23.8944 41.6101 23.9244C41.4171 25.6579 41.2331 26.6193 41.0651 26.7837C41.023 26.8233 40.9673 26.8451 40.9096 26.8445Z" fill="#313131"/>
<path d="M37.4718 23.4237C37.4286 23.4231 37.3865 23.41 37.3506 23.3861C37.3146 23.3622 37.2863 23.3285 37.2689 23.2889C37.2516 23.2494 37.246 23.2057 37.2528 23.1631C37.2596 23.1204 37.2786 23.0806 37.3074 23.0485C38.4404 21.8118 40.122 22.5409 40.1399 22.5481C40.1939 22.5723 40.236 22.6169 40.2571 22.6722C40.2782 22.7275 40.2766 22.7889 40.2524 22.8429C40.2282 22.8969 40.1837 22.9392 40.1285 22.9606C40.0733 22.982 40.0119 22.9808 39.9576 22.9573C39.9022 22.9323 38.5494 22.3533 37.6344 23.3505C37.6139 23.3734 37.5889 23.3917 37.5609 23.4043C37.5328 23.417 37.5025 23.4236 37.4718 23.4237Z" fill="#313131"/>
<path d="M43.5786 25.0519C43.5252 25.0518 43.4736 25.0326 43.4331 24.9979C43.3925 24.9632 43.3655 24.9152 43.357 24.8625C43.2016 23.8582 42.0114 23.4221 41.9989 23.4168C41.9475 23.3939 41.9066 23.3526 41.8844 23.301C41.8622 23.2494 41.8602 23.1912 41.879 23.1382C41.8977 23.0853 41.9357 23.0413 41.9854 23.015C42.0351 22.9888 42.0929 22.9823 42.1472 22.9968C42.208 23.0165 43.6019 23.5222 43.7985 24.7946C43.8079 24.8521 43.7945 24.911 43.7611 24.9587C43.7277 25.0065 43.677 25.0393 43.6197 25.0502L43.5786 25.0519Z" fill="#313131"/>
<path d="M38.9909 24.4301C39.1666 24.4301 39.309 24.2877 39.309 24.112C39.309 23.9364 39.1666 23.7939 38.9909 23.7939C38.8153 23.7939 38.6729 23.9364 38.6729 24.112C38.6729 24.2877 38.8153 24.4301 38.9909 24.4301Z" fill="#313131"/>
<path d="M42.1843 25.477C42.36 25.477 42.5024 25.3346 42.5024 25.1589C42.5024 24.9832 42.36 24.8408 42.1843 24.8408C42.0086 24.8408 41.8662 24.9832 41.8662 25.1589C41.8662 25.3346 42.0086 25.477 42.1843 25.477Z" fill="#313131"/>
<path d="M30.6026 26.4383C31.5979 26.3821 32.3352 25.1056 32.2495 23.5871C32.1638 22.0686 31.2876 20.8832 30.2923 20.9393C29.297 20.9955 28.5597 22.272 28.6454 23.7905C28.7311 25.309 29.6074 26.4945 30.6026 26.4383Z" fill="white"/>
<path d="M30.1505 26.598C30.1262 26.598 30.1022 26.5944 30.079 26.5873C29.1855 26.2907 28.5028 25.1451 28.426 23.8013C28.3707 23.073 28.5258 22.3442 28.8727 21.7015C29.2301 21.0957 29.7234 20.7454 30.2827 20.7132C31.0958 20.6668 31.8661 21.3298 32.2485 22.402C32.2682 22.4579 32.2648 22.5194 32.2392 22.5728C32.2135 22.6263 32.1677 22.6674 32.1118 22.687C32.0558 22.7067 31.9944 22.7034 31.9409 22.6777C31.8875 22.6521 31.8464 22.6063 31.8267 22.5503C31.5158 21.6711 30.9207 21.1207 30.3113 21.16C29.9074 21.1814 29.5357 21.4549 29.2641 21.9249C28.9608 22.4942 28.8274 23.1387 28.8799 23.7816C28.9442 24.9271 29.5107 25.9261 30.2273 26.1674C30.2835 26.1861 30.3299 26.2264 30.3563 26.2793C30.3828 26.3323 30.3872 26.3935 30.3685 26.4497C30.3528 26.4945 30.3232 26.5331 30.284 26.5598C30.2447 26.5865 30.1979 26.5999 30.1505 26.598Z" fill="#313131"/>
<path d="M30.5322 23.9192H30.5072L29.9246 23.8549C29.8685 23.8452 29.8181 23.8144 29.7839 23.7689C29.7497 23.7233 29.7342 23.6663 29.7406 23.6097C29.747 23.5531 29.7748 23.501 29.8183 23.4642C29.8618 23.4274 29.9178 23.4086 29.9747 23.4117L30.1677 23.4332L29.7602 22.5218C29.7452 22.4946 29.7361 22.4646 29.7333 22.4336C29.7305 22.4027 29.7343 22.3716 29.7442 22.3422C29.7542 22.3127 29.7702 22.2857 29.7911 22.2629C29.8121 22.24 29.8376 22.2217 29.8661 22.2092C29.8945 22.1968 29.9252 22.1904 29.9563 22.1904C29.9873 22.1905 30.018 22.197 30.0464 22.2096C30.0748 22.2222 30.1002 22.2406 30.1211 22.2636C30.142 22.2865 30.1578 22.3136 30.1677 22.3431L30.736 23.6101C30.7512 23.6441 30.7576 23.6813 30.7547 23.7185C30.7519 23.7556 30.7398 23.7914 30.7195 23.8227C30.6993 23.8539 30.6715 23.8796 30.6388 23.8974C30.6061 23.9152 30.5695 23.9246 30.5322 23.9246V23.9192Z" fill="#313131"/>
<path d="M38.0777 27.6233C37.5322 27.5839 37.0202 27.3454 36.6391 26.9532C36.2567 26.5332 36.0833 25.9596 36.1226 25.2483C36.1243 25.219 36.1317 25.1903 36.1444 25.1638C36.1572 25.1373 36.175 25.1136 36.1969 25.094C36.2188 25.0745 36.2444 25.0594 36.2721 25.0497C36.2998 25.04 36.3292 25.0358 36.3585 25.0375C36.3879 25.0391 36.4166 25.0465 36.4431 25.0593C36.4695 25.072 36.4932 25.0898 36.5128 25.1117C36.5324 25.1336 36.5475 25.1592 36.5572 25.1869C36.5669 25.2146 36.5711 25.244 36.5694 25.2734C36.5372 25.8595 36.6713 26.3224 36.9661 26.6494C37.2667 26.9546 37.6669 27.1417 38.0938 27.1766C38.153 27.1766 38.2098 27.2001 38.2517 27.242C38.2936 27.2839 38.3172 27.3407 38.3172 27.4C38.3172 27.4592 38.2936 27.516 38.2517 27.5579C38.2098 27.5998 38.153 27.6233 38.0938 27.6233H38.0777Z" fill="#313131"/>
<path d="M69.5496 106.554C69.5496 106.554 62.6659 101.838 52.9746 104.262L52.9943 107.06C52.9943 107.06 62.0851 106.857 64.2671 109.026L69.5496 106.554Z" fill="#00FFC2"/>
<path d="M64.2629 109.246C64.2038 109.246 64.1473 109.222 64.1057 109.18C62.0166 107.107 53.0866 107.282 52.9955 107.284C52.9659 107.285 52.9364 107.279 52.9088 107.269C52.8812 107.258 52.856 107.242 52.8347 107.221C52.7925 107.179 52.7683 107.122 52.7668 107.062L52.7471 104.264C52.7464 104.213 52.7628 104.164 52.7937 104.124C52.8245 104.084 52.8679 104.056 52.9169 104.044C62.5938 101.626 69.6027 106.322 69.6724 106.367C69.7051 106.389 69.7314 106.42 69.7484 106.456C69.7655 106.491 69.7728 106.531 69.7695 106.57C69.7662 106.61 69.7526 106.648 69.7298 106.68C69.7071 106.713 69.6762 106.738 69.6402 106.755L64.3576 109.223C64.3282 109.238 64.2958 109.246 64.2629 109.246ZM53.6781 106.83C55.8226 106.83 62.2739 106.984 64.3058 108.756L69.088 106.523C67.5994 105.647 61.4036 102.45 53.2064 104.434L53.2224 106.83H53.6781Z" fill="#313131"/>
<path d="M45.2201 110.867C46.2816 111.92 48.6012 112.088 50.3919 111.239C52.4523 110.261 53.4871 108.154 53.2261 105.456C52.9867 102.954 51.5856 101.321 49.3857 100.949C47.2413 100.591 44.684 101.589 44.0156 103.049L46.0958 103.999C46.2745 103.672 47.722 102.927 49.1338 103.222C50.2257 103.453 50.8225 104.253 50.9584 105.667C51.1246 107.393 50.6278 108.56 49.4805 109.135C48.3332 109.711 47.0644 109.437 46.841 109.234L45.2201 110.867Z" fill="#00FFC2"/>
<path d="M47.9425 112C46.788 112 45.7104 111.665 45.0635 111.026C45.0427 111.005 45.0262 110.98 45.015 110.953C45.0037 110.926 44.9979 110.897 44.9979 110.868C44.9979 110.838 45.0037 110.809 45.015 110.782C45.0262 110.755 45.0427 110.73 45.0635 110.709L46.6719 109.083C46.7137 109.044 46.769 109.022 46.8265 109.022C46.8839 109.022 46.9392 109.044 46.981 109.083C47.1258 109.214 48.2874 109.492 49.3703 108.949C50.4533 108.406 51.0073 107.083 50.7285 105.732C50.5016 104.621 49.8725 103.767 49.0451 103.45C47.7942 102.973 46.4128 103.906 46.2877 104.129C46.2587 104.18 46.2112 104.218 46.1552 104.234C46.0992 104.25 46.0391 104.244 45.9874 104.217C45.9749 104.21 45.9629 104.203 45.9517 104.194L43.9216 103.265C43.895 103.252 43.8711 103.235 43.8512 103.214C43.8313 103.192 43.8159 103.167 43.8057 103.14C43.7956 103.112 43.791 103.083 43.7922 103.054C43.7933 103.025 43.8003 102.996 43.8126 102.97C44.5649 101.322 47.3528 100.221 49.4383 100.747C51.7096 101.32 53.209 103.07 53.4484 105.446C53.7308 108.24 52.6514 110.429 50.4855 111.455C49.6878 111.82 48.8198 112.006 47.9425 112ZM45.546 110.856C46.6093 111.714 48.6752 111.805 50.296 111.035C52.2797 110.095 53.2679 108.068 53.0052 105.475C52.7854 103.306 51.4112 101.697 49.331 101.161C47.401 100.675 45.0707 101.697 44.3273 102.937L46.0393 103.72C46.5253 103.241 47.9621 102.539 49.2077 103.005C50.1781 103.377 50.9126 104.353 51.1735 105.614C51.4916 107.171 50.8357 108.697 49.5776 109.328C48.5054 109.864 47.3635 109.727 46.8756 109.507L45.546 110.856Z" fill="#313131"/>
<path d="M62.8818 108.428C62.8262 108.427 62.7728 108.406 62.7319 108.369C62.691 108.331 62.6655 108.28 62.6602 108.224C62.4171 105.706 64.6367 104.35 64.7314 104.293C64.7823 104.262 64.8434 104.253 64.901 104.267C64.9586 104.282 65.0082 104.319 65.0388 104.37C65.0693 104.42 65.0784 104.481 65.064 104.539C65.0496 104.597 65.0129 104.646 64.9619 104.677C64.9405 104.689 62.8907 105.949 63.1052 108.183C63.1101 108.242 63.0918 108.301 63.054 108.346C63.0162 108.391 62.9621 108.42 62.9032 108.426L62.8818 108.428Z" fill="#313131"/>
<path d="M58.7703 107.548C58.7282 107.548 58.687 107.536 58.6513 107.513C58.6157 107.491 58.5869 107.459 58.5684 107.421C57.648 105.5 58.756 103.545 58.8043 103.463C58.8179 103.436 58.837 103.412 58.8603 103.392C58.8837 103.373 58.9108 103.358 58.9399 103.349C58.9691 103.34 58.9997 103.338 59.03 103.341C59.0602 103.345 59.0894 103.355 59.1158 103.37C59.1421 103.385 59.1651 103.406 59.1832 103.43C59.2014 103.455 59.2144 103.482 59.2213 103.512C59.2283 103.542 59.2291 103.572 59.2238 103.602C59.2185 103.632 59.2071 103.661 59.1903 103.686C59.1813 103.704 58.1556 105.523 58.9723 107.228C58.9974 107.282 59.0004 107.343 58.9807 107.398C58.9609 107.454 58.92 107.499 58.8668 107.525C58.837 107.54 58.8039 107.548 58.7703 107.548Z" fill="#313131"/>
<path d="M73.0053 109.943C72.6683 109.954 72.3331 109.89 72.024 109.755C71.715 109.62 71.4397 109.418 71.2183 109.164C69.6564 109.641 67.6102 109.468 66.5719 107.983C66.5497 107.936 66.5448 107.882 66.558 107.832C66.5713 107.781 66.6018 107.737 66.6442 107.706C66.6867 107.676 66.7385 107.661 66.7906 107.665C66.8427 107.669 66.8918 107.691 66.9293 107.727C67.8229 108.998 69.5545 109.168 70.9359 108.784C70.9109 108.741 70.8859 108.698 70.8644 108.651C70.1854 107.313 70.5839 106.169 71.3273 105.729C71.8384 105.429 72.5782 105.458 73.084 106.201C73.638 107.014 73.3753 107.935 72.4013 108.605C72.171 108.762 71.9248 108.894 71.6668 109C71.8553 109.174 72.0775 109.308 72.3197 109.393C72.5619 109.478 72.819 109.513 73.075 109.495C73.9114 109.466 74.7871 109.027 75.4375 108.367C75.123 107.911 74.984 107.357 75.0462 106.807C75.1212 106.271 75.3804 105.901 75.761 105.785C75.9007 105.742 76.0499 105.74 76.1906 105.78C76.3313 105.819 76.4576 105.899 76.5545 106.008C76.8404 106.325 76.8726 106.836 76.6438 107.377C76.4899 107.739 76.2847 108.077 76.0344 108.38C76.1078 108.446 76.1895 108.502 76.2775 108.548C76.6956 108.759 77.171 108.617 77.6589 108.142C77.6793 108.12 77.7041 108.101 77.7318 108.089C77.7595 108.076 77.7894 108.07 77.8198 108.069C77.8501 108.068 77.8803 108.074 77.9084 108.086C77.9365 108.097 77.962 108.114 77.9833 108.136C78.0046 108.157 78.0213 108.183 78.0323 108.212C78.0433 108.24 78.0484 108.27 78.0473 108.3C78.0462 108.331 78.0389 108.361 78.0259 108.388C78.0129 108.416 77.9944 108.44 77.9716 108.46C77.1281 109.289 76.4222 109.121 76.0773 108.946C75.9535 108.883 75.8387 108.804 75.736 108.71C75.0381 109.434 74.0961 109.873 73.0929 109.942L73.0053 109.943ZM71.9903 105.996C71.8426 105.997 71.6981 106.038 71.5721 106.115C71.0074 106.448 70.7268 107.356 71.2808 108.449C71.313 108.515 71.3505 108.58 71.3881 108.641C71.6625 108.536 71.924 108.401 72.1672 108.237C72.6193 107.926 73.2949 107.279 72.7319 106.45C72.6572 106.317 72.5498 106.206 72.42 106.126C72.2903 106.047 72.1423 106.002 71.9903 105.996ZM76.0005 106.198C75.969 106.198 75.9377 106.203 75.9075 106.212C75.7056 106.275 75.5501 106.519 75.5072 106.868C75.4627 107.27 75.5519 107.676 75.761 108.022C75.9585 107.772 76.1225 107.497 76.2489 107.204C76.4079 106.827 76.4043 106.489 76.2399 106.31C76.2101 106.276 76.1734 106.248 76.1322 106.229C76.0909 106.209 76.046 106.199 76.0005 106.198Z" fill="#313131"/>
<path d="M125.66 58.4808V105.043C125.66 105.043 120.209 109.382 106.458 109.382C92.3402 109.382 87.2578 105.046 87.2578 105.046V58.4808C87.2582 55.0447 88.1806 51.6716 89.9287 48.7134C91.6768 45.7551 94.1865 43.3201 97.1963 41.6623C100.206 40.0044 103.605 39.1845 107.04 39.288C110.475 39.3915 113.818 40.4146 116.723 42.2507C119.11 43.7644 121.136 45.7843 122.656 48.1677C124.622 51.2477 125.665 54.8267 125.66 58.4808Z" fill="#7B40AA"/>
<path d="M106.458 109.602C92.415 109.602 87.3219 105.392 87.1128 105.213C87.0881 105.192 87.0683 105.166 87.0547 105.137C87.0411 105.107 87.0341 105.075 87.0342 105.043V58.4813C87.0833 53.3618 89.1514 48.4688 92.7889 44.866C96.4263 41.2633 101.339 39.2422 106.459 39.2422C111.578 39.2422 116.491 41.2633 120.128 44.866C123.766 48.4688 125.834 53.3618 125.883 58.4813V105.043C125.883 105.078 125.876 105.112 125.861 105.142C125.846 105.173 125.824 105.201 125.797 105.222C125.572 105.397 120.131 109.602 106.458 109.602ZM87.4809 104.934C88.1743 105.46 93.5266 109.155 106.458 109.155C119.053 109.155 124.686 105.458 125.436 104.931V58.4813C125.461 55.9736 124.988 53.4859 124.045 51.1621C123.102 48.8383 121.708 46.7243 119.944 44.9425C118.179 43.1606 116.079 41.7461 113.764 40.7808C111.449 39.8155 108.966 39.3185 106.459 39.3185C103.951 39.3185 101.468 39.8155 99.1534 40.7808C96.8388 41.7461 94.7385 43.1606 92.9738 44.9425C91.2091 46.7243 89.8151 48.8383 88.8723 51.1621C87.9295 53.4859 87.4566 55.9736 87.4809 58.4813V104.934Z" fill="#313131"/>
<path d="M113.97 95.7268C113.913 95.7264 113.859 95.7045 113.818 95.6655C113.777 95.6266 113.752 95.5734 113.748 95.5168C113.745 95.4602 113.763 95.4045 113.799 95.3608C113.836 95.3172 113.887 95.2889 113.943 95.2818C121.408 94.3596 125.436 92.4046 125.436 91.0339C125.436 90.9747 125.459 90.9179 125.501 90.876C125.543 90.8341 125.6 90.8105 125.659 90.8105C125.718 90.8105 125.775 90.8341 125.817 90.876C125.859 90.9179 125.883 90.9747 125.883 91.0339C125.883 92.9318 120.995 94.8618 113.997 95.725L113.97 95.7268Z" fill="#313131"/>
<path d="M113.97 72.8975C113.913 72.8971 113.859 72.8753 113.818 72.8363C113.777 72.7973 113.752 72.7441 113.748 72.6875C113.745 72.631 113.763 72.5752 113.799 72.5316C113.836 72.4879 113.887 72.4597 113.943 72.4525C121.408 71.5286 125.436 69.5736 125.436 68.2029C125.436 68.1436 125.459 68.0868 125.501 68.0449C125.543 68.003 125.6 67.9795 125.659 67.9795C125.718 67.9795 125.775 68.003 125.817 68.0449C125.859 68.0868 125.883 68.1436 125.883 68.2029C125.883 70.1007 120.995 72.0308 113.997 72.8957L113.97 72.8975Z" fill="#313131"/>
<path d="M113.971 95.5031C111.48 95.8052 108.974 95.9556 106.465 95.9534C95.8604 95.9534 87.2646 93.33 87.2646 91.0337V68.2021C87.2646 70.4985 95.8604 73.1237 106.465 73.1237C108.974 73.1259 111.48 72.9755 113.971 72.6734V95.5031Z" fill="#00FFC2"/>
<path d="M106.458 96.1776C101.483 96.1776 96.6396 95.6057 92.8225 94.5692C89.1429 93.5702 87.0342 92.2818 87.0342 91.0326V68.2029C87.0342 68.1436 87.0577 68.0868 87.0996 68.0449C87.1415 68.003 87.1983 67.9795 87.2576 67.9795C87.3168 67.9795 87.3736 68.003 87.4155 68.0449C87.4574 68.0868 87.4809 68.1436 87.4809 68.2029C87.4809 69.2054 89.5718 70.3956 92.9404 71.3088C96.7201 72.3346 101.518 72.9011 106.458 72.9011C108.96 72.9032 111.46 72.7534 113.944 72.4525C113.976 72.4482 114.008 72.4507 114.039 72.4599C114.07 72.4692 114.098 72.4849 114.122 72.5061C114.146 72.5275 114.165 72.5534 114.178 72.5823C114.19 72.6112 114.197 72.6425 114.198 72.6741V95.5038C114.197 95.5584 114.177 95.6111 114.141 95.6519C114.105 95.6927 114.055 95.7189 114.001 95.7254C111.498 96.0296 108.979 96.1806 106.458 96.1776ZM87.4809 69.2126V91.0344C87.4809 92.0351 89.5718 93.2253 92.9404 94.1385C96.7201 95.1661 101.518 95.7308 106.458 95.7308C108.894 95.7333 111.328 95.5913 113.747 95.3055V72.9261C111.328 73.2088 108.894 73.3497 106.458 73.3478C101.483 73.3478 96.6414 72.776 92.8225 71.7395C90.1329 71.0103 88.2815 70.124 87.4809 69.2126Z" fill="#313131"/>
<path d="M99.6199 109.222C99.5606 109.222 99.5038 109.199 99.4619 109.157C99.42 109.115 99.3965 109.058 99.3965 108.999V95.5798C99.3965 95.5206 99.42 95.4638 99.4619 95.4219C99.5038 95.38 99.5606 95.3564 99.6199 95.3564C99.6791 95.3564 99.7359 95.38 99.7778 95.4219C99.8197 95.4638 99.8433 95.5206 99.8433 95.5798V108.999C99.8433 109.058 99.8197 109.115 99.7778 109.157C99.7359 109.199 99.6791 109.222 99.6199 109.222Z" fill="#313131"/>
<path d="M100.218 69.044L99.458 64.5263C99.6367 64.4978 103.697 63.8115 106.713 63.8115C109.73 63.8115 113.238 64.5013 113.386 64.5263L112.493 69.0155C112.461 69.0155 109.256 68.3846 106.708 68.3846C104.076 68.4007 100.255 69.0369 100.218 69.044Z" fill="white"/>
<path d="M100.217 69.2679C100.171 69.268 100.126 69.2536 100.088 69.2267C100.04 69.1922 100.007 69.1403 99.9971 69.082L99.2376 64.5679C99.2277 64.5101 99.2408 64.4508 99.2743 64.4026C99.3077 64.3545 99.3587 64.3214 99.4163 64.3105C99.595 64.2819 103.673 63.5957 106.709 63.5957C109.746 63.5957 113.275 64.2891 113.425 64.3105C113.454 64.3161 113.481 64.3274 113.506 64.3436C113.531 64.3599 113.552 64.3808 113.568 64.4052C113.584 64.4297 113.595 64.4572 113.601 64.486C113.607 64.5148 113.606 64.5445 113.6 64.5732L112.707 69.0623C112.701 69.0914 112.69 69.1191 112.674 69.1439C112.658 69.1686 112.637 69.1899 112.613 69.2065C112.588 69.2232 112.561 69.2348 112.532 69.2407C112.503 69.2466 112.473 69.2467 112.444 69.241C112.414 69.241 109.242 68.6138 106.704 68.6138C104.072 68.6138 100.283 69.2482 100.245 69.2536L100.217 69.2679ZM99.7147 64.7162L100.401 68.7889C101.255 68.6531 104.413 68.1777 106.713 68.1777C108.907 68.1777 111.55 68.6299 112.321 68.771L113.123 64.7216C112.292 64.5661 109.302 64.0478 106.713 64.0478C104.073 64.0478 100.623 64.5714 99.7147 64.7162Z" fill="#313131"/>
<path d="M106.458 68.6242C106.399 68.6242 106.342 68.6007 106.3 68.5588C106.258 68.5169 106.234 68.46 106.234 68.4008V63.8259C106.234 63.7667 106.258 63.7099 106.3 63.668C106.342 63.6261 106.399 63.6025 106.458 63.6025C106.517 63.6025 106.574 63.6261 106.616 63.668C106.658 63.7099 106.681 63.7667 106.681 63.8259V68.4008C106.681 68.46 106.658 68.5169 106.616 68.5588C106.574 68.6007 106.517 68.6242 106.458 68.6242Z" fill="#313131"/>
<path d="M103.172 68.8248C103.118 68.8245 103.066 68.8048 103.026 68.7693C102.985 68.7339 102.959 68.685 102.952 68.6318L102.316 64.1213C102.312 64.0922 102.313 64.0625 102.321 64.0341C102.328 64.0056 102.341 63.9789 102.358 63.9554C102.376 63.9319 102.398 63.9122 102.424 63.8972C102.449 63.8823 102.477 63.8725 102.506 63.8684C102.535 63.8643 102.565 63.866 102.593 63.8733C102.622 63.8806 102.648 63.8935 102.672 63.9112C102.695 63.9289 102.715 63.951 102.73 63.9763C102.745 64.0016 102.755 64.0296 102.759 64.0587L103.4 68.5693C103.407 68.628 103.39 68.687 103.353 68.7332C103.316 68.7794 103.263 68.8092 103.204 68.8159L103.172 68.8248Z" fill="#313131"/>
<path d="M109.676 68.8246H109.655C109.626 68.8219 109.597 68.8135 109.571 68.7999C109.545 68.7862 109.522 68.7675 109.504 68.745C109.485 68.7224 109.471 68.6963 109.462 68.6683C109.453 68.6403 109.45 68.6108 109.453 68.5816L109.869 64.0711C109.875 64.012 109.904 63.9576 109.949 63.9197C109.995 63.8819 110.054 63.8637 110.113 63.8691C110.172 63.8746 110.226 63.9032 110.264 63.9488C110.302 63.9944 110.32 64.0531 110.314 64.1121L109.898 68.6227C109.892 68.6777 109.867 68.7287 109.826 68.7659C109.785 68.8032 109.732 68.8241 109.676 68.8246Z" fill="#313131"/>
<path d="M100.009 61.3952C101.757 61.3952 103.174 59.9782 103.174 58.2303C103.174 56.4824 101.757 55.0654 100.009 55.0654C98.2607 55.0654 96.8438 56.4824 96.8438 58.2303C96.8438 59.9782 98.2607 61.3952 100.009 61.3952Z" fill="white"/>
<path d="M100.005 61.619C99.3332 61.619 98.6768 61.4198 98.1184 61.0467C97.56 60.6736 97.1248 60.1433 96.8678 59.5229C96.6108 58.9025 96.5436 58.2198 96.6746 57.5611C96.8056 56.9025 97.129 56.2975 97.6039 55.8226C98.0787 55.3478 98.6837 55.0244 99.3424 54.8934C100.001 54.7624 100.684 54.8296 101.304 55.0866C101.925 55.3436 102.455 55.7788 102.828 56.3371C103.201 56.8955 103.4 57.552 103.4 58.2235C103.4 59.1241 103.042 59.9877 102.406 60.6245C101.769 61.2612 100.905 61.619 100.005 61.619ZM100.005 55.291C99.4229 55.291 98.8542 55.4635 98.3704 55.7868C97.8866 56.1101 97.5096 56.5696 97.287 57.1072C97.0645 57.6448 97.0063 58.2364 97.1199 58.807C97.2336 59.3776 97.5139 59.9018 97.9255 60.3131C98.337 60.7244 98.8613 61.0044 99.432 61.1177C100.003 61.231 100.594 61.1725 101.132 60.9496C101.669 60.7267 102.128 60.3494 102.451 59.8654C102.774 59.3814 102.947 58.8125 102.946 58.2307C102.945 57.451 102.635 56.7036 102.084 56.1524C101.532 55.6013 100.784 55.2914 100.005 55.291Z" fill="#313131"/>
<path d="M112.541 61.3952C114.289 61.3952 115.706 59.9782 115.706 58.2303C115.706 56.4824 114.289 55.0654 112.541 55.0654C110.793 55.0654 109.376 56.4824 109.376 58.2303C109.376 59.9782 110.793 61.3952 112.541 61.3952Z" fill="white"/>
<path d="M112.541 61.619C111.869 61.619 111.213 61.4198 110.655 61.0467C110.096 60.6736 109.661 60.1433 109.404 59.5229C109.147 58.9025 109.08 58.2198 109.211 57.5611C109.342 56.9025 109.665 56.2975 110.14 55.8226C110.615 55.3478 111.22 55.0244 111.879 54.8934C112.537 54.7624 113.22 54.8296 113.84 55.0866C114.461 55.3436 114.991 55.7788 115.364 56.3371C115.737 56.8955 115.936 57.552 115.936 58.2235C115.936 59.1241 115.579 59.9877 114.942 60.6245C114.305 61.2612 113.441 61.619 112.541 61.619ZM112.541 55.291C111.959 55.291 111.39 55.4635 110.907 55.7868C110.423 56.1101 110.046 56.5696 109.823 57.1072C109.601 57.6448 109.542 58.2364 109.656 58.807C109.77 59.3776 110.05 59.9018 110.462 60.3131C110.873 60.7244 111.397 61.0044 111.968 61.1177C112.539 61.231 113.13 61.1725 113.668 60.9496C114.205 60.7267 114.665 60.3494 114.988 59.8654C115.311 59.3814 115.483 58.8125 115.482 58.2307C115.481 57.4512 115.171 56.704 114.619 56.1529C114.068 55.6019 113.32 55.2919 112.541 55.291Z" fill="#313131"/>
<path d="M100.812 60.3825C101.094 60.3825 101.323 60.1537 101.323 59.8714C101.323 59.5892 101.094 59.3604 100.812 59.3604C100.53 59.3604 100.301 59.5892 100.301 59.8714C100.301 60.1537 100.53 60.3825 100.812 60.3825Z" fill="#313131"/>
<path d="M110.921 57.8897C111.209 57.8897 111.441 57.6569 111.441 57.3696C111.441 57.0824 111.209 56.8496 110.921 56.8496C110.634 56.8496 110.401 57.0824 110.401 57.3696C110.401 57.6569 110.634 57.8897 110.921 57.8897Z" fill="#313131"/>
<path d="M125.659 69.8711C125.659 69.8711 132.845 74.1118 134.752 83.9174L132.209 85.0772C132.209 85.0772 128.543 76.7549 125.659 75.6951V69.8711Z" fill="#00FFC2"/>
<path d="M132.21 85.3081C132.182 85.3077 132.155 85.3029 132.129 85.2938C132.073 85.2719 132.028 85.2289 132.004 85.1741C131.968 85.0919 128.346 76.9268 125.581 75.9118C125.539 75.896 125.502 75.8675 125.476 75.83C125.45 75.7926 125.436 75.7482 125.437 75.7027V69.8715C125.437 69.832 125.447 69.7932 125.467 69.759C125.487 69.7248 125.515 69.6964 125.549 69.6767C125.583 69.6569 125.622 69.6465 125.661 69.6465C125.7 69.6465 125.739 69.6569 125.772 69.6767C125.846 69.7196 133.067 74.0818 134.972 83.8731C134.982 83.9225 134.975 83.9737 134.952 84.0185C134.929 84.0633 134.891 84.0989 134.845 84.1197L132.302 85.2849C132.274 85.2994 132.242 85.3073 132.21 85.3081ZM125.883 75.5508C128.564 76.7374 131.731 83.4835 132.317 84.7863L134.497 83.7891C132.824 75.5257 127.302 71.2636 125.88 70.2843L125.883 75.5508Z" fill="#313131"/>
<path d="M132.051 93.7375C130.648 93.2228 129.515 91.1909 129.525 89.2108C129.538 86.9305 131.011 85.1006 133.564 84.1945C135.925 83.3564 138.005 83.9301 139.283 85.7672C140.516 87.5542 140.693 90.2974 139.655 91.5197L137.91 90.0382C138.127 89.7326 138.196 88.1082 137.331 86.9627C136.659 86.0692 135.682 85.869 134.343 86.3444C132.708 86.9252 131.863 87.8705 131.827 89.1518C131.791 90.4332 132.576 91.475 132.855 91.5858L132.051 93.7375Z" fill="#00FFC2"/>
<path d="M132.05 93.9615C132.024 93.9616 131.998 93.9573 131.973 93.949C130.488 93.4021 129.293 91.2773 129.302 89.2097C129.314 86.815 130.842 84.91 133.491 83.9843C135.741 83.198 137.958 83.8056 139.447 85.6266C140.805 87.2939 140.987 90.2855 139.815 91.6651C139.796 91.6878 139.773 91.7065 139.747 91.7201C139.72 91.7337 139.692 91.7419 139.662 91.7443C139.633 91.7466 139.603 91.743 139.575 91.7337C139.547 91.7244 139.521 91.7096 139.499 91.6901L137.785 90.2336L137.762 90.2194C137.716 90.1845 137.685 90.1332 137.676 90.0763C137.667 90.0193 137.681 89.9611 137.714 89.9138C137.862 89.7047 138.123 88.057 137.161 87.1277C136.523 86.513 135.483 86.3021 134.381 86.5684C133.033 86.8918 132.068 87.9587 132.036 89.165C132.004 90.3713 132.751 91.3095 132.93 91.3863C132.982 91.4089 133.024 91.4506 133.047 91.5031C133.07 91.5555 133.072 91.6147 133.053 91.6687L132.263 93.8131C132.247 93.8568 132.218 93.8944 132.18 93.921C132.142 93.9475 132.097 93.9617 132.05 93.9615ZM135.389 84.0969C134.79 84.1001 134.197 84.2047 133.634 84.406C131.173 85.2656 129.756 87.0187 129.743 89.2132C129.732 91.0003 130.692 92.841 131.918 93.4414L132.567 91.6758C132.161 91.3184 131.552 90.357 131.586 89.1525C131.625 87.7461 132.729 86.504 134.266 86.1341C135.517 85.8321 136.713 86.0841 137.462 86.8079C138.419 87.7336 138.391 89.333 138.162 89.9781L139.592 91.1969C140.392 89.9995 140.339 87.4441 139.082 85.909C138.644 85.3474 138.083 84.8925 137.444 84.5787C136.804 84.2648 136.101 84.1001 135.389 84.0969Z" fill="#313131"/>
<path d="M126.989 76.8337C126.937 76.834 126.885 76.8155 126.845 76.7816C126.804 76.7477 126.777 76.7004 126.768 76.6483C126.759 76.5962 126.769 76.5426 126.795 76.497C126.822 76.4515 126.864 76.4169 126.914 76.3994C129.028 75.6488 129.302 73.2578 129.304 73.2327C129.31 73.1739 129.34 73.1201 129.386 73.0829C129.432 73.0458 129.491 73.0283 129.55 73.0344C129.609 73.0407 129.663 73.07 129.7 73.1159C129.737 73.1617 129.755 73.2205 129.749 73.2792C129.738 73.3882 129.448 75.9741 127.068 76.8212C127.043 76.8291 127.016 76.8333 126.989 76.8337Z" fill="#313131"/>
<path d="M129.559 80.1881H129.523C129.464 80.1871 129.407 80.1627 129.366 80.1202C129.324 80.0777 129.301 80.0205 129.302 79.9611C129.302 79.9319 129.308 79.9029 129.319 79.876C129.331 79.8491 129.348 79.8247 129.369 79.8043C129.389 79.7839 129.414 79.7678 129.441 79.757C129.469 79.7462 129.498 79.7408 129.527 79.7413C131.411 79.7574 132.631 78.0597 132.642 78.0418C132.679 78.0048 132.729 77.9823 132.781 77.9782C132.834 77.9741 132.886 77.9888 132.929 78.0196C132.972 78.0505 133.002 78.0954 133.015 78.1466C133.028 78.1977 133.022 78.2518 132.999 78.2991C132.955 78.376 131.666 80.1881 129.559 80.1881Z" fill="#313131"/>
<path d="M120.185 54.0614C120.122 54.0613 120.061 54.0363 120.016 53.9917C119.975 53.9481 119.945 53.8954 119.928 53.838C119.911 53.7867 119.914 53.7309 119.935 53.6811C119.956 53.6313 119.994 53.5908 120.043 53.5673C120.092 53.5437 120.147 53.5386 120.199 53.5529C120.252 53.5672 120.297 53.5999 120.327 53.645C120.373 53.7165 120.482 53.8863 120.327 54.015C120.286 54.0457 120.236 54.0621 120.185 54.0614ZM120.332 53.6772L120.3 53.7094L120.346 53.6933L120.332 53.6772Z" fill="#313131"/>
<path d="M119.483 48.8562C119.483 48.8562 119.905 53.1452 120.134 53.7653C119.728 53.1577 116.722 49.0725 116.722 49.0725L113.134 49.8302L113.849 46.1506L110.632 44.058L113.879 42.9393L113.193 41.4238C113.193 41.4238 116.526 42.1815 116.704 42.2512C119.092 43.7649 121.117 45.7849 122.637 48.1682L122.816 50.1876L119.483 48.8562Z" fill="white"/>
<path d="M120.14 53.9826C120.104 53.9821 120.069 53.9728 120.038 53.9557C120.007 53.9386 119.981 53.9141 119.961 53.8844C119.604 53.3482 117.134 49.985 116.641 49.3148L113.186 50.0511C113.15 50.0584 113.112 50.0566 113.077 50.0461C113.041 50.0355 113.009 50.0163 112.983 49.9903C112.956 49.9645 112.937 49.9325 112.926 49.8972C112.915 49.862 112.913 49.8246 112.92 49.7884L113.613 46.2554L110.527 44.2431C110.492 44.2204 110.464 44.1882 110.447 44.1502C110.429 44.1122 110.423 44.0701 110.429 44.0287C110.435 43.9882 110.452 43.9501 110.478 43.9186C110.504 43.887 110.538 43.8633 110.577 43.85L113.587 42.8063L113.002 41.5161C112.985 41.4781 112.979 41.4361 112.984 41.3947C112.989 41.3533 113.006 41.3143 113.033 41.282C113.059 41.2502 113.094 41.2263 113.133 41.2127C113.172 41.1992 113.214 41.1966 113.254 41.2051C113.814 41.332 116.614 41.97 116.798 42.0433C116.811 42.0474 116.823 42.0534 116.834 42.0611C119.248 43.5937 121.296 45.6373 122.835 48.0478C122.854 48.078 122.865 48.1123 122.869 48.1479L123.047 50.1655C123.051 50.2036 123.045 50.2421 123.03 50.2772C123.015 50.3123 122.991 50.3429 122.96 50.366C122.93 50.389 122.894 50.4037 122.856 50.4087C122.818 50.4136 122.779 50.4086 122.743 50.3942L119.729 49.1951C119.868 50.5658 120.165 53.2392 120.329 53.6842C120.342 53.7179 120.346 53.7542 120.342 53.79C120.337 53.8258 120.324 53.8599 120.304 53.8895C120.283 53.9191 120.256 53.9432 120.224 53.9597C120.192 53.9763 120.156 53.9847 120.12 53.9844L120.14 53.9826ZM116.728 48.843C116.763 48.8435 116.797 48.852 116.828 48.8678C116.859 48.8836 116.886 48.9063 116.907 48.9342C117.002 49.0629 118.746 51.4361 119.722 52.7889C119.516 51.4003 119.296 49.1969 119.266 48.8716C119.262 48.8335 119.268 48.795 119.283 48.7599C119.298 48.7248 119.323 48.6943 119.353 48.6715C119.384 48.6486 119.42 48.634 119.458 48.629C119.496 48.624 119.534 48.6288 119.57 48.6429L122.588 49.842L122.441 48.2337C120.943 45.9092 118.959 43.9375 116.625 42.4543C116.419 42.3918 114.818 42.02 113.597 41.7395L114.098 42.8439C114.11 42.8721 114.116 42.9025 114.116 42.9332C114.116 42.964 114.11 42.9944 114.098 43.0226C114.086 43.0513 114.068 43.0772 114.045 43.0985C114.022 43.1197 113.995 43.1359 113.965 43.1459L111.149 44.1145L113.978 45.9587C114.015 45.9833 114.044 46.0184 114.061 46.0594C114.078 46.1004 114.083 46.1456 114.074 46.1893L113.419 49.5382L116.676 48.8502C116.694 48.8474 116.711 48.8468 116.728 48.8484V48.843Z" fill="#313131"/>
<path d="M113.497 48.2285C113.444 48.2284 113.393 48.2097 113.353 48.1756C113.313 48.1415 113.286 48.0943 113.277 48.0423C113.268 47.9903 113.278 47.9369 113.305 47.8915C113.332 47.8461 113.374 47.8116 113.424 47.7942C113.474 47.7764 118.483 45.984 119.453 41.3787C119.729 40.0261 119.559 38.6207 118.971 37.3721C116.991 38.1102 114.86 37.8886 114.01 37.0683C113.549 36.6197 113.474 36.0264 113.81 35.3956C114.41 34.2555 115.418 33.8391 116.564 34.2537C117.584 34.6236 118.547 35.5636 119.198 36.7967C119.376 36.7198 119.543 36.634 119.711 36.5393C120.983 35.8245 122.984 34.0374 122.093 30.1667C121.557 27.8685 120.341 26.0046 118.556 24.7161C116.287 27.3449 112.988 29.4143 109.95 30.1166C106.947 30.8082 104.876 30.0112 104.41 27.9811C104.102 26.6551 104.515 25.4184 105.602 24.407C107.746 22.4001 112.11 21.7264 115.74 22.8343C116.708 23.1264 117.63 23.5535 118.479 24.1032C120.679 21.3868 121.944 17.9414 121.096 14.2511C120.334 10.9468 117.384 9.68334 114.734 9.23122C113.545 14.0384 108.529 19.2531 103.833 21.3404C100.478 22.8326 97.6171 22.6413 95.7764 20.8042C94.2682 19.2977 93.9018 17.6036 94.7167 15.9095C95.73 13.8007 98.5446 11.7617 102.44 10.3142C106.283 8.88453 110.457 8.28586 113.894 8.66829C114.062 8.68795 114.228 8.70761 114.39 8.73084C114.517 8.11564 114.567 7.4872 114.539 6.85979C114.403 4.24889 112.752 2.40642 109.601 1.38065C102.644 -0.88892 96.913 1.41282 93.3389 3.74315C88.2422 7.06172 85.2131 11.919 84.9861 14.151C84.9832 14.1802 84.9745 14.2086 84.9607 14.2344C84.9468 14.2603 84.9279 14.2832 84.9052 14.3018C84.8824 14.3204 84.8563 14.3343 84.8282 14.3428C84.8 14.3512 84.7705 14.3541 84.7413 14.3512C84.7121 14.3482 84.6837 14.3396 84.6579 14.3257C84.632 14.3118 84.6091 14.2929 84.5905 14.2702C84.5719 14.2475 84.558 14.2213 84.5495 14.1932C84.5411 14.1651 84.5382 14.1355 84.5412 14.1063C84.8128 11.4436 88.16 6.58279 93.0958 3.36965C96.7575 0.98571 102.621 -1.36964 109.744 0.95533C113.899 2.31171 114.891 4.90116 114.989 6.83655C115.02 7.49574 114.968 8.15621 114.834 8.80232C118.561 9.4403 120.87 11.2792 121.533 14.1635C122.55 18.5793 120.713 22.1034 118.853 24.3766C120.711 25.7258 121.984 27.6719 122.536 30.0719C123.492 34.2304 121.317 36.1569 119.936 36.9343C119.757 37.0326 119.578 37.1219 119.4 37.2041C120.011 38.5399 120.185 40.0347 119.896 41.4752C118.872 46.3306 113.627 48.2017 113.576 48.2214C113.55 48.2277 113.523 48.2301 113.497 48.2285ZM115.731 34.5467C115.1 34.5467 114.571 34.9042 114.205 35.6047C113.965 36.0568 114.004 36.441 114.321 36.7484C115.036 37.4507 116.976 37.6205 118.767 36.97C118.136 35.8156 117.234 34.9721 116.412 34.6754C116.194 34.5933 115.963 34.5498 115.731 34.5467ZM112.051 22.7521C109.607 22.7521 107.269 23.458 105.895 24.7411C104.932 25.6347 104.565 26.7283 104.833 27.8899C105.241 29.6466 107.114 30.3186 109.837 29.6895C112.712 29.0247 115.888 27.1179 118.174 24.457C117.373 23.9429 116.504 23.543 115.593 23.2686C114.444 22.9238 113.251 22.7498 112.051 22.7521ZM111.781 9.00426C105.008 9.00426 96.9344 12.3103 95.1099 16.1043C94.3736 17.634 94.7024 19.1101 96.082 20.4915C97.7833 22.191 100.469 22.3518 103.643 20.9401C108.227 18.901 113.131 13.8293 114.285 9.17046C114.133 9.14901 113.983 9.13114 113.836 9.11327C113.154 9.03953 112.468 9.00314 111.781 9.00426Z" fill="white"/>
<path d="M88.7046 72.2178C88.8872 72.2178 89.0352 72.0698 89.0352 71.8872C89.0352 71.7047 88.8872 71.5566 88.7046 71.5566C88.522 71.5566 88.374 71.7047 88.374 71.8872C88.374 72.0698 88.522 72.2178 88.7046 72.2178Z" fill="#313131"/>
<path d="M94.9117 74.0782C95.0942 74.0782 95.2423 73.9302 95.2423 73.7476C95.2423 73.565 95.0942 73.417 94.9117 73.417C94.7291 73.417 94.5811 73.565 94.5811 73.7476C94.5811 73.9302 94.7291 74.0782 94.9117 74.0782Z" fill="#313131"/>
<path d="M111.852 74.9893C112.035 74.9893 112.183 74.8413 112.183 74.6587C112.183 74.4761 112.035 74.3281 111.852 74.3281C111.669 74.3281 111.521 74.4761 111.521 74.6587C111.521 74.8413 111.669 74.9893 111.852 74.9893Z" fill="#313131"/>
<path d="M103.08 74.9893C103.262 74.9893 103.41 74.8413 103.41 74.6587C103.41 74.4761 103.262 74.3281 103.08 74.3281C102.897 74.3281 102.749 74.4761 102.749 74.6587C102.749 74.8413 102.897 74.9893 103.08 74.9893Z" fill="#313131"/>
<path d="M111.899 84.0196C112.082 84.0196 112.23 83.8716 112.23 83.689C112.23 83.5064 112.082 83.3584 111.899 83.3584C111.716 83.3584 111.568 83.5064 111.568 83.689C111.568 83.8716 111.716 84.0196 111.899 84.0196Z" fill="#313131"/>
<path d="M112.181 93.9288C112.364 93.9288 112.512 93.7808 112.512 93.5982C112.512 93.4156 112.364 93.2676 112.181 93.2676C111.999 93.2676 111.851 93.4156 111.851 93.5982C111.851 93.7808 111.999 93.9288 112.181 93.9288Z" fill="#313131"/>
<path d="M115.806 74.6593C115.989 74.6593 116.137 74.5112 116.137 74.3286C116.137 74.1461 115.989 73.998 115.806 73.998C115.624 73.998 115.476 74.1461 115.476 74.3286C115.476 74.5112 115.624 74.6593 115.806 74.6593Z" fill="#313131"/>
<path d="M123.203 72.5518C123.385 72.5518 123.533 72.4038 123.533 72.2212C123.533 72.0386 123.385 71.8906 123.203 71.8906C123.02 71.8906 122.872 72.0386 122.872 72.2212C122.872 72.4038 123.02 72.5518 123.203 72.5518Z" fill="#313131"/>
<path d="M115.854 83.6895C116.037 83.6895 116.185 83.5415 116.185 83.3589C116.185 83.1763 116.037 83.0283 115.854 83.0283C115.671 83.0283 115.523 83.1763 115.523 83.3589C115.523 83.5415 115.671 83.6895 115.854 83.6895Z" fill="#313131"/>
<path d="M116.136 93.5987C116.319 93.5987 116.467 93.4507 116.467 93.2681C116.467 93.0855 116.319 92.9375 116.136 92.9375C115.954 92.9375 115.806 93.0855 115.806 93.2681C115.806 93.4507 115.954 93.5987 116.136 93.5987Z" fill="#313131"/>
<path d="M88.7388 95.4268C88.9214 95.4268 89.0694 95.2788 89.0694 95.0962C89.0694 94.9136 88.9214 94.7656 88.7388 94.7656C88.5562 94.7656 88.4082 94.9136 88.4082 95.0962C88.4082 95.2788 88.5562 95.4268 88.7388 95.4268Z" fill="#313131"/>
<path d="M97.4722 97.5782C97.6548 97.5782 97.8028 97.4302 97.8028 97.2476C97.8028 97.065 97.6548 96.917 97.4722 96.917C97.2896 96.917 97.1416 97.065 97.1416 97.2476C97.1416 97.4302 97.2896 97.5782 97.4722 97.5782Z" fill="#313131"/>
<path d="M97.563 107.323C97.7456 107.323 97.8936 107.175 97.8936 106.993C97.8936 106.81 97.7456 106.662 97.563 106.662C97.3804 106.662 97.2324 106.81 97.2324 106.993C97.2324 107.175 97.3804 107.323 97.563 107.323Z" fill="#313131"/>
<path d="M101.619 98.2413C101.801 98.2413 101.949 98.0933 101.949 97.9107C101.949 97.7281 101.801 97.5801 101.619 97.5801C101.436 97.5801 101.288 97.7281 101.288 97.9107C101.288 98.0933 101.436 98.2413 101.619 98.2413Z" fill="#313131"/>
<path d="M101.708 107.986C101.89 107.986 102.038 107.838 102.038 107.656C102.038 107.473 101.89 107.325 101.708 107.325C101.525 107.325 101.377 107.473 101.377 107.656C101.377 107.838 101.525 107.986 101.708 107.986Z" fill="#313131"/>
<path d="M110.087 98.3077C110.27 98.3077 110.418 98.1597 110.418 97.9771C110.418 97.7945 110.27 97.6465 110.087 97.6465C109.905 97.6465 109.757 97.7945 109.757 97.9771C109.757 98.1597 109.905 98.3077 110.087 98.3077Z" fill="#313131"/>
<path d="M118.18 97.2471C118.363 97.2471 118.511 97.0991 118.511 96.9165C118.511 96.734 118.363 96.5859 118.18 96.5859C117.998 96.5859 117.85 96.734 117.85 96.9165C117.85 97.0991 117.998 97.2471 118.18 97.2471Z" fill="#313131"/>
<path d="M124.564 94.7657C124.747 94.7657 124.895 94.6177 124.895 94.4351C124.895 94.2525 124.747 94.1045 124.564 94.1045C124.381 94.1045 124.233 94.2525 124.233 94.4351C124.233 94.6177 124.381 94.7657 124.564 94.7657Z" fill="#313131"/>
<path d="M104.736 49.1684C104.736 49.1684 98.3493 50.8 96.1387 52.537C93.9281 54.274 87.257 65.6791 87.257 65.6791L87.0586 62.8019L94.0853 50.4854L102.536 48.5107L104.736 49.1684Z" fill="#313131"/>
<path d="M73.8652 61.3957C76.242 58.6543 84.6716 46.9669 92.8224 42.6154C100.973 38.2639 105.387 38.6928 105.845 39.279C106.302 39.8651 105.212 40.1064 105.212 40.1064C105.212 40.1064 108.911 39.4345 109.176 40.8212C109.378 41.8756 107.494 42.0632 107.494 42.0632C107.494 42.0632 109.22 42.3224 108.795 43.5626C108.314 44.9601 101.838 43.8986 98.6965 46.6471C98.6965 46.6471 106.023 45.884 105.021 48.8451C104.624 50.0139 99.6132 49.3598 95.7639 51.7152C91.9146 54.0705 82.4753 72.6721 82.4753 72.6721L74.9696 69.8699L73.8652 61.3957Z" fill="white"/>
<path d="M82.4753 72.8969C82.4485 72.8967 82.4219 72.8918 82.3967 72.8826L74.8821 70.0805C74.8441 70.0669 74.8105 70.043 74.7853 70.0114C74.76 69.9799 74.7441 69.9419 74.7391 69.9018L73.6437 61.4258C73.6393 61.3939 73.6419 61.3614 73.6511 61.3306C73.6603 61.2998 73.6761 61.2713 73.6973 61.247C74.0869 60.7985 74.6373 60.1087 75.336 59.2366C78.7565 54.9637 85.8797 46.0713 92.717 42.4168C100.691 38.1582 105.405 38.3458 106.022 39.1393C106.093 39.2174 106.143 39.3131 106.166 39.4167C106.188 39.5204 106.183 39.6281 106.15 39.729L106.14 39.7558C107.33 39.6486 109.178 39.6665 109.396 40.7798C109.424 40.9103 109.423 41.0453 109.394 41.1756C109.364 41.3058 109.307 41.4281 109.226 41.5339C108.99 41.8069 108.679 42.0055 108.332 42.1058C108.58 42.2252 108.791 42.4107 108.94 42.6419C109.028 42.7914 109.08 42.959 109.093 43.132C109.106 43.3049 109.078 43.4784 109.013 43.6391C108.761 44.3718 107.453 44.5201 105.643 44.7256C103.632 44.9526 101.175 45.2296 99.4417 46.3715C100.918 46.2893 104.088 46.2679 105.046 47.4741C105.364 47.8727 105.43 48.3677 105.239 48.9235C105.021 49.5668 103.952 49.7276 102.337 49.9689C100.507 50.2441 97.9996 50.6194 95.8872 51.9114C92.1344 54.206 82.7756 72.5931 82.6808 72.7772C82.6613 72.8145 82.6317 72.8455 82.5954 72.8667C82.559 72.8879 82.5174 72.8983 82.4753 72.8969ZM75.1645 69.7088L82.3663 72.3894C83.401 70.3629 91.9468 53.7843 95.6478 51.5201C97.8369 50.1816 100.394 49.7991 102.26 49.5185C103.556 49.3238 104.674 49.1611 104.805 48.7698C104.946 48.3552 104.907 48.0192 104.687 47.744C103.779 46.6092 100.069 46.7236 98.7162 46.8648C98.6687 46.8706 98.6207 46.861 98.5792 46.8373C98.5376 46.8137 98.5049 46.7772 98.4858 46.7334C98.4667 46.6896 98.4623 46.6407 98.4732 46.5942C98.4841 46.5477 98.5098 46.5059 98.5464 46.4752C100.394 44.8668 103.27 44.5326 105.58 44.2717C107.042 44.1073 108.42 43.9518 108.581 43.4854C108.623 43.3865 108.643 43.2792 108.637 43.1716C108.632 43.0641 108.601 42.9592 108.549 42.8653C108.32 42.4882 107.684 42.3149 107.457 42.2809C107.403 42.2727 107.354 42.2451 107.319 42.2033C107.284 42.1614 107.266 42.1083 107.267 42.0538C107.269 41.9994 107.29 41.9473 107.327 41.9075C107.364 41.8678 107.415 41.8429 107.469 41.8378C107.76 41.8074 108.579 41.6465 108.865 41.2623C108.909 41.2057 108.939 41.1401 108.954 41.0703C108.969 41.0004 108.969 40.928 108.952 40.8584C108.774 39.9041 106.152 40.1561 105.248 40.3223C105.191 40.3317 105.132 40.3186 105.085 40.2856C105.037 40.2527 105.004 40.2025 104.993 40.1457C104.981 40.0889 104.992 40.0299 105.024 39.9812C105.055 39.9325 105.104 39.8978 105.16 39.8845C105.368 39.838 105.68 39.7058 105.725 39.5771C105.739 39.5378 105.725 39.4824 105.666 39.4127C105.284 38.9231 100.952 38.5192 92.9243 42.8081C86.1638 46.4234 79.096 55.2675 75.6845 59.5225C75.0215 60.3517 74.4907 61.0165 74.0994 61.4704L75.1645 69.7088Z" fill="#313131"/>
<path d="M96.5126 42.2756C96.4605 42.2752 96.4101 42.2566 96.3702 42.2229C96.3304 42.1893 96.3036 42.1427 96.2945 42.0913C96.2853 42.04 96.2945 41.9871 96.3203 41.9417C96.3461 41.8964 96.387 41.8615 96.4358 41.8432C98.7214 40.9979 103.144 40.0097 105.192 39.8774C105.222 39.8755 105.251 39.8794 105.279 39.8889C105.307 39.8984 105.332 39.9133 105.355 39.9327C105.377 39.9521 105.395 39.9757 105.408 40.0021C105.421 40.0285 105.428 40.0572 105.43 40.0865C105.432 40.1158 105.428 40.1453 105.419 40.1731C105.409 40.2009 105.394 40.2266 105.375 40.2486C105.355 40.2707 105.332 40.2887 105.305 40.3017C105.279 40.3147 105.25 40.3223 105.221 40.3242C103.198 40.4475 98.8394 41.4232 96.5859 42.256C96.5627 42.2663 96.5379 42.273 96.5126 42.2756Z" fill="#313131"/>
<path d="M97.7494 43.7966C97.6973 43.7972 97.6466 43.7795 97.6061 43.7467C97.5657 43.7139 97.5379 43.6679 97.5277 43.6168C97.5176 43.5657 97.5256 43.5127 97.5504 43.4668C97.5752 43.421 97.6153 43.3853 97.6636 43.3659C99.3399 42.6707 105.389 41.4841 107.532 41.854C107.561 41.859 107.589 41.8696 107.613 41.8852C107.638 41.9008 107.66 41.9212 107.677 41.9452C107.694 41.9692 107.706 41.9963 107.713 42.0249C107.719 42.0536 107.72 42.0833 107.715 42.1123C107.71 42.1412 107.699 42.169 107.684 42.1939C107.668 42.2188 107.648 42.2403 107.624 42.2573C107.6 42.2743 107.573 42.2865 107.544 42.293C107.515 42.2995 107.486 42.3004 107.457 42.2954C105.377 41.938 99.4739 43.0996 97.8352 43.7787C97.8082 43.7906 97.7789 43.7967 97.7494 43.7966Z" fill="#313131"/>
<path d="M81.2973 89.9029C80.6343 91.9044 78.7507 93.2072 76.549 93.4413C76.3203 93.4645 76.2077 93.1768 76.4114 93.0839C76.9538 92.8505 77.4405 92.5045 77.8392 92.0689C78.2378 91.6332 78.5394 91.1179 78.7239 90.557C78.907 90.0449 78.9858 89.5014 78.9559 88.9585C78.9259 88.4155 78.7877 87.884 78.5493 87.3952C78.311 86.9064 77.9773 86.4702 77.568 86.1123C77.1586 85.7543 76.6818 85.4818 76.1657 85.3107C75.6495 85.1396 75.1043 85.0735 74.5622 85.1161C74.0201 85.1588 73.4919 85.3094 73.0089 85.5591C72.5258 85.8088 72.0975 86.1525 71.7492 86.5701C71.4008 86.9877 71.1395 87.4707 70.9806 87.9907C70.793 88.5507 70.7267 89.1441 70.7858 89.7316C70.845 90.3191 71.0283 90.8874 71.3237 91.3987C71.4363 91.5917 71.17 91.7561 71.0002 91.5935C69.2989 90.0226 68.5805 87.7209 69.4115 85.6479C70.1925 83.7 72.1886 82.4759 74.4439 82.3633L82.5822 57.8037C80.8398 56.3651 79.9695 54.1902 80.5056 52.1637C81.0775 50.0032 83.0289 48.5896 85.3307 48.3412C85.5612 48.3179 85.6881 48.6039 85.4736 48.6986C84.9316 48.9327 84.4453 49.2791 84.047 49.715C83.6487 50.1509 83.3474 50.6664 83.163 51.2273C82.9938 51.7357 82.9264 52.2725 82.9646 52.807C83.0028 53.3415 83.146 53.8632 83.3859 54.3424C83.6257 54.8215 83.9576 55.2487 84.3626 55.5996C84.7676 55.9505 85.2377 56.2182 85.7462 56.3874C86.2546 56.5566 86.7914 56.624 87.3259 56.5858C87.8604 56.5476 88.3821 56.4044 88.8612 56.1645C89.3404 55.9247 89.7676 55.5928 90.1185 55.1878C90.4694 54.7828 90.7371 54.3127 90.9063 53.8042C91.0939 53.2439 91.1602 52.6501 91.1007 52.0623C91.0413 51.4744 90.8574 50.9059 90.5614 50.3945C90.4488 50.2033 90.7115 50.0371 90.8831 50.1962C92.5093 51.6973 93.242 53.8668 92.579 55.8683C91.8767 57.986 89.809 59.3227 87.4412 59.4424L79.3065 83.9788C81.1382 85.4817 81.9996 87.7888 81.2973 89.9029Z" fill="white"/>
<path d="M76.5243 93.6685C76.4265 93.6702 76.3309 93.6391 76.2529 93.5801C76.1748 93.5212 76.1187 93.4378 76.0936 93.3432C76.0699 93.2522 76.0803 93.1557 76.1227 93.0718C76.1652 92.9879 76.2368 92.9224 76.3241 92.8875C76.816 92.6738 77.2594 92.3626 77.6278 91.9729C77.9961 91.5831 78.2818 91.1228 78.4675 90.6197C78.6531 90.1165 78.735 89.581 78.7082 89.0454C78.6814 88.5098 78.5464 87.9852 78.3113 87.5031C78.0889 87.0455 77.777 86.637 77.3941 86.302C77.0112 85.9669 76.565 85.7119 76.0819 85.5522C75.5988 85.3924 75.0886 85.3311 74.5814 85.3718C74.0742 85.4126 73.5803 85.5545 73.1289 85.7893C72.6527 86.0359 72.2313 86.3762 71.8901 86.7899C71.5489 87.2036 71.2949 87.682 71.1435 88.1964C70.992 88.7108 70.9463 89.2505 71.0089 89.7831C71.0716 90.3157 71.2413 90.83 71.508 91.2953C71.5576 91.3748 71.576 91.4699 71.5599 91.5622C71.5437 91.6545 71.4941 91.7377 71.4204 91.7957C71.3366 91.8621 71.2315 91.8958 71.1247 91.8905C71.0178 91.8852 70.9165 91.8414 70.8396 91.7671C69.0097 90.0765 68.3645 87.6461 69.1955 85.5731C69.9818 83.6484 71.9476 82.326 74.2797 82.1598L82.3215 57.8861C80.5559 56.3618 79.7589 54.1136 80.2878 52.1157C80.8597 49.9569 82.829 48.3932 85.3041 48.1288C85.4106 48.1148 85.5185 48.1401 85.6077 48.2C85.6968 48.2598 85.7611 48.3502 85.7884 48.454C85.8124 48.5443 85.8024 48.6403 85.7602 48.7237C85.718 48.807 85.6466 48.872 85.5597 48.9061C85.068 49.1201 84.6247 49.4313 84.2565 49.8212C83.8884 50.211 83.6029 50.6714 83.4174 51.1745C83.2319 51.6776 83.1502 52.213 83.1771 52.7485C83.2041 53.2841 83.3392 53.8086 83.5742 54.2906C83.7967 54.7468 84.1082 55.154 84.4903 55.4881C84.8724 55.8223 85.3174 56.0767 85.7993 56.2363C86.2811 56.396 86.79 56.4577 87.2961 56.4179C87.8021 56.3781 88.2951 56.2374 88.746 56.0043C89.2224 55.758 89.6439 55.4177 89.9853 55.0041C90.3266 54.5904 90.5807 54.112 90.7321 53.5975C90.8836 53.083 90.9293 52.5432 90.8665 52.0106C90.8038 51.478 90.6338 50.9636 90.3669 50.4984C90.3172 50.4186 90.2986 50.3232 90.3148 50.2306C90.3309 50.138 90.3807 50.0545 90.4544 49.9962C90.5378 49.9306 90.642 49.8971 90.748 49.9021C90.854 49.907 90.9547 49.9499 91.0317 50.023C92.7865 51.6403 93.4603 53.9045 92.7883 55.9293C92.095 58.0255 90.0684 59.4695 87.6059 59.641L79.5641 83.9058C81.4405 85.5141 82.2018 87.882 81.5084 89.9818C80.8365 92.0047 78.9457 93.4183 76.5725 93.6703L76.5243 93.6685ZM74.8891 84.9119C75.6866 84.912 76.468 85.1363 77.1442 85.559C77.8203 85.9818 78.3641 86.5861 78.7134 87.303C78.9679 87.8253 79.117 88.3927 79.1521 88.9727C79.1872 89.5527 79.1076 90.1339 78.9179 90.6831C78.7281 91.2323 78.432 91.7387 78.0465 92.1734C77.6609 92.608 77.1935 92.9625 76.6708 93.2164C78.7992 92.9286 80.4844 91.6491 81.0849 89.8334C81.7354 87.8677 80.9812 85.6392 79.1656 84.1488C79.1306 84.1201 79.1051 84.0816 79.0924 84.0383C79.0796 83.9949 79.0802 83.9488 79.0941 83.9058L87.2306 59.3533C87.2448 59.3106 87.2714 59.2732 87.3071 59.2458C87.3428 59.2184 87.3858 59.2023 87.4307 59.1996C89.7789 59.0888 91.7197 57.7485 92.3666 55.7863C92.9635 53.9814 92.3898 51.9638 90.8672 50.477C91.3937 51.5172 91.4877 52.7233 91.1289 53.8326C90.77 54.9419 89.9874 55.8644 88.9515 56.3993C88.4477 56.6598 87.8969 56.8169 87.3315 56.8614C86.7661 56.9059 86.1975 56.8369 85.6592 56.6584C85.1209 56.4799 84.6237 56.1955 84.1969 55.822C83.77 55.4485 83.4223 54.9935 83.1739 54.4836C82.6615 53.4364 82.5833 52.2293 82.9565 51.1248C83.3297 50.0203 84.124 49.108 85.1665 48.5862C82.9613 48.8883 81.235 50.2983 80.7221 52.2193C80.2271 54.0922 81.0116 56.217 82.7254 57.6306C82.7598 57.6596 82.7848 57.6982 82.7972 57.7415C82.8096 57.7848 82.8089 57.8308 82.7951 57.8736L74.6568 82.4439C74.643 82.4867 74.6163 82.5241 74.5806 82.5513C74.5448 82.5785 74.5015 82.594 74.4566 82.5958C72.2389 82.7066 70.3464 83.9397 69.6191 85.7393C68.8774 87.5871 69.4278 89.7566 71.0183 91.3114C70.4935 90.2714 70.4004 89.0663 70.7591 87.958C71.1178 86.8497 71.8994 85.9278 72.9341 85.3926C73.5383 85.0798 74.2087 84.9162 74.8891 84.9155V84.9119Z" fill="#313131"/>
<path d="M25.3057 42.2237C25.3057 42.2237 3.43207 47.2561 1.10888 52.8996C-1.2143 58.5432 5.75525 74.6589 5.75525 74.6589L8.3179 98.8379H17.968C17.968 98.8379 21.0239 104.85 25.295 104.489C29.5661 104.128 40.049 98.8379 40.049 98.8379H54.6296V77.0643L71.1439 81.6374L80.9441 69.044C80.9441 69.044 78.0455 66.5957 76.7553 64.1689C76.2191 63.1556 75.1147 59.8799 75.1147 59.8799L74.7931 59.4832C74.7931 59.4832 72.9738 60.6233 71.8694 62.078C71.1546 63.0162 70.5738 64.5048 70.5738 64.5048L70.9419 65.3823L69.5498 66.9906C69.5498 66.9906 57.3174 50.371 54.7512 49.0271C52.1849 47.6832 38.6247 42.0146 38.6247 42.0146L38.2887 43.4389C38.2887 43.4389 39.6683 48.3462 35.7332 48.7805C30.9368 49.3148 25.3057 42.2237 25.3057 42.2237Z" fill="white"/>
<path d="M24.9265 104.725C21.0504 104.725 18.2965 99.9174 17.8355 99.0578H8.31757C8.26252 99.0578 8.2094 99.0376 8.16824 99.001C8.12708 98.9645 8.10074 98.9141 8.09419 98.8595L5.53332 74.7127C5.09549 73.6994 -1.40048 58.4075 0.901256 52.8122C3.24052 47.1276 24.3547 42.2078 25.2536 42.0023C25.2947 41.9925 25.3377 41.9948 25.3776 42.0087C25.4175 42.0226 25.4526 42.0477 25.4787 42.0809C25.5341 42.1506 31.0901 49.0683 35.7079 48.559C36.6336 48.4571 37.3162 48.0836 37.7487 47.4474C38.7477 45.966 38.0793 43.5248 38.0722 43.4998C38.0632 43.4634 38.0632 43.4254 38.0722 43.389L38.4099 41.9433C38.4173 41.9116 38.4315 41.882 38.4515 41.8564C38.4715 41.8308 38.4968 41.8098 38.5257 41.795C38.5547 41.7802 38.5865 41.7719 38.6189 41.7707C38.6514 41.7694 38.6838 41.7753 38.7137 41.7878C38.8495 41.845 52.3115 47.4778 54.8563 48.811C57.3063 50.0923 68.0359 64.5371 69.5656 66.6137L70.5699 65.461L70.3572 64.5443C70.3472 64.5001 70.351 64.454 70.368 64.412C70.3912 64.3495 70.9684 62.8841 71.6922 61.9298C72.8145 60.4537 74.7123 59.4404 74.791 59.3975C74.8369 59.3735 74.8897 59.3661 74.9405 59.3765C74.9913 59.3869 75.0369 59.4146 75.0697 59.4547L75.2913 59.7281C75.3109 59.7538 75.3254 59.7829 75.3342 59.8139C75.3342 59.8389 75.9704 62.3587 77.1213 64.3548C78.1283 66.1015 79.4712 67.6315 81.0725 68.8565C81.0978 68.8736 81.1192 68.8958 81.1355 68.9216C81.1518 68.9475 81.1626 68.9764 81.1672 69.0066C81.1725 69.0378 81.1713 69.0699 81.1636 69.1006C81.156 69.1314 81.142 69.1602 81.1225 69.1853L71.3223 81.7787C71.2949 81.8139 71.2577 81.8401 71.2154 81.8541C71.173 81.8681 71.1275 81.8692 71.0846 81.8573L54.8527 77.3575V98.838C54.8527 98.8973 54.8292 98.9541 54.7873 98.996C54.7454 99.0379 54.6886 99.0614 54.6293 99.0614H40.1023C39.2373 99.4974 29.4889 104.358 25.3215 104.71C25.1892 104.717 25.057 104.725 24.9265 104.725ZM8.51772 98.6111H17.9784C18.0197 98.6113 18.06 98.623 18.095 98.6447C18.13 98.6665 18.1583 98.6975 18.1768 98.7344C18.2072 98.7933 21.2148 104.607 25.2911 104.262C29.4764 103.904 39.8503 98.6879 39.9557 98.6361C39.9865 98.6197 40.0209 98.6111 40.0558 98.6111H54.4131V77.0644C54.413 77.0299 54.4209 76.9959 54.436 76.9649C54.4512 76.9339 54.4733 76.9068 54.5006 76.8857C54.5283 76.8654 54.5601 76.8514 54.5938 76.8449C54.6275 76.8385 54.6622 76.8396 54.6954 76.8482L71.0542 81.3838L80.6221 69.087C79.0494 67.8461 77.7273 66.3171 76.7263 64.5818C75.6201 62.6607 75.0018 60.3483 74.9053 59.9748L74.8338 59.8854C74.3567 60.1606 72.9199 61.047 72.0407 62.2086C71.4349 63.0038 70.9202 64.228 70.8022 64.5193L71.022 65.4789C71.0298 65.5132 71.0294 65.5488 71.021 65.5829C71.0127 65.617 70.9965 65.6487 70.9738 65.6755L69.7139 67.1248C69.6917 67.15 69.6641 67.17 69.6332 67.1833C69.6023 67.1966 69.5688 67.2029 69.5352 67.2016C69.5018 67.2003 69.4692 67.1915 69.4398 67.1757C69.4104 67.1599 69.3849 67.1376 69.3654 67.1105C69.2421 66.9443 57.1348 50.5176 54.6418 49.2131C52.3026 47.9889 40.6187 43.0816 38.7781 42.3096L38.5171 43.4391C38.6226 43.8412 39.1569 46.1608 38.1204 47.6994C37.6147 48.45 36.8194 48.8896 35.7579 49.0076C35.5751 49.0269 35.3914 49.0365 35.2075 49.0361C30.7631 49.0361 25.9541 43.3747 25.2178 42.4723C23.37 42.9101 3.47105 47.7405 1.31407 52.9856C-0.944781 58.4772 5.88716 74.4107 5.96043 74.5697C5.96934 74.5907 5.97477 74.6131 5.97651 74.6358L8.51772 98.6111Z" fill="#313131"/>
<path d="M42.443 80.0488C44.8985 79.6521 68.9059 73.5511 70.4999 72.284C72.094 71.017 77.5481 64.4639 80.7988 63.2236L79.8409 66.1133C79.8409 66.1133 85.69 63.4899 86.3887 65.3699C87.0213 67.0712 85.4755 68.2024 85.4755 68.2024C85.4755 68.2024 86.4191 68.2149 86.4745 69.4319C86.5406 70.8973 85.0788 71.6353 85.0788 71.6353C85.0788 71.6353 86.1886 71.6496 86.1081 72.9971C86.0277 74.3445 84.7589 75.1416 84.7589 75.1416C84.7589 75.1416 86.1886 75.5365 85.3951 77.043C84.6017 78.5495 75.2231 82.8438 72.3227 84.2538C69.4223 85.6638 45.2952 97.2475 45.2952 97.2475L37.6895 92.0114L42.443 80.0488Z" fill="white"/>
<path d="M45.2957 97.4711C45.2503 97.4715 45.206 97.4577 45.1688 97.4318L37.5631 92.1957C37.5215 92.1669 37.4908 92.1251 37.4758 92.0768C37.4609 92.0285 37.4627 91.9766 37.4809 91.9294L42.2363 79.9668C42.2507 79.9296 42.275 79.8971 42.3064 79.8725C42.3379 79.848 42.3754 79.8324 42.415 79.8274C44.6952 79.4593 68.817 73.3421 70.3593 72.1091C70.8167 71.7517 71.6424 70.8867 72.6002 69.8949C75.0324 67.368 78.3814 63.9065 80.7046 63.0147C80.7441 62.9995 80.7872 62.996 80.8287 63.0046C80.8702 63.0131 80.9083 63.0334 80.9387 63.063C80.9695 63.0917 80.9913 63.1288 81.0014 63.1698C81.0116 63.2107 81.0096 63.2536 80.9959 63.2935L80.1953 65.7132C81.3819 65.2253 84.5235 64.0441 85.9139 64.6302C86.0649 64.6872 86.2021 64.7756 86.3164 64.8896C86.4307 65.0036 86.5194 65.1406 86.5769 65.2914C87.0665 66.6085 86.357 67.6146 85.9067 68.0882C86.2641 68.2669 86.6412 68.6457 86.6769 69.4213C86.7252 70.4936 86.0604 71.1905 85.594 71.5515C85.7285 71.6174 85.8497 71.7077 85.9514 71.8178C86.0906 71.9807 86.1943 72.1708 86.2558 72.3761C86.3173 72.5813 86.3354 72.7971 86.3088 73.0097C86.2498 74.0284 85.5797 74.7432 85.1686 75.0899C85.4176 75.2323 85.6158 75.4492 85.7352 75.71C85.9139 76.1175 85.8567 76.6035 85.5707 77.1397C84.9042 78.4067 79.1713 81.2159 73.8512 83.7518L72.3965 84.4487C69.5283 85.8409 45.6192 97.3335 45.3779 97.4496C45.3521 97.4618 45.3242 97.4691 45.2957 97.4711ZM37.9687 91.9312L45.3207 96.9903C47.1453 96.1147 69.4568 85.3887 72.2214 84.0466C72.6056 83.8679 73.1024 83.6231 73.6796 83.3497C77.2055 81.6699 84.5414 78.1672 85.1955 76.9341C85.4135 76.5178 85.4635 76.1675 85.3456 75.8905C85.2074 75.6334 84.9738 75.4409 84.6951 75.3544C84.6535 75.3427 84.6162 75.3192 84.5877 75.2868C84.5592 75.2543 84.5407 75.2143 84.5344 75.1716C84.5282 75.1289 84.5345 75.0852 84.5525 75.046C84.5706 75.0068 84.5996 74.9736 84.6361 74.9505C84.6486 74.9505 85.812 74.1982 85.8871 72.9847C85.9086 72.8335 85.899 72.6794 85.8591 72.532C85.8192 72.3845 85.7496 72.2467 85.6547 72.1269C85.5015 71.9704 85.296 71.8757 85.0775 71.8607C85.0278 71.8597 84.9799 71.8422 84.9413 71.8109C84.9027 71.7797 84.8756 71.7364 84.8643 71.688C84.853 71.6396 84.8582 71.5889 84.879 71.5438C84.8998 71.4986 84.9351 71.4618 84.9792 71.4389C84.9935 71.4389 86.3124 70.7438 86.2534 69.4428C86.2087 68.4492 85.5046 68.4277 85.4742 68.4277C85.4273 68.4271 85.3818 68.4118 85.3442 68.3838C85.3065 68.3559 85.2785 68.3168 85.2643 68.2722C85.2501 68.2275 85.2503 68.1795 85.2649 68.1349C85.2794 68.0903 85.3077 68.0515 85.3456 68.0238C85.4028 67.9827 86.7466 66.9695 86.1819 65.4487C86.1455 65.3555 86.0894 65.2712 86.0176 65.2015C85.9458 65.1318 85.8598 65.0784 85.7655 65.0448C84.2376 64.405 79.9772 66.2958 79.9343 66.319C79.8947 66.3368 79.8507 66.3426 79.8078 66.3356C79.7649 66.3286 79.725 66.3092 79.6931 66.2797C79.6613 66.2504 79.6385 66.2126 79.6274 66.1709C79.6163 66.1291 79.6174 66.085 79.6305 66.0438L80.4186 63.633C78.1866 64.7464 75.0414 68.0042 72.913 70.2059C71.9051 71.2513 71.108 72.0769 70.6291 72.4593C69.0207 73.7532 45.587 79.7005 42.6026 80.2491L37.9687 91.9312Z" fill="#313131"/>
<path d="M84.8229 68.8637C84.7724 68.8639 84.7234 68.8469 84.6838 68.8157C84.6441 68.7845 84.6162 68.7407 84.6046 68.6916C84.593 68.6425 84.5984 68.5909 84.6198 68.5453C84.6413 68.4996 84.6776 68.4625 84.7228 68.4401C84.9349 68.3158 85.138 68.1767 85.3304 68.0237C85.3539 68.006 85.3806 67.9931 85.4091 67.9857C85.4375 67.9783 85.4672 67.9766 85.4963 67.9807C85.5254 67.9847 85.5535 67.9945 85.5788 68.0094C85.6042 68.0243 85.6263 68.044 85.6441 68.0675C85.6618 68.091 85.6747 68.1177 85.6821 68.1462C85.6895 68.1746 85.6912 68.2043 85.6871 68.2334C85.6831 68.2625 85.6733 68.2906 85.6584 68.3159C85.6435 68.3413 85.6237 68.3634 85.6003 68.3811C85.3865 68.5512 85.1601 68.7048 84.923 68.8404C84.8919 68.8559 84.8576 68.8639 84.8229 68.8637Z" fill="#313131"/>
<path d="M84.5801 72.1105C84.5305 72.1104 84.4823 72.0937 84.4432 72.0631C84.404 72.0325 84.3762 71.9897 84.3641 71.9415C84.3521 71.8934 84.3564 71.8426 84.3764 71.7971C84.3964 71.7516 84.431 71.7142 84.4747 71.6906C84.4747 71.6906 84.6534 71.5976 84.9697 71.4368C84.9959 71.4234 85.0245 71.4152 85.0538 71.4128C85.0832 71.4105 85.1127 71.4139 85.1407 71.423C85.1687 71.4321 85.1947 71.4466 85.217 71.4658C85.2394 71.4849 85.2578 71.5083 85.2711 71.5345C85.2844 71.5608 85.2924 71.5894 85.2946 71.6188C85.2968 71.6481 85.2932 71.6776 85.2839 71.7056C85.2747 71.7336 85.26 71.7594 85.2407 71.7817C85.2215 71.8039 85.198 71.8222 85.1717 71.8353C84.8554 71.9944 84.6891 72.0837 84.6874 72.0837C84.6544 72.1014 84.6176 72.1106 84.5801 72.1105Z" fill="#313131"/>
<path d="M84.1764 75.7425C84.1272 75.7417 84.0796 75.7247 84.0409 75.6943C84.0023 75.6638 83.9747 75.6216 83.9623 75.5739C83.9499 75.5263 83.9535 75.476 83.9725 75.4306C83.9915 75.3852 84.0248 75.3472 84.0673 75.3225C84.2576 75.2151 84.4408 75.0957 84.616 74.9651C84.6636 74.9345 84.721 74.9232 84.7767 74.9333C84.8323 74.9434 84.8821 74.9742 84.9159 75.0196C84.9497 75.065 84.965 75.1215 84.9587 75.1777C84.9525 75.2339 84.9252 75.2857 84.8823 75.3225C84.689 75.4651 84.4873 75.5958 84.2782 75.7139C84.2472 75.7317 84.2122 75.7416 84.1764 75.7425Z" fill="#313131"/>
<path d="M34.8251 50.8557C28.4989 50.8557 23.1127 43.2589 22.8696 42.9086C22.8372 42.86 22.8251 42.8006 22.8359 42.7431C22.8467 42.6857 22.8797 42.6348 22.9276 42.6014C22.9756 42.5679 23.0347 42.5546 23.0924 42.5643C23.15 42.5739 23.2016 42.6058 23.236 42.6531C23.2985 42.7424 29.6051 51.6384 36.2815 50.2606C37.8274 49.9425 38.8924 49.2259 39.4446 48.134C40.6366 45.7786 39.114 42.4154 39.098 42.3778C39.0731 42.3241 39.0706 42.2626 39.091 42.2069C39.1115 42.1513 39.1532 42.1061 39.207 42.0812C39.2608 42.0563 39.3222 42.0538 39.3779 42.0743C39.4335 42.0947 39.4787 42.1364 39.5036 42.1902C39.5715 42.3367 41.1316 45.7894 39.8449 48.3341C39.2266 49.5565 38.0579 50.3517 36.3709 50.6984C35.8623 50.8028 35.3443 50.8555 34.8251 50.8557Z" fill="#313131"/>
<path d="M17.9789 99.058C17.9376 99.0581 17.8971 99.0468 17.8618 99.0253C17.8265 99.0039 17.7977 98.9732 17.7787 98.9365L5.55165 74.7593C5.53636 74.733 5.52662 74.7038 5.52304 74.6735C5.51945 74.6432 5.52209 74.6126 5.5308 74.5834C5.53951 74.5542 5.55409 74.5271 5.57367 74.5037C5.59324 74.4804 5.61738 74.4613 5.64461 74.4476C5.67184 74.4339 5.70157 74.426 5.73199 74.4242C5.76241 74.4224 5.79287 74.4269 5.82149 74.4374C5.85011 74.4478 5.87629 74.464 5.89842 74.485C5.92055 74.5059 5.93816 74.5312 5.95017 74.5592L18.1701 98.7346C18.1877 98.7684 18.1961 98.8063 18.1948 98.8444C18.1934 98.8826 18.1822 98.9197 18.1622 98.9523C18.1423 98.9848 18.1142 99.0116 18.0809 99.0302C18.0475 99.0487 18.0099 99.0583 17.9717 99.058H17.9789Z" fill="#313131"/>
<path d="M31.7244 83.219C31.6819 83.2193 31.6402 83.2074 31.6044 83.1845C31.5685 83.1617 31.5401 83.129 31.5225 83.0903L23.3502 65.6986C23.3288 65.6456 23.3286 65.5865 23.3494 65.5333C23.3703 65.4801 23.4108 65.437 23.4625 65.4127C23.5142 65.3885 23.5733 65.385 23.6275 65.4029C23.6817 65.4208 23.727 65.4589 23.7541 65.5092L31.9263 82.9009C31.9423 82.9349 31.9494 82.9724 31.947 83.0099C31.9446 83.0473 31.9328 83.0836 31.9126 83.1153C31.8925 83.147 31.8647 83.1731 31.8318 83.1913C31.7989 83.2094 31.762 83.2189 31.7244 83.219Z" fill="#313131"/>
<path d="M28.1338 83.827L35.6698 82.0846C35.6698 82.0846 37.6571 80.2278 39.6979 79.5988C41.7387 78.9697 43.7992 79.0948 43.8385 79.6685C43.8385 79.6685 42.8467 80.0724 44.0172 88.048C45.1877 96.0237 47.4448 96.2149 47.4448 96.2149C47.4448 96.2149 47.5306 96.5258 47.2232 96.9404C46.9158 97.355 40.595 99.2636 40.595 99.2636L40.0481 98.8383L29.1774 95.9218L28.1338 83.827Z" fill="white"/>
<path d="M40.5937 99.4848C40.5437 99.4852 40.495 99.4681 40.4561 99.4366L39.92 99.0113C39.8726 98.9748 39.8417 98.9209 39.834 98.8616C39.8263 98.8023 39.8424 98.7423 39.8789 98.695C39.9154 98.6476 39.9692 98.6166 40.0286 98.6089C40.0879 98.6012 40.1478 98.6173 40.1952 98.6538L40.6491 99.0113C43.5692 98.1284 46.7806 97.0598 47.0593 96.7953C47.1535 96.6761 47.2151 96.5344 47.238 96.3843C46.6233 96.1573 44.7844 94.8885 43.7962 88.0798C42.8687 81.7411 43.2797 80.0505 43.596 79.6055C43.5758 79.5734 43.5482 79.5464 43.5156 79.5269C43.1046 79.2374 41.6856 79.2267 39.87 79.7771C38.5376 80.2068 37.2506 80.7664 36.0278 81.448L35.8938 82.1271C35.8895 82.1571 35.8792 82.1859 35.8634 82.2118C35.8476 82.2377 35.8268 82.2601 35.8021 82.2777C35.7773 82.2953 35.7493 82.3076 35.7197 82.314C35.69 82.3204 35.6594 82.3207 35.6297 82.3149C35.5999 82.309 35.5716 82.2972 35.5466 82.2801C35.5216 82.263 35.5003 82.241 35.484 82.2154C35.4678 82.1898 35.4569 82.1612 35.4521 82.1313C35.4472 82.1013 35.4486 82.0707 35.4559 82.0413L35.6078 81.2604C35.6141 81.2292 35.6269 81.1997 35.6454 81.1738C35.6638 81.148 35.6876 81.1263 35.7151 81.1102C36.9957 80.3944 38.3445 79.8077 39.7413 79.3589C41.5373 78.8139 43.1582 78.7388 43.7729 79.1695C43.8576 79.2233 43.9282 79.2963 43.9792 79.3827C44.0301 79.469 44.0599 79.5662 44.066 79.6663C44.0678 79.7058 44.0592 79.7451 44.041 79.7803C44.0228 79.8154 43.9957 79.8451 43.9624 79.8665C43.8944 79.9415 43.1975 80.9101 44.2376 88.0244C45.3491 95.6248 47.4543 96.0001 47.4686 96.0018C47.5127 96.0076 47.5543 96.026 47.5883 96.0548C47.6222 96.0837 47.647 96.1218 47.6598 96.1645C47.6705 96.2074 47.7634 96.5951 47.4007 97.0812C47.0844 97.5083 42.5756 98.904 40.6581 99.483C40.6369 99.4871 40.6151 99.4877 40.5937 99.4848Z" fill="#313131"/>
<path d="M40.0488 99.0577C39.9877 99.0575 39.9292 99.0331 39.8861 98.9898C34.1211 92.9138 35.1147 84.1947 35.3988 82.3701L25.8416 84.5807C25.8123 84.5897 25.7814 84.5926 25.7509 84.5891C25.7205 84.5857 25.691 84.576 25.6645 84.5606C25.6379 84.5453 25.6148 84.5247 25.5965 84.5C25.5783 84.4754 25.5653 84.4472 25.5584 84.4173C25.5516 84.3874 25.5509 84.3565 25.5565 84.3263C25.5621 84.2961 25.5739 84.2675 25.591 84.2421C25.6082 84.2167 25.6304 84.1951 25.6563 84.1786C25.6822 84.1622 25.7112 84.1512 25.7415 84.1465L35.624 81.8608C35.6607 81.8527 35.6989 81.8538 35.7351 81.8641C35.7713 81.8744 35.8043 81.8936 35.8313 81.9198C35.858 81.9458 35.8777 81.978 35.8887 82.0136C35.8996 82.0493 35.9014 82.087 35.8938 82.1235C35.8742 82.2236 33.9406 92.0775 40.2114 98.6753C40.2518 98.7186 40.2735 98.7761 40.2718 98.8353C40.2702 98.8945 40.2452 98.9507 40.2024 98.9916C40.1619 99.033 40.1067 99.0568 40.0488 99.0577Z" fill="#313131"/>
<path d="M39.3725 93.668C39.3297 93.6679 39.2877 93.6555 39.2517 93.6324C39.2156 93.6093 39.1868 93.5764 39.1688 93.5375C36.8885 88.5195 37.5604 82.1236 37.5712 82.0592C37.5778 82.0002 37.6076 81.9463 37.654 81.9092C37.7004 81.8722 37.7597 81.8551 37.8187 81.8618C37.8777 81.8684 37.9316 81.8982 37.9687 81.9446C38.0057 81.991 38.0228 82.0503 38.0161 82.1093C38.0161 82.1718 37.3478 88.448 39.5762 93.3535C39.6005 93.4073 39.6024 93.4685 39.5817 93.5237C39.5609 93.579 39.5191 93.6238 39.4654 93.6483C39.4363 93.6616 39.4046 93.6683 39.3725 93.668Z" fill="#313131"/>
<path d="M44.0158 96.9084C43.9819 96.9094 43.9482 96.9026 43.9172 96.8887C43.8863 96.8748 43.8589 96.854 43.8371 96.828C40.7347 93.0269 40.565 86.2843 40.5596 86.0074C40.5591 85.978 40.5644 85.9489 40.5752 85.9216C40.586 85.8943 40.6021 85.8694 40.6225 85.8483C40.6429 85.8273 40.6673 85.8104 40.6942 85.7988C40.7211 85.7871 40.7501 85.7809 40.7794 85.7804C40.8087 85.7794 40.8379 85.7844 40.8653 85.7949C40.8927 85.8054 40.9177 85.8213 40.9388 85.8416C40.96 85.8619 40.9769 85.8862 40.9885 85.9132C41.0001 85.9401 41.0061 85.9691 41.0064 85.9984C41.0064 86.0663 41.1851 92.8661 44.1838 96.5421C44.2087 96.5753 44.2238 96.6147 44.2275 96.656C44.2313 96.6974 44.2234 96.7389 44.2049 96.776C44.1863 96.8131 44.1578 96.8443 44.1225 96.8661C44.0872 96.8879 44.0465 96.8995 44.0051 96.8995L44.0158 96.9084Z" fill="#313131"/>
<path d="M64.7161 71.9856C64.6566 71.9849 64.5996 71.9612 64.5571 71.9194C64.5155 71.8773 64.4922 71.8205 64.4922 71.7613C64.4922 71.7021 64.5155 71.6453 64.5571 71.6031L69.3911 66.8156C69.412 66.7949 69.4367 66.7786 69.4639 66.7675C69.4911 66.7564 69.5202 66.7508 69.5496 66.751C69.579 66.7511 69.608 66.7571 69.6351 66.7685C69.6622 66.7799 69.6868 66.7965 69.7074 66.8174C69.7281 66.8383 69.7444 66.863 69.7555 66.8902C69.7666 66.9174 69.7722 66.9465 69.772 66.9759C69.7719 67.0053 69.7659 67.0343 69.7545 67.0614C69.7431 67.0885 69.7265 67.113 69.7056 67.1337L64.8716 71.9194C64.8515 71.9403 64.8273 71.957 64.8006 71.9683C64.7739 71.9797 64.7452 71.9855 64.7161 71.9856Z" fill="#313131"/>
<path d="M54.6296 77.2875C54.5704 77.2875 54.5136 77.264 54.4717 77.2221C54.4298 77.1802 54.4062 77.1234 54.4062 77.0641V66.9744C54.4062 66.9151 54.4298 66.8583 54.4717 66.8164C54.5136 66.7745 54.5704 66.751 54.6296 66.751C54.6889 66.751 54.7457 66.7745 54.7876 66.8164C54.8295 66.8583 54.853 66.9151 54.853 66.9744V77.0641C54.853 77.1234 54.8295 77.1802 54.7876 77.2221C54.7457 77.264 54.6889 77.2875 54.6296 77.2875Z" fill="#313131"/>
<path d="M72.5324 70.5023C72.4893 70.5025 72.447 70.4901 72.4109 70.4666C72.3747 70.4431 72.3461 70.4096 72.3287 70.3701C71.6678 68.8055 71.0892 67.2075 70.5953 65.5825C70.5857 65.5537 70.5822 65.5232 70.5848 65.4929C70.5875 65.4627 70.5963 65.4333 70.6107 65.4065C70.6251 65.3798 70.6448 65.3562 70.6686 65.3374C70.6925 65.3185 70.7199 65.3047 70.7492 65.2968C70.7785 65.2889 70.8092 65.287 70.8392 65.2913C70.8693 65.2957 70.8982 65.3061 70.9241 65.322C70.95 65.3379 70.9724 65.3589 70.9899 65.3837C71.0074 65.4085 71.0197 65.4366 71.026 65.4664C71.514 67.0693 72.0849 68.6458 72.7362 70.1896C72.7603 70.2436 72.762 70.305 72.7409 70.3603C72.7198 70.4156 72.6776 70.4602 72.6236 70.4845C72.5947 70.4964 72.5637 70.5025 72.5324 70.5023Z" fill="#313131"/>
<path d="M74.0295 68.9584C73.9911 68.9585 73.9534 68.9486 73.9199 68.9299C73.8864 68.9111 73.8583 68.884 73.8383 68.8512C73.0877 67.6181 72.1084 64.6301 72.0655 64.5033C72.0473 64.4469 72.0522 64.3855 72.0792 64.3327C72.1062 64.2799 72.153 64.24 72.2094 64.2218C72.2658 64.2035 72.3271 64.2084 72.3799 64.2354C72.4327 64.2624 72.4726 64.3092 72.4909 64.3656C72.5016 64.396 73.497 67.4305 74.2207 68.6189C74.236 68.644 74.2462 68.6718 74.2507 68.7009C74.2552 68.7299 74.254 68.7596 74.247 68.7881C74.24 68.8167 74.2275 68.8436 74.2101 68.8673C74.1927 68.891 74.1708 68.911 74.1457 68.9262C74.1105 68.9472 74.0704 68.9583 74.0295 68.9584Z" fill="#313131"/>
<path d="M75.9598 67.0495C75.924 67.0482 75.8891 67.0383 75.858 67.0205C75.8268 67.0028 75.8005 66.9778 75.7811 66.9476C75.489 66.4901 75.2458 66.0031 75.0556 65.4947C75.0446 65.4669 75.0394 65.4372 75.0401 65.4074C75.0408 65.3775 75.0475 65.3481 75.0598 65.3209C75.0721 65.2937 75.0898 65.2692 75.1117 65.2489C75.1336 65.2286 75.1594 65.2129 75.1874 65.2028C75.2155 65.1926 75.2454 65.1882 75.2752 65.1898C75.305 65.1913 75.3342 65.1989 75.3611 65.2119C75.3879 65.225 75.4119 65.2433 75.4316 65.2658C75.4512 65.2883 75.4662 65.3145 75.4755 65.3428C75.6545 65.8183 75.882 66.2741 76.1546 66.7028C76.176 66.736 76.1883 66.7743 76.1901 66.8138C76.192 66.8533 76.1835 66.8926 76.1654 66.9277C76.1473 66.9629 76.1202 66.9926 76.087 67.014C76.0537 67.0353 76.0154 67.0476 75.9759 67.0495H75.9598Z" fill="#313131"/>
<path d="M23.751 66.0244L33.2099 82.653L31.7249 82.9961L23.751 66.0244Z" fill="#313131"/>
<path d="M54.6289 67.2861V77.0649L55.8227 76.7504L54.6289 67.2861Z" fill="#313131"/>
<path d="M35.6223 82.3779C35.6223 82.3779 34.7037 86.9332 36.0226 91.3454C36.8675 94.08 38.2349 96.6247 40.0488 98.8386L39.1874 99.2657C37.4369 97.0568 36.1826 94.4969 35.5097 91.76C34.4196 87.0582 35.6223 82.3779 35.6223 82.3779Z" fill="#313131"/>
<path d="M70.6768 65.6787L72.5317 70.2786L72.1082 70.7164L70.6768 65.6787Z" fill="#313131"/>
<path d="M80.5467 80.2363L80.225 81.2067L69.1523 86.5375L69.4115 85.6565L80.5467 80.2363Z" fill="#313131"/>
<path d="M52.9746 104.262C52.9746 104.262 53.4911 106.079 53.2659 107.057H53.7913C53.8723 106.075 53.7754 105.086 53.5054 104.139L52.9746 104.262Z" fill="#313131"/>
<path d="M134.752 83.9175C133.818 84.0564 132.921 84.3802 132.113 84.87L131.857 84.3249C131.857 84.3249 133.108 83.4314 134.64 83.376L134.752 83.9175Z" fill="#313131"/>
<path d="M125.659 69.8711L126.812 70.686C126.886 71.5435 126.852 72.4069 126.71 73.2558C126.548 74.1436 126.302 75.0141 125.977 75.856L125.659 75.7023V69.8711Z" fill="#313131"/>
</svg>
