<svg width="281" height="199" viewBox="0 0 281 199" fill="none" xmlns="http://www.w3.org/2000/svg">
<path d="M216.037 86.1083C216.037 86.1083 246.118 98.9736 250.498 107.206C255.544 116.687 247.896 188.554 227.698 192.116C207.5 195.678 141.88 198.508 141.88 198.508V189.844L129.721 181.151L139.523 157.421C139.523 157.421 118.633 173.945 109.159 149.494C99.6851 125.042 96.8369 98.7058 96.8369 98.7058L120.842 91.3883L131.93 119.61C131.93 119.61 152.459 79.4824 162.1 76.2958C170.068 73.6707 193.538 80.4194 193.538 80.4194L194.706 91.972L216.037 86.1083Z" fill="white"/>
<path d="M141.88 198.972C141.82 198.972 141.762 198.961 141.707 198.939C141.652 198.917 141.602 198.884 141.56 198.842C141.514 198.799 141.478 198.747 141.453 198.69C141.428 198.632 141.415 198.57 141.415 198.507V190.074L129.453 181.522C129.368 181.462 129.305 181.374 129.276 181.273C129.247 181.173 129.253 181.065 129.293 180.968L138.466 158.737C135.525 160.696 128.211 164.797 120.968 162.827C115.662 161.38 111.539 156.952 108.698 149.66C99.365 125.484 96.3904 99.0174 96.3904 98.7534C96.3788 98.6457 96.4051 98.5374 96.4649 98.4472C96.5246 98.3569 96.614 98.2903 96.7176 98.2589L120.719 90.9413C120.831 90.9079 120.952 90.9176 121.057 90.9685C121.162 91.0194 121.245 91.1079 121.288 91.2164L132.004 118.486C135.198 112.336 152.96 78.8309 161.97 75.8637C169.982 73.22 192.716 79.7047 193.683 79.9798C193.772 80.0057 193.851 80.0578 193.91 80.1295C193.969 80.2011 194.005 80.2889 194.014 80.3814L195.129 91.3838L215.929 85.6613C216.03 85.6313 216.139 85.6392 216.234 85.6837C217.469 86.2116 246.516 98.6976 250.922 106.986C254.718 114.121 251.502 157.208 240.585 179.596C236.789 187.378 232.483 191.747 227.79 192.573C207.782 196.098 142.571 198.942 141.898 198.972H141.88ZM130.294 180.987L142.151 189.464C142.21 189.507 142.258 189.563 142.292 189.627C142.325 189.692 142.343 189.763 142.345 189.836V198.016C148.387 197.749 208.582 195.008 227.616 191.654C232 190.881 236.075 186.687 239.734 179.187C244.459 169.501 248.312 154.379 250.327 137.706C252.045 123.357 251.952 110.905 250.1 107.421C246.01 99.7239 218.309 87.5948 216.018 86.5983L194.824 92.4212C194.759 92.4401 194.691 92.4444 194.624 92.4336C194.557 92.4228 194.493 92.3973 194.437 92.3589C194.381 92.3204 194.335 92.2701 194.301 92.2114C194.267 92.1527 194.246 92.0872 194.24 92.0196L193.103 80.7867C190.34 80.0133 169.503 74.3504 162.241 76.7412C152.908 79.8274 132.551 119.427 132.346 119.821C132.306 119.901 132.243 119.968 132.165 120.013C132.088 120.058 131.999 120.08 131.909 120.076C131.819 120.071 131.733 120.041 131.66 119.989C131.587 119.936 131.531 119.864 131.498 119.78L120.559 91.9564L97.3385 99.0211C97.7327 102.368 100.863 126.83 109.575 149.311C112.286 156.309 116.198 160.551 121.202 161.916C129.907 164.288 139.124 157.115 139.217 157.041C139.298 156.978 139.398 156.943 139.5 156.943C139.603 156.943 139.702 156.978 139.783 157.041C139.865 157.103 139.924 157.19 139.952 157.288C139.98 157.387 139.974 157.492 139.935 157.588L130.294 180.987Z" fill="#313131"/>
<path d="M182.249 72.8299V1.9893H182.182C167.819 1.01511 152.325 0.483398 136.176 0.483398C122.497 0.483398 109.289 0.855223 96.8369 1.57285H96.9187V72.4618H96.8741C109.315 71.7553 122.508 71.3723 136.176 71.3723C152.351 71.3723 167.867 71.9077 182.249 72.8819V72.8299Z" fill="white"/>
<path d="M182.249 73.3504H182.219C167.48 72.3502 151.99 71.8333 136.176 71.8333C122.82 71.8333 109.627 72.2052 96.963 72.9191H96.8961C96.773 72.9242 96.6529 72.8806 96.5618 72.7978C96.4706 72.715 96.4157 72.5996 96.409 72.4766C96.405 72.3985 96.4203 72.3206 96.4536 72.2498V1.83311C96.4032 1.76371 96.3729 1.6818 96.3658 1.59633C96.3588 1.51085 96.3754 1.42509 96.4137 1.34838C96.4521 1.27167 96.5108 1.20697 96.5834 1.16131C96.656 1.11565 96.7397 1.0908 96.8254 1.08946C109.538 0.368112 122.783 0 136.191 0C152.001 0 167.491 0.505686 182.23 1.5059H182.301C182.418 1.51437 182.526 1.56667 182.606 1.65223C182.685 1.7378 182.729 1.85027 182.729 1.96697V72.8856C182.73 72.9469 182.718 73.0078 182.695 73.0647C182.672 73.1215 182.638 73.1731 182.595 73.2165C182.551 73.2599 182.5 73.2941 182.443 73.3171C182.386 73.3401 182.325 73.3514 182.264 73.3504H182.249ZM136.176 70.9112C151.834 70.9112 167.175 71.4095 181.784 72.3985V2.42432C167.179 1.44269 151.837 0.937007 136.176 0.937007C122.969 0.937007 109.921 1.30883 97.3832 1.99671V71.9709C109.921 71.2682 122.972 70.9112 136.176 70.9112Z" fill="#313131"/>
<path d="M160.344 44.5447H160.315C153.138 44.0576 145.598 43.801 137.901 43.801C131.398 43.801 124.972 43.9795 118.811 44.329H118.778C118.657 44.3322 118.539 44.2882 118.449 44.2064C118.36 44.1246 118.306 44.0112 118.298 43.8903C118.294 43.847 118.294 43.8034 118.298 43.7601V9.52597C118.275 9.47297 118.261 9.41637 118.257 9.35866C118.252 9.23621 118.295 9.11664 118.377 9.02558C118.459 8.93453 118.574 8.87924 118.696 8.87157C124.894 8.51833 131.338 8.33984 137.89 8.33984C145.594 8.33984 153.135 8.58897 160.333 9.0835C160.454 9.08977 160.569 9.14076 160.655 9.2266C160.741 9.31244 160.792 9.42705 160.798 9.54828V44.0873C160.799 44.1507 160.786 44.2135 160.761 44.2718C160.736 44.33 160.699 44.3824 160.653 44.4257C160.568 44.5016 160.458 44.5439 160.344 44.5447ZM137.901 42.8789C145.442 42.8789 152.833 43.1169 159.88 43.5816V9.97589C152.815 9.50739 145.434 9.26941 137.901 9.26941C131.55 9.26941 125.259 9.44046 119.239 9.77138V43.3809C125.277 43.0499 131.55 42.8789 137.905 42.8789H137.901Z" fill="#313131"/>
<path d="M118.737 43.2729L134.19 19.6953L142.802 34.0479L150.9 27.1765L160.349 44.0798L118.737 43.2729Z" fill="#00FFC2"/>
<path d="M160.344 44.5447C160.262 44.5442 160.181 44.522 160.11 44.4802C160.038 44.4384 159.98 44.3786 159.939 44.3067L150.766 27.898L143.099 34.4012C143.048 34.4444 142.989 34.4761 142.924 34.4941C142.86 34.5121 142.793 34.5159 142.727 34.5053C142.661 34.4938 142.597 34.4682 142.542 34.4304C142.486 34.3926 142.439 34.3434 142.404 34.286L134.175 20.5693L119.127 43.5259C119.095 43.5788 119.052 43.6246 119.001 43.6607C118.95 43.6968 118.893 43.7223 118.833 43.7358C118.772 43.7493 118.709 43.7506 118.648 43.7394C118.587 43.7283 118.529 43.705 118.477 43.6709C118.425 43.6368 118.38 43.5927 118.345 43.5411C118.311 43.4895 118.287 43.4314 118.275 43.3704C118.263 43.3094 118.264 43.2467 118.277 43.1859C118.29 43.1251 118.315 43.0675 118.35 43.0165L133.803 19.4426C133.845 19.3757 133.904 19.3209 133.974 19.2837C134.044 19.2466 134.122 19.2283 134.201 19.2307C134.28 19.2329 134.357 19.2548 134.425 19.2944C134.493 19.334 134.55 19.3901 134.591 19.4575L142.92 33.3378L150.599 26.842C150.651 26.7982 150.713 26.7664 150.779 26.7488C150.845 26.7313 150.914 26.7285 150.981 26.7405C151.049 26.7526 151.113 26.7792 151.168 26.8186C151.224 26.8579 151.271 26.9091 151.305 26.9684L160.753 43.8717C160.783 43.9248 160.803 43.9834 160.81 44.0441C160.818 44.1047 160.813 44.1663 160.796 44.2251C160.78 44.2839 160.752 44.3388 160.714 44.3867C160.675 44.4345 160.628 44.4743 160.575 44.5038C160.503 44.5375 160.423 44.5516 160.344 44.5447Z" fill="#313131"/>
<path d="M144.955 22.7711C146.653 22.7711 148.03 21.3944 148.03 19.6961C148.03 17.9978 146.653 16.6211 144.955 16.6211C143.257 16.6211 141.88 17.9978 141.88 19.6961C141.88 21.3944 143.257 22.7711 144.955 22.7711Z" fill="#7B40AA"/>
<path d="M144.955 23.2358C144.255 23.2358 143.57 23.0282 142.988 22.6393C142.406 22.2503 141.952 21.6975 141.684 21.0507C141.417 20.4039 141.346 19.6921 141.483 19.0055C141.62 18.3188 141.957 17.6881 142.452 17.193C142.947 16.698 143.578 16.3609 144.264 16.2243C144.951 16.0877 145.663 16.1578 146.309 16.4257C146.956 16.6936 147.509 17.1473 147.898 17.7294C148.287 18.3116 148.495 18.9959 148.495 19.696C148.494 20.6346 148.12 21.5343 147.457 22.198C146.793 22.8616 145.893 23.2349 144.955 23.2358ZM144.955 17.0858C144.44 17.0858 143.937 17.2385 143.509 17.5245C143.081 17.8105 142.747 18.217 142.55 18.6926C142.353 19.1682 142.302 19.6915 142.402 20.1964C142.502 20.7013 142.75 21.1651 143.114 21.5291C143.478 21.8931 143.942 22.141 144.447 22.2414C144.952 22.3418 145.475 22.2903 145.951 22.0933C146.426 21.8963 146.833 21.5627 147.119 21.1346C147.405 20.7066 147.558 20.2034 147.558 19.6886C147.558 18.9983 147.283 18.3363 146.795 17.8482C146.307 17.36 145.645 17.0858 144.955 17.0858Z" fill="#313131"/>
<path d="M107.605 51.3083C107.482 51.3113 107.362 51.2651 107.273 51.1801C107.184 51.095 107.132 50.9779 107.129 50.8547C107.126 50.7314 107.172 50.612 107.257 50.5228C107.342 50.4335 107.459 50.3817 107.583 50.3787C107.802 50.3787 129.844 49.2893 171.429 50.3787C171.49 50.3802 171.55 50.3936 171.606 50.4183C171.662 50.4431 171.712 50.4785 171.755 50.5227C171.797 50.5669 171.83 50.619 171.852 50.6759C171.874 50.7329 171.884 50.7936 171.883 50.8547C171.882 50.916 171.87 50.9766 171.845 51.0329C171.821 51.0892 171.785 51.1401 171.741 51.1824C171.697 51.2247 171.644 51.2577 171.587 51.2793C171.529 51.3009 171.468 51.3108 171.407 51.3083C129.859 50.2226 107.847 51.3083 107.631 51.3083H107.605Z" fill="#313131"/>
<path d="M107.638 57.9606C107.515 57.9636 107.396 57.9175 107.306 57.8324C107.217 57.7473 107.165 57.6303 107.162 57.507C107.159 57.3837 107.205 57.2644 107.29 57.1751C107.376 57.0858 107.493 57.034 107.616 57.0311C107.832 57.0311 129.877 55.9416 171.462 57.0311C171.523 57.0325 171.583 57.046 171.639 57.0708C171.695 57.0955 171.745 57.131 171.787 57.1753C171.828 57.2195 171.861 57.2716 171.883 57.3286C171.904 57.3855 171.914 57.4462 171.912 57.507C171.912 57.5685 171.9 57.6294 171.876 57.6859C171.852 57.7425 171.816 57.7935 171.772 57.8359C171.727 57.8784 171.674 57.9113 171.617 57.9327C171.559 57.9542 171.498 57.9637 171.436 57.9606C129.892 56.8712 107.88 57.9606 107.66 57.9606H107.638Z" fill="#313131"/>
<path d="M107.638 64.6091C107.515 64.612 107.396 64.5659 107.306 64.4808C107.217 64.3958 107.165 64.2787 107.162 64.1555C107.159 64.0322 107.205 63.9128 107.29 63.8235C107.376 63.7343 107.493 63.6825 107.616 63.6795C107.832 63.6795 129.877 62.5901 171.462 63.6795C171.523 63.681 171.583 63.6944 171.639 63.7192C171.695 63.7439 171.745 63.7795 171.787 63.8237C171.828 63.868 171.861 63.9201 171.883 63.977C171.904 64.0339 171.914 64.0946 171.912 64.1555C171.913 64.2171 171.901 64.2782 171.877 64.335C171.853 64.3918 171.817 64.4431 171.773 64.4856C171.728 64.5281 171.675 64.5611 171.617 64.5823C171.56 64.6035 171.498 64.6127 171.436 64.6091C129.892 63.5233 107.88 64.6091 107.66 64.6091H107.638Z" fill="#313131"/>
<path d="M0.514648 96.8913C0.514648 87.2908 28.7066 78.9284 70.3736 74.5817H70.3364V3.68164H70.2249C28.6397 8.03946 0.514648 16.3944 0.514648 25.9913V96.8913Z" fill="white"/>
<path d="M0.514589 97.356C0.39132 97.356 0.273099 97.307 0.185935 97.2198C0.0987711 97.1327 0.0498047 97.0144 0.0498047 96.8912V25.9948C0.0498047 16.3273 26.2636 7.83478 70.1765 3.23155H70.2917C70.3584 3.22274 70.4261 3.22848 70.4903 3.24838C70.5545 3.26828 70.6136 3.30186 70.6636 3.34682C70.7114 3.39085 70.7496 3.4443 70.7759 3.5038C70.8021 3.56331 70.8158 3.62759 70.816 3.69262V74.3993C70.8345 74.4392 70.8459 74.482 70.8495 74.5257C70.862 74.648 70.8256 74.7702 70.7482 74.8656C70.6709 74.9611 70.5589 75.022 70.4367 75.0351C49.6665 77.2029 32.2166 80.3746 19.976 84.2044C7.56072 88.09 1.01284 92.4739 1.01284 96.8875C1.01352 96.9517 1.00086 97.0154 0.975668 97.0746C0.950475 97.1337 0.913292 97.187 0.866468 97.231C0.819644 97.275 0.764198 97.3088 0.703632 97.3304C0.643065 97.3519 0.578695 97.3606 0.514589 97.356ZM69.8716 4.19831C49.3169 6.36978 32.0641 9.52287 19.9128 13.3267C7.52354 17.2085 0.979373 21.5887 0.979373 25.9948V93.7715C5.98045 85.45 30.9338 78.2663 69.8716 74.1651V4.19831Z" fill="#313131"/>
<path d="M5.62402 76.2694C5.62402 70.3536 18.7049 65.2038 38.0362 62.5118L37.9842 18.2383C18.69 20.9229 5.63518 26.6713 5.63518 32.5797L5.62402 76.2694Z" fill="#7B40AA"/>
<path d="M5.623 76.7338C5.56183 76.7343 5.50117 76.7226 5.44455 76.6994C5.38794 76.6762 5.3365 76.642 5.29325 76.5988C5.24999 76.5555 5.21577 76.5041 5.19259 76.4474C5.16941 76.3908 5.15772 76.3302 5.15822 76.269V32.5904C5.15822 26.366 18.0123 20.5581 37.9051 17.788C37.9708 17.7796 38.0375 17.7852 38.1009 17.8045C38.1643 17.8237 38.2228 17.8562 38.2727 17.8998C38.3226 17.9434 38.3627 17.997 38.3903 18.0572C38.418 18.1174 38.4325 18.1828 38.4331 18.249L38.4851 62.3961V62.4519C38.5022 62.5741 38.4703 62.698 38.3965 62.7969C38.3227 62.8957 38.213 62.9615 38.091 62.9799C18.6444 65.6794 6.08035 70.8924 6.08035 76.269C6.08037 76.391 6.03242 76.5081 5.94686 76.595C5.8613 76.682 5.74498 76.7318 5.623 76.7338ZM37.5035 18.7845C18.979 21.4356 6.08779 27.0874 6.08779 32.5904V73.4245C9.27807 68.6205 20.5333 64.5192 37.5555 62.1172L37.5035 18.7845Z" fill="#313131"/>
<path d="M0.514648 96.8905C0.514648 101.219 6.24823 105.297 16.3657 108.867H16.3247V37.9558L16.44 37.9967C6.27425 34.4197 0.514648 30.3334 0.514648 25.9941V96.8905Z" fill="white"/>
<path d="M16.3656 109.332C16.3124 109.332 16.2596 109.323 16.2094 109.306C5.48592 105.521 0.0498047 101.345 0.0498047 96.8904V25.9941C0.0498047 25.8708 0.0987711 25.7526 0.185935 25.6654C0.273099 25.5783 0.391321 25.5293 0.514589 25.5293C0.637857 25.5293 0.756076 25.5783 0.84324 25.6654C0.930404 25.7526 0.979373 25.8708 0.979373 25.9941C0.979373 29.9466 6.32997 33.9252 16.4511 37.5207H16.4809L16.5961 37.5616C16.7118 37.6029 16.8064 37.6882 16.8593 37.799C16.9123 37.9097 16.9192 38.037 16.8787 38.1528C16.858 38.2084 16.8278 38.26 16.7895 38.3053V108.681C16.8325 108.792 16.8325 108.916 16.7895 109.027C16.7579 109.115 16.7005 109.191 16.6249 109.245C16.5492 109.3 16.4588 109.33 16.3656 109.332ZM0.979373 29.136V96.8904C0.979373 100.765 6.12174 104.665 15.8525 108.194V38.2904C7.89536 35.4385 2.92031 32.3746 0.979373 29.136Z" fill="#313131"/>
<path d="M46.4804 61.5518C46.3575 61.5509 46.2398 61.5016 46.1528 61.4146C46.0659 61.3277 46.0166 61.21 46.0156 61.087V46.4036C46.0148 46.2904 46.0556 46.1808 46.1304 46.0958C46.2051 46.0108 46.3086 45.9562 46.4209 45.9425L66.0237 43.3137C66.09 43.3049 66.1575 43.3103 66.2216 43.3295C66.2857 43.3487 66.345 43.3814 66.3955 43.4252C66.4448 43.4691 66.4843 43.5229 66.5112 43.5832C66.5382 43.6434 66.5519 43.7088 66.5517 43.7748V58.395C66.551 58.5072 66.5101 58.6155 66.4365 58.7001C66.3628 58.7847 66.2612 58.8401 66.1501 58.8561L46.5473 61.5444L46.4804 61.5518ZM46.9378 46.8089V60.5665L65.6109 58.0046V44.3176L46.9378 46.8089Z" fill="#313131"/>
<path d="M55.9097 57.6375C55.8437 57.6378 55.7784 57.624 55.7181 57.597C55.6579 57.5701 55.604 57.5307 55.5602 57.4813L51.1317 52.4988C51.0603 52.4054 51.0269 52.2883 51.0383 52.1712C51.0498 52.0541 51.1052 51.9458 51.1934 51.8679C51.2816 51.7901 51.3961 51.7486 51.5137 51.7518C51.6312 51.7551 51.7432 51.8028 51.8271 51.8853L55.7982 56.3658L60.0333 47.8138C60.088 47.7028 60.1846 47.6182 60.3017 47.5784C60.4189 47.5387 60.547 47.5471 60.658 47.6018C60.7689 47.6566 60.8536 47.7531 60.8933 47.8703C60.933 47.9874 60.9246 48.1156 60.8699 48.2265L56.3262 57.3883C56.2904 57.4583 56.2376 57.5181 56.1726 57.5623C56.1076 57.6065 56.0326 57.6336 55.9543 57.6412L55.9097 57.6375Z" fill="#313131"/>
<path d="M43.4789 20.3685C43.3656 20.3691 43.256 20.3283 43.1707 20.2537C43.0854 20.1792 43.0302 20.076 43.0156 19.9637C43.001 19.8514 43.0279 19.7375 43.0913 19.6436C43.1547 19.5498 43.2502 19.4823 43.3599 19.4538C50.2925 17.7868 57.3336 16.6089 64.4313 15.9289C64.4921 15.923 64.5535 15.9292 64.6119 15.9471C64.6703 15.9649 64.7246 15.9941 64.7718 16.0329C64.8189 16.0718 64.8579 16.1195 64.8866 16.1735C64.9153 16.2274 64.933 16.2864 64.9389 16.3472C64.9448 16.408 64.9386 16.4694 64.9207 16.5278C64.9029 16.5862 64.8737 16.6405 64.8349 16.6876C64.796 16.7347 64.7483 16.7738 64.6943 16.8024C64.6404 16.8311 64.5814 16.8489 64.5206 16.8548C57.4705 17.5294 50.4766 18.6985 43.5904 20.3536C43.554 20.3632 43.5165 20.3682 43.4789 20.3685Z" fill="#313131"/>
<path d="M43.4789 28.2142C43.3656 28.2148 43.256 28.174 43.1707 28.0994C43.0854 28.0249 43.0302 27.9217 43.0156 27.8094C43.001 27.6971 43.0279 27.5832 43.0913 27.4894C43.1547 27.3955 43.2502 27.328 43.3599 27.2995C50.2925 25.6325 57.3336 24.4546 64.4313 23.7746C64.5541 23.7628 64.6766 23.8002 64.7718 23.8786C64.8669 23.9571 64.9271 24.0701 64.9389 24.1929C64.9507 24.3157 64.9133 24.4381 64.8349 24.5333C64.7564 24.6285 64.6434 24.6886 64.5206 24.7005C57.4705 25.3751 50.4766 26.5442 43.5904 28.1994C43.554 28.2089 43.5165 28.2139 43.4789 28.2142Z" fill="#313131"/>
<path d="M43.4789 36.1791C43.3656 36.1796 43.256 36.1388 43.1707 36.0643C43.0854 35.9897 43.0302 35.8866 43.0156 35.7742C43.001 35.6619 43.0279 35.5481 43.0913 35.4542C43.1547 35.3603 43.2502 35.2928 43.3599 35.2644C50.292 33.5952 57.3334 32.4173 64.4313 31.7395C64.4921 31.7336 64.5535 31.7398 64.6119 31.7576C64.6703 31.7755 64.7246 31.8046 64.7718 31.8435C64.8189 31.8823 64.8579 31.9301 64.8866 31.984C64.9153 32.0379 64.933 32.097 64.9389 32.1578C64.9448 32.2185 64.9386 32.2799 64.9207 32.3383C64.9029 32.3967 64.8737 32.451 64.8349 32.4982C64.796 32.5453 64.7483 32.5843 64.6943 32.613C64.6404 32.6417 64.5814 32.6594 64.5206 32.6653C57.4702 33.3377 50.4761 34.5069 43.5904 36.1642C43.5537 36.1722 43.5164 36.1771 43.4789 36.1791Z" fill="#313131"/>
<path d="M280.463 96.8913C280.463 87.2908 252.271 78.9284 210.604 74.5817H210.638V3.68164H210.75C252.335 8.03946 280.463 16.3944 280.463 25.9913V96.8913Z" fill="white"/>
<path d="M280.464 97.3559C280.341 97.3559 280.223 97.3069 280.135 97.2197C280.048 97.1326 279.999 97.0143 279.999 96.8911C279.999 92.4775 273.436 88.0936 261.036 84.208C248.792 80.3856 231.364 77.214 210.605 75.0425H210.542C210.424 75.0224 210.318 74.9591 210.244 74.8649C210.171 74.7706 210.135 74.6523 210.144 74.5331C210.144 74.5071 210.144 74.481 210.144 74.4587V3.68136C210.144 3.61635 210.158 3.55209 210.185 3.49275C210.211 3.4334 210.25 3.38029 210.298 3.33684C210.346 3.29338 210.403 3.26056 210.465 3.24049C210.527 3.22041 210.592 3.21353 210.657 3.22029H210.769C254.681 7.82352 280.899 16.3309 280.899 25.9836V96.8911C280.899 97.0094 280.854 97.1233 280.774 97.2096C280.693 97.296 280.582 97.3483 280.464 97.3559ZM211.103 74.1613C250.041 78.2514 274.994 85.4462 279.999 93.7677V25.9947C279.999 21.5886 273.451 17.2084 261.062 13.3266C248.929 9.52277 231.662 6.36967 211.103 4.1982V74.1613Z" fill="#313131"/>
<path d="M280.464 97.3559C280.341 97.3559 280.223 97.3069 280.135 97.2197C280.048 97.1326 279.999 97.0143 279.999 96.8911C279.999 92.4775 273.436 88.0936 261.036 84.208C248.792 80.3856 231.364 77.214 210.605 75.0425H210.542C210.424 75.0224 210.318 74.9591 210.244 74.8649C210.171 74.7706 210.135 74.6523 210.144 74.5331C210.144 74.5071 210.144 74.481 210.144 74.4587V3.68136C210.144 3.61635 210.158 3.55209 210.185 3.49275C210.211 3.4334 210.25 3.38029 210.298 3.33684C210.346 3.29338 210.403 3.26056 210.465 3.24049C210.527 3.22041 210.592 3.21353 210.657 3.22029H210.769C254.681 7.82352 280.899 16.3309 280.899 25.9836V96.8911C280.899 97.0094 280.854 97.1233 280.774 97.2096C280.693 97.296 280.582 97.3483 280.464 97.3559ZM211.103 74.1613C250.041 78.2514 274.994 85.4462 279.999 93.7677V25.9947C279.999 21.5886 273.451 17.2084 261.062 13.3266C248.929 9.52277 231.662 6.36967 211.103 4.1982V74.1613Z" fill="#313131"/>
<path d="M280.464 97.3559C280.341 97.3559 280.223 97.3069 280.135 97.2197C280.048 97.1326 279.999 97.0143 279.999 96.8911C279.999 92.4775 273.436 88.0936 261.036 84.208C248.792 80.3856 231.364 77.214 210.605 75.0425H210.542C210.424 75.0224 210.318 74.9591 210.244 74.8649C210.171 74.7706 210.135 74.6523 210.144 74.5331C210.144 74.5071 210.144 74.481 210.144 74.4587V3.68136C210.144 3.61635 210.158 3.55209 210.185 3.49275C210.211 3.4334 210.25 3.38029 210.298 3.33684C210.346 3.29338 210.403 3.26056 210.465 3.24049C210.527 3.22041 210.592 3.21353 210.657 3.22029H210.769C254.681 7.82352 280.899 16.3309 280.899 25.9836V96.8911C280.899 97.0094 280.854 97.1233 280.774 97.2096C280.693 97.296 280.582 97.3483 280.464 97.3559ZM211.103 74.1613C250.041 78.2514 274.994 85.4462 279.999 93.7677V25.9947C279.999 21.5886 273.451 17.2084 261.062 13.3266C248.929 9.52277 231.662 6.36967 211.103 4.1982V74.1613Z" fill="#313131"/>
<path d="M280.464 91.3878C280.464 84.2041 270.093 77.9426 254.767 74.6853V21.6367H254.807C270.104 24.8976 280.464 31.1518 280.464 38.3281V91.3878Z" fill="#00FFC2"/>
<path d="M280.463 91.8525C280.34 91.8525 280.222 91.8035 280.135 91.7163C280.047 91.6292 279.998 91.5109 279.998 91.3877C279.998 84.6948 270.305 78.4704 254.714 75.1463H254.692C254.573 75.1227 254.468 75.0543 254.399 74.9552C254.33 74.8561 254.301 74.734 254.32 74.6146V21.6366C254.318 21.5656 254.332 21.4951 254.362 21.4306C254.392 21.3661 254.436 21.3094 254.491 21.2647C254.545 21.2211 254.608 21.1898 254.676 21.1731C254.743 21.1564 254.813 21.1547 254.882 21.1681H254.922C270.967 24.5889 280.95 31.1591 280.95 38.313V91.3877C280.95 91.4506 280.938 91.513 280.913 91.5709C280.888 91.6288 280.852 91.681 280.806 91.7245C280.761 91.7679 280.707 91.8017 280.648 91.8237C280.589 91.8457 280.526 91.8555 280.463 91.8525ZM255.242 74.3134C268.256 77.1355 277.202 82.0362 279.998 87.6285V38.3242C279.998 31.7094 270.528 25.5519 255.242 22.2017V74.3134Z" fill="#313131"/>
<path d="M280.463 96.8905C280.463 101.219 274.73 105.297 264.612 108.867H264.653V37.9558L264.538 37.9967C274.7 34.4197 280.463 30.3334 280.463 25.9941V96.8905Z" fill="white"/>
<path d="M264.612 109.332C264.517 109.333 264.424 109.304 264.346 109.249C264.268 109.194 264.209 109.117 264.177 109.027C264.154 108.972 264.142 108.913 264.142 108.854C264.142 108.795 264.154 108.736 264.177 108.681V38.3053C264.138 38.2609 264.107 38.2091 264.088 38.1528C264.047 38.0374 264.054 37.9106 264.106 37.7999C264.158 37.6892 264.252 37.6036 264.367 37.5616L264.486 37.5207H264.512C274.637 33.9363 279.987 29.9578 279.987 25.9941C279.987 25.8708 280.036 25.7526 280.123 25.6654C280.211 25.5783 280.329 25.5293 280.452 25.5293C280.575 25.5293 280.694 25.5783 280.781 25.6654C280.868 25.7526 280.917 25.8708 280.917 25.9941V96.8904C280.917 101.352 275.481 105.521 264.757 109.306C264.711 109.322 264.662 109.331 264.612 109.332ZM265.118 38.2867V108.19C274.856 104.662 279.991 100.754 279.991 96.8867V29.136C278.054 32.3746 273.075 35.4385 265.118 38.2867Z" fill="#313131"/>
<path d="M250.219 22.09C250.176 22.089 250.133 22.0828 250.092 22.0714C233.419 17.338 215.884 15.7764 215.702 15.7503C215.58 15.7377 215.469 15.6779 215.391 15.5837C215.314 15.4896 215.276 15.3687 215.287 15.2471C215.298 15.1256 215.356 15.0131 215.449 14.934C215.542 14.855 215.662 14.8156 215.784 14.8245C215.958 14.8245 233.587 16.4122 250.345 21.1678C250.455 21.1963 250.551 21.2644 250.615 21.3591C250.678 21.4538 250.705 21.5686 250.689 21.6815C250.674 21.7944 250.617 21.8977 250.53 21.9716C250.444 22.0456 250.333 22.0851 250.219 22.0825V22.09Z" fill="#313131"/>
<path d="M250.219 30.6085C250.176 30.6097 250.133 30.6034 250.092 30.5899C233.419 25.8603 215.884 24.2949 215.702 24.2689C215.58 24.2562 215.469 24.1964 215.391 24.1023C215.314 24.0081 215.276 23.8872 215.287 23.7657C215.298 23.6441 215.356 23.5317 215.449 23.4526C215.542 23.3735 215.662 23.3342 215.784 23.343C215.958 23.343 233.587 24.927 250.345 29.6864C250.452 29.7176 250.544 29.7863 250.605 29.88C250.666 29.9736 250.691 30.086 250.675 30.1965C250.66 30.307 250.605 30.4083 250.522 30.4819C250.438 30.5555 250.33 30.5965 250.219 30.5974V30.6085Z" fill="#313131"/>
<path d="M250.219 39.1124C250.177 39.1176 250.134 39.1176 250.092 39.1124C233.419 34.379 215.884 32.8136 215.702 32.7913C215.58 32.7787 215.469 32.7189 215.391 32.6247C215.314 32.5306 215.276 32.4097 215.287 32.2881C215.298 32.1666 215.356 32.0541 215.449 31.9751C215.542 31.896 215.662 31.8566 215.784 31.8655C215.958 31.8655 233.587 33.4532 250.345 38.2089C250.452 38.2401 250.544 38.3088 250.605 38.4025C250.666 38.4961 250.691 38.6084 250.675 38.719C250.66 38.8295 250.605 38.9308 250.522 39.0044C250.438 39.078 250.33 39.1189 250.219 39.1198V39.1124Z" fill="#313131"/>
<path d="M250.219 47.6645C250.177 47.6697 250.134 47.6697 250.092 47.6645C233.42 42.9312 215.884 41.3695 215.702 41.3435C215.579 41.3326 215.465 41.2733 215.385 41.1784C215.306 41.0836 215.267 40.9611 215.278 40.8378C215.289 40.7145 215.348 40.6006 215.443 40.5211C215.538 40.4416 215.661 40.4031 215.784 40.4139C215.959 40.4325 233.587 42.0016 250.345 46.761C250.452 46.7922 250.545 46.8609 250.605 46.9546C250.666 47.0483 250.691 47.1606 250.676 47.2711C250.66 47.3816 250.606 47.4829 250.522 47.5565C250.438 47.6301 250.33 47.6711 250.219 47.672V47.6645Z" fill="#313131"/>
<path d="M250.498 56.1684C250.455 56.1695 250.412 56.1633 250.371 56.1498C233.698 51.4202 216.163 49.8548 215.981 49.8287C215.919 49.8243 215.859 49.8076 215.804 49.7797C215.749 49.7519 215.701 49.7133 215.661 49.6664C215.621 49.6194 215.59 49.565 215.572 49.5063C215.553 49.4475 215.546 49.3857 215.552 49.3243C215.557 49.2629 215.575 49.2032 215.603 49.1486C215.632 49.0941 215.671 49.0458 215.719 49.0066C215.766 48.9674 215.821 48.938 215.88 48.9202C215.939 48.9024 216.001 48.8965 216.063 48.9029C216.237 48.9029 233.866 50.4869 250.624 55.2463C250.731 55.2775 250.823 55.3462 250.884 55.4399C250.945 55.5335 250.97 55.6459 250.954 55.7564C250.939 55.8669 250.884 55.9682 250.801 56.0418C250.717 56.1154 250.609 56.1564 250.498 56.1572V56.1684Z" fill="#313131"/>
<path d="M250.219 64.6906C250.176 64.6896 250.133 64.6833 250.092 64.672C233.419 59.9386 215.884 58.3732 215.702 58.3509C215.58 58.3383 215.469 58.2784 215.391 58.1843C215.314 58.0902 215.276 57.9693 215.287 57.8477C215.298 57.7262 215.356 57.6137 215.449 57.5346C215.542 57.4556 215.662 57.4162 215.784 57.4251C215.958 57.4251 233.587 59.0128 250.345 63.7684C250.455 63.7969 250.551 63.865 250.615 63.9597C250.678 64.0544 250.705 64.1692 250.689 64.2821C250.674 64.395 250.617 64.4983 250.53 64.5722C250.444 64.6462 250.333 64.6856 250.219 64.6831V64.6906Z" fill="#313131"/>
<path d="M250.219 73.2091C250.176 73.2081 250.133 73.2019 250.092 73.1905C233.419 68.4572 215.884 66.8955 215.702 66.8695C215.58 66.8568 215.469 66.797 215.391 66.7029C215.314 66.6087 215.276 66.4878 215.287 66.3663C215.298 66.2447 215.356 66.1323 215.449 66.0532C215.542 65.9741 215.662 65.9348 215.784 65.9436C215.958 65.9436 233.587 67.5276 250.345 72.287C250.452 72.3182 250.544 72.3869 250.605 72.4806C250.666 72.5742 250.691 72.6866 250.675 72.7971C250.66 72.9076 250.605 73.0089 250.522 73.0825C250.438 73.1561 250.33 73.1971 250.219 73.198V73.2091Z" fill="#313131"/>
<path d="M198.97 54.0827C200.862 54.0827 202.395 51.7421 202.395 48.8548C202.395 45.9676 200.862 43.627 198.97 43.627C197.079 43.627 195.546 45.9676 195.546 48.8548C195.546 51.7421 197.079 54.0827 198.97 54.0827Z" fill="white"/>
<path d="M198.974 54.5437C196.829 54.5437 195.085 51.993 195.081 48.8548C195.081 45.7166 196.825 43.1621 198.97 43.1621C201.116 43.1621 202.86 45.7166 202.86 48.8511C202.886 50.2446 202.511 51.6163 201.781 52.8036C201.038 53.9191 200.049 54.5437 198.974 54.5437ZM195.999 48.8548C195.999 51.4353 197.357 53.6142 198.974 53.6142C199.718 53.6142 200.461 53.1457 201.004 52.2942C201.636 51.2602 201.958 50.0663 201.93 48.8548C201.93 46.2706 200.573 44.0917 198.956 44.0917C197.353 44.0917 195.981 46.2743 195.981 48.8548H195.999Z" fill="#313131"/>
<path d="M193.538 80.4261L194.706 91.9788L216.037 86.1076L224.638 57.0047L202.001 50.665L193.538 80.4261Z" fill="white"/>
<path d="M194.705 92.444C194.611 92.4432 194.519 92.4147 194.441 92.3622C194.386 92.3237 194.339 92.2734 194.305 92.2149C194.271 92.1565 194.25 92.0912 194.244 92.0238L193.065 80.4748C193.052 80.4173 193.052 80.3576 193.065 80.3001L201.528 50.5539C201.562 50.4357 201.641 50.3357 201.749 50.2758C201.856 50.2159 201.983 50.2009 202.101 50.2341L224.738 56.5738C224.797 56.5896 224.853 56.6172 224.901 56.655C224.95 56.6929 224.99 56.7401 225.02 56.7939C225.05 56.8477 225.069 56.907 225.075 56.9682C225.082 57.0294 225.076 57.0913 225.057 57.1501L216.491 86.2419C216.468 86.3176 216.426 86.3863 216.37 86.4415C216.313 86.4968 216.243 86.5368 216.167 86.5579L194.835 92.4254C194.793 92.4377 194.749 92.4439 194.705 92.444ZM194.01 80.4711L195.125 91.3843L215.676 85.7288L224.057 57.3323L202.324 51.238L194.01 80.4711Z" fill="#313131"/>
<path d="M197.379 67.1786C197.379 67.1786 201.878 64.784 209.817 67.1786C214.197 68.5023 209.668 58.1989 209.668 58.1989L200.603 55.6631L197.379 67.1786Z" fill="#313131"/>
<path d="M210.512 67.762C210.23 67.7574 209.951 67.711 209.683 67.6244C202.049 65.319 197.639 67.5649 197.595 67.5872C197.515 67.6308 197.423 67.6495 197.333 67.6409C197.242 67.6323 197.156 67.5968 197.085 67.5389C197.015 67.4814 196.963 67.4047 196.936 67.3181C196.909 67.2316 196.908 67.139 196.933 67.0518L200.157 55.5251C200.173 55.4663 200.201 55.4112 200.238 55.3631C200.276 55.315 200.323 55.2747 200.376 55.2447C200.429 55.2146 200.488 55.1954 200.548 55.188C200.609 55.1806 200.67 55.1852 200.729 55.2016L209.798 57.7561C209.864 57.7747 209.926 57.8077 209.978 57.8526C210.03 57.8976 210.071 57.9535 210.099 58.0164C210.642 59.2508 213.267 65.4938 211.694 67.2711C211.546 67.4358 211.363 67.5654 211.159 67.6503C210.954 67.7352 210.733 67.7733 210.512 67.762ZM203.042 65.6425C205.386 65.666 207.714 66.0343 209.951 66.7357C210.456 66.8882 210.806 66.8621 210.992 66.6539C211.839 65.6946 210.553 61.4483 209.33 58.5927L200.926 56.239L198.082 66.3899C199.683 65.8707 201.359 65.6183 203.042 65.6425Z" fill="#313131"/>
<path d="M199.066 44.5336L197.527 51.4533C197.16 53.0756 197.116 54.7543 197.399 56.3934C197.681 58.0325 198.285 59.5997 199.174 61.0052C200.064 62.4107 201.222 63.6269 202.582 64.584C203.942 65.5412 205.478 66.2205 207.101 66.583L209.373 67.0961C210.996 67.4608 212.674 67.5023 214.312 67.2183C215.951 66.9343 217.517 66.3303 218.922 65.4409C220.327 64.5514 221.543 63.3939 222.501 62.0345C223.458 60.675 224.139 59.1403 224.503 57.5178L226.061 50.5944C226.838 47.1322 226.208 43.5032 224.31 40.5052C222.412 37.5071 219.401 35.3852 215.94 34.6058L215.066 34.4088C213.351 34.0227 211.576 33.9783 209.843 34.2782C208.111 34.5781 206.454 35.2164 204.969 36.1566C203.483 37.0968 202.197 38.3206 201.184 39.7579C200.171 41.1953 199.452 42.8181 199.066 44.5336Z" fill="white"/>
<path d="M212.003 67.8329C211.017 67.8333 210.034 67.7236 209.073 67.5057L207.173 67.0781C205.467 66.6952 203.852 65.98 202.423 64.9731C200.993 63.9662 199.775 62.6874 198.84 61.2099C197.904 59.7323 197.269 58.0849 196.971 56.3618C196.672 54.6387 196.716 52.8737 197.1 51.1676L198.613 44.4301C199.418 40.8486 201.613 37.7336 204.715 35.77C207.816 33.8065 211.571 33.1552 215.152 33.9594L216.03 34.1565C219.609 34.966 222.722 37.1621 224.685 40.2632C226.648 43.3643 227.301 47.1173 226.5 50.6991L224.987 57.4329C224.285 60.5527 222.485 63.3161 219.915 65.2189C219.816 65.2825 219.697 65.3062 219.581 65.2852C219.465 65.2642 219.362 65.2 219.291 65.1056C219.221 65.0112 219.189 64.8936 219.202 64.7766C219.215 64.6597 219.272 64.552 219.361 64.4753C221.753 62.7057 223.428 60.1347 224.08 57.2321L225.593 50.4983C226.34 47.157 225.731 43.656 223.9 40.7631C222.069 37.8703 219.165 35.822 215.825 35.0674L214.951 34.8704C213.297 34.4985 211.585 34.4562 209.914 34.7459C208.243 35.0355 206.646 35.6514 205.213 36.5585C203.78 37.4655 202.54 38.6459 201.563 40.0322C200.587 41.4186 199.892 42.9837 199.521 44.6383L198.007 51.3832C197.65 52.9704 197.61 54.6124 197.887 56.2154C198.165 57.8184 198.756 59.3509 199.626 60.7255C200.496 62.1001 201.628 63.2898 202.958 64.2267C204.288 65.1636 205.79 65.8292 207.377 66.1857L209.277 66.6096C211.515 67.115 213.85 66.9863 216.019 66.2377C216.077 66.2152 216.139 66.2045 216.201 66.2065C216.264 66.2084 216.325 66.223 216.382 66.2492C216.439 66.2754 216.489 66.3127 216.531 66.359C216.573 66.4053 216.605 66.4595 216.626 66.5185C216.646 66.5775 216.655 66.64 216.651 66.7023C216.646 66.7646 216.63 66.8254 216.601 66.8811C216.573 66.9368 216.534 66.9862 216.486 67.0264C216.439 67.0667 216.383 67.0969 216.324 67.1152C214.933 67.5933 213.473 67.8358 212.003 67.8329Z" fill="#313131"/>
<path d="M199.066 44.5334C199.066 44.5334 201.033 41.291 202.926 40.1161C204.819 38.9411 218.26 42.3136 219.364 43.2208C220.316 44.0054 220.997 45.3997 221.428 48.155C221.9 51.1854 225.63 52.4459 225.63 52.4459L226.046 50.5867L229.251 37.2381C229.272 37.1534 229.275 37.0654 229.261 36.9794C229.246 36.8934 229.215 36.8111 229.169 36.7373C229.122 36.6635 229.062 36.5998 228.99 36.5498C228.919 36.4998 228.838 36.4645 228.753 36.4461L203.476 30.9319C203.313 30.8964 203.142 30.9248 202.999 31.0112C202.856 31.0976 202.751 31.2356 202.707 31.3967L199.066 44.5334Z" fill="#313131"/>
<path d="M225.63 52.9109C225.58 52.911 225.53 52.9035 225.481 52.8885C225.318 52.8328 221.481 51.4979 220.967 48.2258C220.596 45.7792 220.001 44.3477 219.067 43.578C218.067 42.7563 204.789 39.5102 203.168 40.5141C201.391 41.6296 199.483 44.7418 199.45 44.7716C199.394 44.8731 199.302 44.95 199.192 44.9872C199.082 45.0244 198.962 45.0192 198.856 44.9726C198.75 44.926 198.665 44.8414 198.618 44.7355C198.571 44.6295 198.565 44.5097 198.602 44.3997L202.246 31.2631C202.321 30.9861 202.501 30.7488 202.746 30.6006C202.992 30.4524 203.286 30.4047 203.566 30.4674L228.85 35.9927C228.996 36.0242 229.134 36.0846 229.256 36.1704C229.378 36.2562 229.482 36.3656 229.561 36.4921C229.64 36.6187 229.693 36.7598 229.716 36.9071C229.74 37.0545 229.734 37.205 229.698 37.3499L226.493 50.6948L226.08 52.5539C226.065 52.6172 226.038 52.6767 225.999 52.7285C225.96 52.7804 225.91 52.8235 225.853 52.8551C225.785 52.8927 225.708 52.9119 225.63 52.9109ZM204.377 39.4358C208.719 39.4358 218.785 42.1427 219.659 42.8604C220.774 43.7862 221.469 45.3962 221.89 48.0845C222.217 50.1742 224.333 51.3641 225.299 51.8028L225.597 50.4903L228.802 37.1342C228.808 37.1098 228.809 37.0844 228.806 37.0594C228.802 37.0345 228.793 37.0106 228.78 36.9892C228.766 36.9682 228.749 36.9501 228.729 36.936C228.708 36.922 228.685 36.9122 228.661 36.9074L203.376 31.3783C203.329 31.3691 203.279 31.3781 203.238 31.4036C203.197 31.429 203.166 31.4692 203.153 31.5159L200.227 42.087C200.915 41.1762 201.743 40.3805 202.681 39.7296C203.213 39.4937 203.796 39.3928 204.377 39.4358Z" fill="#313131"/>
<path d="M209.678 51.829H209.578L205.737 50.9663C205.657 50.9488 205.583 50.9102 205.523 50.8547C205.463 50.7991 205.419 50.7286 205.395 50.6503C205.343 50.4904 205.187 49.9996 207.068 45.3629C207.114 45.2485 207.204 45.1572 207.318 45.1091C207.432 45.061 207.56 45.06 207.674 45.1063C207.789 45.1527 207.88 45.2426 207.928 45.3562C207.976 45.4699 207.977 45.598 207.931 45.7124C207.323 47.162 206.791 48.6427 206.339 50.1483L209.782 50.9217C209.894 50.9467 209.993 51.0122 210.06 51.1056C210.126 51.199 210.156 51.3137 210.143 51.4277C210.13 51.5417 210.076 51.6469 209.99 51.723C209.904 51.7991 209.793 51.8408 209.678 51.8401V51.829Z" fill="#313131"/>
<path d="M214.694 47.7311C214.59 47.7304 214.49 47.6954 214.408 47.6315C214.326 47.5676 214.267 47.4785 214.241 47.3779C213.627 44.9164 210.894 44.6598 210.76 44.6524C210.638 44.642 210.524 44.5833 210.445 44.4891C210.365 44.395 210.326 44.2732 210.337 44.1504C210.341 44.0896 210.357 44.0303 210.385 43.9759C210.412 43.9215 210.45 43.8731 210.496 43.8336C210.543 43.7941 210.597 43.7643 210.655 43.7459C210.713 43.7275 210.774 43.7209 210.835 43.7265C210.872 43.7265 214.367 44.0352 215.144 47.1511C215.159 47.2104 215.163 47.2721 215.154 47.3327C215.145 47.3932 215.124 47.4514 215.093 47.5039C215.061 47.5565 215.02 47.6023 214.97 47.6387C214.921 47.6751 214.865 47.7015 214.806 47.7163C214.769 47.7249 214.732 47.7298 214.694 47.7311Z" fill="#313131"/>
<path d="M203.209 45.2402C203.123 45.2402 203.038 45.2161 202.965 45.1708C202.891 45.1254 202.832 45.0605 202.793 44.9833C202.755 44.9061 202.738 44.8196 202.746 44.7337C202.754 44.6477 202.785 44.5656 202.837 44.4965C204.324 42.5333 207.139 42.9572 207.258 42.9758C207.318 42.9853 207.376 43.0066 207.428 43.0384C207.48 43.0703 207.526 43.1121 207.562 43.1615C207.598 43.2109 207.623 43.2669 207.638 43.3262C207.652 43.3856 207.654 43.4472 207.645 43.5075C207.635 43.5678 207.614 43.6256 207.582 43.6777C207.55 43.7297 207.508 43.775 207.459 43.8109C207.41 43.8468 207.354 43.8727 207.294 43.887C207.235 43.9012 207.173 43.9037 207.113 43.8942C207.091 43.8942 204.733 43.5446 203.577 45.0617C203.533 45.1176 203.477 45.1627 203.414 45.1936C203.35 45.2245 203.28 45.2405 203.209 45.2402Z" fill="#313131"/>
<path d="M211.307 48.6539C211.64 48.6539 211.91 48.3843 211.91 48.0516C211.91 47.7189 211.64 47.4492 211.307 47.4492C210.975 47.4492 210.705 47.7189 210.705 48.0516C210.705 48.3843 210.975 48.6539 211.307 48.6539Z" fill="#313131"/>
<path d="M205.034 47.5123C205.367 47.5123 205.636 47.2427 205.636 46.91C205.636 46.5773 205.367 46.3076 205.034 46.3076C204.701 46.3076 204.432 46.5773 204.432 46.91C204.432 47.2427 204.701 47.5123 205.034 47.5123Z" fill="#313131"/>
<path d="M226.982 55.787C228.218 53.1777 227.834 50.4061 226.125 49.5963C224.416 48.7866 222.028 50.2453 220.792 52.8546C219.556 55.4639 219.939 58.2355 221.648 59.0453C223.358 59.8551 225.745 58.3963 226.982 55.787Z" fill="white"/>
<path d="M222.655 59.7193H222.44C222.317 59.7109 222.202 59.6539 222.12 59.5608C222.039 59.4677 221.998 59.3462 222.007 59.2229C222.015 59.0996 222.072 58.9847 222.165 58.9035C222.258 58.8223 222.38 58.7813 222.503 58.7897C223.916 58.8827 225.611 57.5367 226.537 55.5809C227.653 53.2458 227.352 50.695 225.902 50.0034C224.872 49.5164 223.455 50.0443 222.291 51.3569C222.209 51.4491 222.094 51.505 221.971 51.5123C221.848 51.5197 221.727 51.4778 221.635 51.3959C221.543 51.3141 221.487 51.199 221.479 51.0759C221.472 50.9528 221.514 50.8319 221.596 50.7397C223.038 49.1111 224.886 48.5087 226.299 49.1631C228.237 50.0815 228.72 53.1342 227.378 55.9713C226.333 58.2134 224.41 59.7193 222.655 59.7193Z" fill="#313131"/>
<path d="M224.69 54.8189H224.649L223.686 54.7334C223.597 54.7254 223.512 54.6919 223.442 54.637C223.371 54.582 223.318 54.5079 223.289 54.4236C223.259 54.3392 223.255 54.2482 223.276 54.1614C223.297 54.0745 223.342 53.9956 223.407 53.934L225.307 52.1157C225.35 52.0697 225.402 52.0329 225.46 52.0077C225.518 51.9824 225.58 51.9692 225.643 51.9688C225.706 51.9684 225.769 51.9808 225.827 52.0053C225.885 52.0299 225.937 52.066 225.981 52.1115C226.025 52.1569 226.059 52.2108 226.081 52.2699C226.103 52.3289 226.113 52.3919 226.11 52.4549C226.107 52.5179 226.092 52.5797 226.064 52.6364C226.037 52.6932 225.998 52.7438 225.95 52.785L224.786 53.9005C224.902 53.9211 225.006 53.9847 225.076 54.0786C225.147 54.1725 225.179 54.2897 225.167 54.4066C225.155 54.5234 225.099 54.6313 225.01 54.7085C224.922 54.7857 224.807 54.8265 224.69 54.8226V54.8189Z" fill="#313131"/>
<path d="M198.353 48.1662C198.269 48.1662 198.187 48.1433 198.116 48.1C198.045 48.0568 197.986 47.9948 197.948 47.9208L197.204 46.545C197.171 46.4913 197.15 46.4316 197.141 46.3693C197.132 46.3071 197.135 46.2437 197.151 46.1829C197.168 46.1222 197.196 46.0653 197.235 46.0159C197.274 45.9664 197.322 45.9253 197.377 45.8951C197.432 45.8649 197.493 45.8461 197.556 45.8401C197.618 45.834 197.681 45.8407 197.741 45.8597C197.801 45.8788 197.857 45.9098 197.904 45.9509C197.952 45.992 197.991 46.0423 198.018 46.0988L198.762 47.4783C198.791 47.5317 198.81 47.5904 198.816 47.651C198.823 47.7115 198.817 47.7728 198.8 47.8312C198.783 47.8897 198.754 47.9441 198.716 47.9914C198.677 48.0387 198.63 48.0778 198.576 48.1067C198.508 48.1462 198.431 48.1668 198.353 48.1662Z" fill="#313131"/>
<path d="M211.426 57.1017C209.961 57.1017 208.823 55.8933 208.381 55.105C208.332 55.0206 208.31 54.9228 208.32 54.8255C208.329 54.7283 208.369 54.6365 208.434 54.5632C208.498 54.4899 208.584 54.4389 208.68 54.4173C208.775 54.3957 208.875 54.4048 208.965 54.4431C209.421 54.6209 209.91 54.6979 210.399 54.669C210.888 54.6402 211.365 54.506 211.798 54.2758C212.542 53.904 213.096 53.3425 213.226 52.8368C213.247 52.7299 213.305 52.6339 213.39 52.5659C213.475 52.4978 213.582 52.4621 213.69 52.465C213.795 52.4686 213.896 52.5072 213.976 52.5746C214.056 52.642 214.111 52.7343 214.133 52.8368C214.155 52.9633 214.665 55.9267 212.553 56.8303C212.2 56.9983 211.816 57.0908 211.426 57.1017ZM210.017 55.6144C210.301 55.8852 210.657 56.0677 211.042 56.1396C211.428 56.2116 211.826 56.1699 212.188 56.0197C212.483 55.8682 212.733 55.6431 212.915 55.3662C213.097 55.0893 213.204 54.77 213.226 54.4394C212.919 54.7098 212.577 54.9386 212.211 55.1199C211.531 55.4609 210.777 55.627 210.017 55.6032V55.6144Z" fill="#313131"/>
<path d="M142.835 196.292C142.601 197.645 142.303 198.433 141.965 198.441C141.627 198.448 141.318 197.731 141.035 196.478C140.496 194.128 140.076 189.878 139.972 185.022C139.866 181.671 139.98 178.318 140.314 174.982C140.567 172.837 140.939 171.528 141.374 171.521C141.809 171.513 142.259 172.874 142.608 175.109C143.063 178.366 143.311 181.648 143.352 184.936C143.475 189.703 143.24 193.89 142.835 196.292Z" fill="#313131"/>
<path d="M141.954 198.901C141.382 198.901 140.779 198.359 140.218 194.592C139.408 188.242 139.266 181.826 139.794 175.447C140.192 171.613 140.783 171.074 141.363 171.063C141.943 171.052 142.553 171.561 143.118 175.372C143.548 178.543 143.786 181.736 143.832 184.936C143.927 188.132 143.83 191.332 143.542 194.518C143.144 198.351 142.553 198.89 141.976 198.901H141.954ZM141.385 172.13C140.854 173.119 140.27 177.785 140.433 185.029C140.597 192.272 141.378 196.905 141.954 197.871C142.482 196.882 143.07 192.212 142.902 184.973C142.742 177.715 141.958 173.078 141.382 172.111L141.385 172.13Z" fill="#313131"/>
<path d="M143.367 184.943C143.327 181.655 143.078 178.373 142.624 175.116L141.765 175.071L140.969 175.027L140.329 174.989L139.735 174.956L138.95 174.915L138.002 174.859L137.184 174.818L135.276 174.718L133.417 174.632L131.632 174.558L130.918 174.532C130.368 174.51 129.803 174.491 129.253 174.476C128.576 174.454 127.892 174.439 127.211 174.424H126.84C118.232 174.272 109.509 174.722 103.582 177.057C103.236 177.194 102.875 177.339 102.511 177.499C102.146 177.659 101.767 177.823 101.377 177.997L100.793 178.265L99.6069 178.834L99.0045 179.135L98.4022 179.444C95.1859 181.113 92.003 183.099 90.3558 184.716L90.0695 185.014C89.9357 185.163 89.813 185.304 89.6977 185.441C89.2775 186.003 89.1065 186.497 89.2738 186.892C89.302 186.959 89.3356 187.023 89.3742 187.085C90.0584 188.141 91.9212 187.33 92.2001 187.208L92.1704 187.226C91.5048 187.632 86.8235 190.554 87.9018 192.845C87.9138 192.876 87.9275 192.907 87.9427 192.938C88.8685 194.663 92.6612 192.317 94.1299 191.32C93.0479 192.131 90.8987 194.02 91.6052 195.737L91.6386 195.808C91.6771 195.879 91.7303 195.941 91.7948 195.99C93.0553 196.994 98.629 194.834 99.6329 194.436L99.6924 194.414H99.6441H99.6218C98.8781 194.733 95.9035 196.154 96.2753 197.715C96.295 197.803 96.325 197.888 96.3646 197.968C96.3861 198.013 96.4136 198.054 96.4464 198.091C97.4503 199.244 103.582 197.459 110.996 196.507C111.591 196.433 112.193 196.358 112.799 196.299C115.599 196.005 120.347 197.559 127.089 197.414C128.192 197.392 129.282 197.354 130.361 197.299L130.733 197.28L131.342 197.247C132.354 197.187 133.345 197.121 134.317 197.046C135.17 196.979 136.008 196.907 136.831 196.831L137.663 196.756L139.311 196.596L140.214 196.507L141.01 196.425C141.623 196.366 142.222 196.303 142.81 196.239C143.241 193.889 143.475 189.703 143.367 184.943Z" fill="white"/>
<path d="M97.8371 198.942C96.9707 198.942 96.4204 198.79 96.1043 198.448C96.0399 198.374 95.9861 198.291 95.9444 198.202C95.8881 198.092 95.8468 197.974 95.8218 197.853C95.7668 197.541 95.7871 197.221 95.8809 196.919C95.9747 196.617 96.1392 196.342 96.3609 196.116C94.4125 196.7 92.3526 197.065 91.4937 196.38L91.4379 196.336C91.3468 196.255 91.2679 196.161 91.2036 196.057C91.1989 196.045 91.1926 196.034 91.1851 196.024L91.1516 195.953C90.9838 195.566 90.9095 195.145 90.9347 194.723C90.9599 194.302 91.0839 193.893 91.2966 193.529C90.1588 194.034 89.2441 194.198 88.5637 194.016C88.3334 193.959 88.1183 193.853 87.9333 193.705C87.7484 193.556 87.598 193.369 87.4928 193.157C87.4668 193.108 87.4482 193.067 87.4296 193.027C86.6859 191.298 88.5451 189.338 90.1477 188.074C89.9056 188.048 89.6725 187.967 89.4658 187.839C89.2592 187.71 89.0842 187.536 88.9541 187.33C88.9008 187.248 88.8548 187.16 88.8165 187.07C88.5934 186.534 88.757 185.895 89.2999 185.162C89.414 185.009 89.5382 184.864 89.6717 184.727C89.6859 184.708 89.7021 184.691 89.7201 184.675L89.9952 184.389C91.5309 182.868 94.5018 180.92 98.1531 179.031H98.1903L98.7592 178.737L99.3541 178.443C99.7743 178.235 100.172 178.042 100.566 177.86L101.157 177.588C101.548 177.41 101.927 177.243 102.299 177.086C102.671 176.93 103.043 176.778 103.381 176.64C108.482 174.632 115.93 173.785 126.806 173.974C126.921 173.974 127.059 173.974 127.178 173.974C127.858 173.974 128.543 174.004 129.223 174.026C129.781 174.026 130.338 174.06 130.893 174.082L131.61 174.108L133.402 174.182C134.027 174.208 134.652 174.238 135.261 174.272L137.281 174.376C137.518 174.376 137.749 174.402 137.987 174.409L142.613 174.666C142.719 174.672 142.819 174.714 142.898 174.785C142.977 174.856 143.03 174.951 143.048 175.056C143.506 178.335 143.754 181.64 143.791 184.95C143.895 189.572 143.691 193.848 143.252 196.388C143.232 196.486 143.181 196.575 143.107 196.642C143.032 196.708 142.939 196.75 142.839 196.76L139.34 197.132L138.31 197.232L136.853 197.366C136.035 197.44 135.195 197.515 134.339 197.578C133.246 197.663 132.265 197.73 131.339 197.782L130.721 197.816H130.602C130.513 197.816 130.424 197.816 130.331 197.816C129.268 197.871 128.163 197.909 127.055 197.935C123.873 197.958 120.695 197.71 117.555 197.191C115.562 196.908 113.989 196.682 112.807 196.819C112.201 196.882 111.606 196.953 111.015 197.027C108.471 197.351 106.088 197.771 103.983 198.143C101.087 198.626 99.1161 198.942 97.8371 198.942ZM99.8263 194.852H99.8003C98.1271 195.614 96.5282 196.767 96.729 197.622C96.7396 197.675 96.7571 197.727 96.7811 197.775C97.2607 198.307 100.618 197.726 103.864 197.165C105.98 196.793 108.375 196.384 110.929 196.05C111.524 195.975 112.13 195.901 112.744 195.838C114.038 195.704 115.662 195.938 117.719 196.232C120.808 196.745 123.935 196.994 127.066 196.975C128.182 196.953 129.26 196.912 130.327 196.86H130.58H130.71L131.313 196.827C132.235 196.775 133.213 196.708 134.287 196.626C135.135 196.559 135.97 196.488 136.793 196.414L138.24 196.28L139.266 196.18L142.412 195.86C142.802 193.343 142.977 189.308 142.884 184.947C142.838 181.812 142.612 178.682 142.207 175.573L137.961 175.339L137.254 175.302L135.239 175.197L133.38 175.112L131.629 175.038L130.885 175.008L129.216 174.956C128.535 174.933 127.858 174.915 127.178 174.904H126.806C116.023 174.714 108.702 175.543 103.719 177.507C103.377 177.64 103.02 177.785 102.66 177.942C102.299 178.098 101.916 178.261 101.544 178.436L100.96 178.704C100.589 178.882 100.183 179.076 99.7892 179.265L99.1868 179.563L98.5919 179.871H98.5584C95.0521 181.69 92.0998 183.623 90.6571 185.047L90.4042 185.307C90.3976 185.319 90.3888 185.329 90.3782 185.337C90.2627 185.455 90.1535 185.579 90.051 185.709C89.7275 186.144 89.5974 186.494 89.6792 186.698C89.6957 186.741 89.7169 186.782 89.7424 186.821C90.1142 187.434 91.371 187.059 91.9733 186.776H92.0142C92.1279 186.734 92.2534 186.737 92.3649 186.785C92.4763 186.832 92.5651 186.921 92.6129 187.033C92.6478 187.119 92.6562 187.213 92.637 187.304C92.6178 187.395 92.5718 187.478 92.505 187.542C92.4802 187.566 92.4527 187.587 92.4232 187.605L92.3675 187.643C90.6533 188.713 87.6081 191.13 88.2774 192.67C88.2862 192.693 88.2975 192.715 88.3108 192.737C88.3575 192.83 88.4245 192.912 88.5068 192.976C88.5892 193.041 88.6848 193.086 88.7868 193.108C89.5936 193.32 91.1851 192.699 93.1595 191.402C93.2584 191.346 93.3744 191.328 93.4856 191.352C93.5967 191.376 93.6952 191.44 93.7625 191.531C93.8299 191.623 93.8613 191.736 93.8509 191.849C93.8405 191.962 93.7889 192.068 93.7061 192.145C92.8174 192.867 91.4156 194.265 91.9808 195.54V195.57C91.9924 195.588 92.0061 195.604 92.0217 195.618H92.0403C92.7021 196.172 95.7994 195.488 99.4025 193.99L99.4694 193.967C99.5318 193.951 99.5967 193.949 99.6602 193.959C99.7237 193.97 99.7844 193.993 99.8385 194.028C99.8926 194.063 99.9389 194.108 99.9745 194.162C100.01 194.215 100.034 194.276 100.046 194.339C100.073 194.439 100.067 194.545 100.027 194.641C99.9871 194.737 99.9165 194.816 99.8263 194.867V194.852Z" fill="#313131"/>
<path d="M99.7626 194.852C99.6564 194.852 99.5534 194.816 99.4709 194.749C99.3883 194.682 99.3312 194.589 99.3091 194.485C99.2869 194.381 99.301 194.272 99.349 194.178C99.397 194.083 99.4761 194.007 99.573 193.964C104.477 191.733 111.1 189.978 114.1 189.387C114.222 189.363 114.347 189.388 114.45 189.457C114.552 189.526 114.623 189.633 114.647 189.755C114.671 189.876 114.645 190.002 114.576 190.104C114.507 190.207 114.4 190.278 114.279 190.301C111.304 190.881 104.79 192.621 99.9559 194.812C99.8948 194.838 99.8291 194.852 99.7626 194.852Z" fill="#313131"/>
<path d="M93.4159 192.265C93.343 192.265 93.2712 192.247 93.2066 192.213C93.1419 192.18 93.0862 192.131 93.0441 192.071C93.0081 192.022 92.9822 191.966 92.9679 191.906C92.9536 191.847 92.9512 191.785 92.9609 191.724C92.9706 191.664 92.9921 191.606 93.0243 191.554C93.0564 191.502 93.0985 191.457 93.1482 191.421C97.4391 188.353 108.021 184.189 111.952 183.415C112.013 183.4 112.076 183.397 112.139 183.407C112.201 183.417 112.261 183.44 112.314 183.474C112.367 183.508 112.413 183.552 112.448 183.604C112.484 183.656 112.509 183.715 112.521 183.777C112.533 183.839 112.532 183.902 112.519 183.964C112.506 184.026 112.48 184.084 112.443 184.135C112.407 184.187 112.36 184.23 112.306 184.263C112.252 184.296 112.192 184.317 112.13 184.326C108.352 185.07 97.8147 189.227 93.6911 192.179C93.6103 192.235 93.5143 192.265 93.4159 192.265Z" fill="#313131"/>
<path d="M92.2152 187.65C92.1443 187.652 92.0738 187.638 92.0093 187.608C91.9448 187.579 91.888 187.535 91.8434 187.479C91.805 187.432 91.7763 187.377 91.7591 187.318C91.7418 187.26 91.7364 187.198 91.7429 187.137C91.7495 187.077 91.768 187.018 91.7973 186.964C91.8267 186.911 91.8664 186.863 91.914 186.825C95.0783 184.263 103.969 180.087 109.832 178.864C109.894 178.846 109.958 178.841 110.022 178.85C110.085 178.858 110.146 178.879 110.201 178.912C110.256 178.945 110.304 178.989 110.341 179.041C110.378 179.093 110.404 179.153 110.417 179.215C110.43 179.278 110.43 179.343 110.417 179.405C110.404 179.468 110.378 179.527 110.341 179.58C110.304 179.632 110.256 179.676 110.201 179.709C110.147 179.742 110.086 179.763 110.022 179.771C104.378 180.95 95.5208 185.103 92.4978 187.55C92.417 187.613 92.3178 187.649 92.2152 187.65Z" fill="#313131"/>
<path d="M133.312 104.241C123.738 116.924 95.8731 117.568 95.8731 117.568C95.8731 117.568 89.3252 75.276 86.2874 71.4611C83.2496 67.6461 69.5552 71.6135 69.2428 66.4042C68.9305 61.1949 83.547 62.1803 83.2421 59.4399C82.9372 56.6995 54.4069 55.4725 55.9649 51.5051C57.5228 47.5377 70.362 47.7534 70.362 47.7534C69.8154 42.9493 77.1479 42.5217 77.1479 42.5217C77.1479 39.8929 84.1494 39.6698 84.1494 39.6698C84.3018 38.3015 97.9962 34.9253 113.818 54.2417C123.511 66.0659 128.441 80.1023 130.922 90.2867C131.319 91.919 131.665 93.451 131.929 94.8565C132.572 97.9554 133.033 101.089 133.312 104.241Z" fill="#00FFC2"/>
<path d="M95.8733 118.044C95.7622 118.044 95.6549 118.004 95.5704 117.931C95.486 117.859 95.4299 117.759 95.4123 117.65C93.1553 103.067 88.2695 74.6962 85.9232 71.7662C84.6628 70.1897 81.123 70.0781 77.6984 69.9666C73.4075 69.8327 68.9679 69.6914 68.7746 66.4454C68.5738 63.0246 73.7013 62.0244 77.8174 61.2175C79.9443 60.801 82.8594 60.2321 82.7776 59.5034C82.4615 58.6035 75.9434 57.5513 71.184 56.7853C62.4609 55.3761 56.6827 54.3164 55.6156 52.4721C55.514 52.3029 55.453 52.1124 55.4375 51.9156C55.422 51.7188 55.4525 51.5211 55.5264 51.338C57.0137 47.5119 67.2129 47.2777 69.8715 47.2814C69.8531 46.3109 70.1918 45.3674 70.8233 44.6303C72.4333 42.7154 75.6236 42.2134 76.7354 42.0907C77.2931 39.7073 82.4764 39.2871 83.867 39.2165C84.2522 38.8478 84.7303 38.5907 85.2502 38.4728C85.7857 38.3166 98.5096 34.8252 114.182 53.9557C124.036 65.9806 128.966 80.2959 131.372 90.1866C131.744 91.7222 132.082 93.2653 132.383 94.7786C133.024 97.8981 133.488 101.051 133.774 104.223C133.781 104.335 133.748 104.446 133.681 104.535C124.08 117.252 97.026 118.029 95.8808 118.055L95.8733 118.044ZM69.8454 48.211C66.0305 48.211 57.5379 48.8096 56.4113 51.6764C56.3896 51.7306 56.3811 51.7891 56.3862 51.8473C56.3914 51.9054 56.4102 51.9615 56.441 52.011C57.352 53.6062 65.1121 54.8592 71.3476 55.8669C80.0149 57.265 83.5621 57.9752 83.7183 59.3993C83.8968 60.9795 81.3014 61.4889 78.0145 62.1285C74.2516 62.8721 69.5703 63.7831 69.7227 66.3896C69.8603 68.7879 73.6901 68.9106 77.743 69.0407C81.3795 69.156 85.1387 69.275 86.6669 71.1825C89.6415 74.8784 95.5647 112.478 96.2861 117.099C99.7366 116.951 124.058 115.504 132.855 104.085C132.566 101.013 132.112 97.9584 131.494 94.9348C131.197 93.4475 130.859 91.9007 130.49 90.3799C128.111 80.5823 123.229 66.4082 113.487 54.5209C101.269 39.6069 90.6864 38.8781 87.7303 39.0082C85.7485 39.0975 84.7892 39.5771 84.6256 39.7519C84.6043 39.8532 84.5501 39.9447 84.4714 40.0119C84.3927 40.0792 84.2939 40.1185 84.1905 40.1237C82.4913 40.1795 77.6389 40.7335 77.6389 42.5109C77.6391 42.6288 77.5941 42.7422 77.5132 42.828C77.4323 42.9138 77.3216 42.9653 77.2039 42.9719C77.163 42.9719 73.2253 43.2322 71.5558 45.2029C71.269 45.5403 71.0576 45.9352 70.9357 46.361C70.8139 46.7868 70.7844 47.2337 70.8494 47.6718C70.8584 47.7384 70.8528 47.8063 70.8329 47.8705C70.813 47.9347 70.7793 47.9938 70.7341 48.0436C70.6894 48.0926 70.6347 48.1315 70.5738 48.1578C70.513 48.1841 70.4472 48.1971 70.3809 48.1961L69.8454 48.211Z" fill="#313131"/>
<path d="M78.6945 48.4757H78.6685C78.6127 48.4757 72.987 48.1782 70.3767 48.2154C70.3156 48.2174 70.2547 48.207 70.1977 48.1849C70.1407 48.1628 70.0887 48.1293 70.045 48.0866C70.0012 48.0439 69.9665 47.9928 69.943 47.9363C69.9195 47.8798 69.9077 47.8192 69.9082 47.758C69.9082 47.6367 69.9556 47.5201 70.0404 47.4333C70.1251 47.3464 70.2405 47.2962 70.3619 47.2933C73.0018 47.2561 78.6573 47.5535 78.7131 47.5572C78.8287 47.5701 78.9354 47.6258 79.0119 47.7134C79.0885 47.801 79.1294 47.9141 79.1266 48.0304C79.1238 48.1467 79.0775 48.2577 78.9968 48.3416C78.9161 48.4254 78.8069 48.4759 78.6908 48.4831L78.6945 48.4757Z" fill="#313131"/>
<path d="M84.689 43.909H84.5887C84.5366 43.909 79.3831 42.7935 77.2004 42.9943C77.1398 43.0004 77.0786 42.9945 77.0203 42.9769C76.962 42.9592 76.9078 42.9302 76.8608 42.8915C76.8138 42.8528 76.7749 42.8051 76.7464 42.7513C76.7179 42.6974 76.7003 42.6385 76.6948 42.5778C76.6886 42.517 76.6945 42.4556 76.7121 42.3971C76.7297 42.3386 76.7586 42.2841 76.7973 42.2368C76.836 42.1895 76.8836 42.1502 76.9375 42.1213C76.9914 42.0925 77.0504 42.0745 77.1112 42.0684C79.4351 41.8379 84.5701 42.9534 84.7894 42.998C84.8987 43.026 84.9942 43.0924 85.0584 43.1851C85.1227 43.2778 85.1513 43.3905 85.1391 43.5026C85.1269 43.6147 85.0747 43.7187 84.992 43.7954C84.9093 43.8721 84.8018 43.9164 84.689 43.9201V43.909Z" fill="#313131"/>
<path d="M90.5187 41.3437C90.4746 41.3452 90.4305 41.3389 90.3886 41.3251C90.3477 41.3251 86.3357 40.1464 84.1679 40.1464C84.0447 40.1464 83.9264 40.0974 83.8393 40.0102C83.7521 39.9231 83.7031 39.8048 83.7031 39.6816C83.7026 39.6207 83.7142 39.5604 83.7372 39.504C83.7601 39.4476 83.794 39.3964 83.8369 39.3532C83.8797 39.3099 83.9307 39.2756 83.9869 39.2522C84.0431 39.2288 84.1033 39.2168 84.1642 39.2168C86.4658 39.2168 90.4853 40.3843 90.6452 40.4327C90.7632 40.4688 90.8624 40.5498 90.9215 40.6582C90.9806 40.7667 90.9948 40.8939 90.9612 41.0127C90.9326 41.108 90.8741 41.1915 90.7945 41.2511C90.7148 41.3106 90.6182 41.3431 90.5187 41.3437Z" fill="#313131"/>
<path d="M95.2045 82.5126C95.0985 82.5106 94.9963 82.4728 94.9146 82.4053C94.8329 82.3377 94.7765 82.2445 94.7546 82.1407L93.9924 78.9542C93.9688 78.8362 93.992 78.7138 94.0568 78.6125C94.1217 78.5112 94.2233 78.4391 94.3403 78.4111C94.4573 78.3832 94.5805 78.4017 94.6841 78.4628C94.7877 78.5238 94.8637 78.6227 94.8959 78.7385L95.6396 81.9214C95.654 81.981 95.6564 82.0428 95.6468 82.1033C95.6371 82.1638 95.6156 82.2219 95.5835 82.274C95.5514 82.3262 95.5092 82.3715 95.4595 82.4074C95.4098 82.4432 95.3535 82.4689 95.2938 82.4828C95.265 82.4955 95.2352 82.5055 95.2045 82.5126Z" fill="#313131"/>
<path d="M97.0891 90.4022C96.9831 90.4003 96.8808 90.3625 96.7991 90.2949C96.7174 90.2274 96.661 90.1341 96.6392 90.0304L95.8769 86.8475C95.8483 86.7272 95.8687 86.6005 95.9335 86.4952C95.9984 86.3899 96.1024 86.3147 96.2227 86.2861C96.343 86.2575 96.4698 86.2779 96.5751 86.3427C96.6803 86.4076 96.7556 86.5116 96.7842 86.6319L97.5278 89.8147C97.5422 89.8738 97.5447 89.9352 97.5353 89.9952C97.5259 90.0553 97.5046 90.1129 97.4728 90.1648C97.4411 90.2166 97.3993 90.2617 97.35 90.2973C97.3008 90.3329 97.2449 90.3585 97.1857 90.3725C97.155 90.3867 97.1225 90.3967 97.0891 90.4022Z" fill="#313131"/>
<path d="M98.9934 98.2921C98.8866 98.2917 98.7831 98.2545 98.7005 98.1867C98.6179 98.119 98.5611 98.0249 98.5398 97.9202L97.7961 94.7374C97.7726 94.6194 97.7957 94.497 97.8605 94.3957C97.9254 94.2944 98.027 94.2223 98.144 94.1943C98.261 94.1664 98.3842 94.1849 98.4878 94.246C98.5915 94.307 98.6674 94.4059 98.6996 94.5217L99.4433 97.7046C99.4577 97.7639 99.4603 97.8255 99.4509 97.8858C99.4415 97.9461 99.4203 98.004 99.3886 98.0562C99.3568 98.1083 99.3151 98.1537 99.2658 98.1897C99.2165 98.2257 99.1606 98.2516 99.1012 98.266L98.9934 98.2921Z" fill="#313131"/>
<path d="M100.852 106.186C100.745 106.185 100.642 106.148 100.56 106.08C100.477 106.012 100.42 105.919 100.398 105.814L99.6547 102.631C99.638 102.571 99.6335 102.508 99.6416 102.446C99.6498 102.384 99.6703 102.325 99.702 102.271C99.7338 102.217 99.776 102.17 99.8263 102.133C99.8765 102.096 99.9338 102.069 99.9946 102.055C100.055 102.04 100.118 102.038 100.18 102.049C100.242 102.059 100.301 102.082 100.353 102.115C100.406 102.149 100.451 102.193 100.486 102.245C100.522 102.296 100.546 102.355 100.558 102.416L101.321 105.599C101.348 105.718 101.328 105.844 101.263 105.949C101.198 106.054 101.094 106.128 100.975 106.156C100.936 106.173 100.894 106.183 100.852 106.186Z" fill="#313131"/>
<path d="M102.749 114.077C102.642 114.077 102.539 114.04 102.457 113.972C102.375 113.904 102.319 113.81 102.299 113.705L101.537 110.522C101.52 110.462 101.515 110.399 101.523 110.337C101.532 110.275 101.552 110.215 101.584 110.161C101.616 110.108 101.658 110.061 101.708 110.024C101.758 109.986 101.816 109.96 101.876 109.945C101.937 109.931 102 109.929 102.062 109.939C102.124 109.95 102.182 109.972 102.235 110.006C102.288 110.04 102.333 110.084 102.368 110.135C102.403 110.187 102.428 110.245 102.44 110.306L103.202 113.489C103.23 113.61 103.21 113.736 103.145 113.841C103.08 113.946 102.977 114.022 102.857 114.051C102.822 114.063 102.785 114.072 102.749 114.077Z" fill="#313131"/>
<path d="M123.307 99.1702C122.727 99.1702 122.159 98.9981 121.677 98.6758C121.194 98.3534 120.818 97.8952 120.596 97.3591C120.374 96.8231 120.316 96.2332 120.429 95.6641C120.543 95.095 120.822 94.5723 121.232 94.162C121.643 93.7517 122.165 93.4723 122.734 93.3591C123.304 93.2459 123.893 93.304 124.429 93.526C124.966 93.7481 125.424 94.1241 125.746 94.6066C126.068 95.089 126.24 95.6562 126.24 96.2365C126.24 97.0145 125.931 97.7607 125.381 98.3109C124.831 98.8611 124.085 99.1702 123.307 99.1702ZM123.307 94.236C122.91 94.236 122.523 94.3537 122.193 94.574C121.863 94.7944 121.606 95.1077 121.455 95.4741C121.303 95.8405 121.264 96.2437 121.341 96.6325C121.419 97.0214 121.61 97.3785 121.891 97.6586C122.172 97.9388 122.529 98.1294 122.918 98.2063C123.307 98.2832 123.71 98.243 124.076 98.0907C124.442 97.9384 124.755 97.681 124.975 97.3509C125.195 97.0208 125.312 96.633 125.311 96.2365C125.311 95.9734 125.259 95.713 125.158 95.4701C125.058 95.2271 124.91 95.0064 124.724 94.8206C124.538 94.6348 124.317 94.4875 124.073 94.3872C123.83 94.2869 123.57 94.2355 123.307 94.236Z" fill="#313131"/>
<path d="M114.101 103.004C113.52 103.005 112.953 102.833 112.47 102.512C111.987 102.19 111.61 101.732 111.387 101.196C111.165 100.66 111.106 100.07 111.219 99.5004C111.332 98.9311 111.611 98.408 112.021 97.9973C112.431 97.5866 112.954 97.3069 113.523 97.1934C114.092 97.0799 114.682 97.1377 115.219 97.3597C115.755 97.5816 116.213 97.9576 116.536 98.4402C116.858 98.9227 117.031 99.49 117.031 100.07C117.03 100.848 116.721 101.593 116.171 102.142C115.622 102.692 114.878 103.002 114.101 103.004ZM114.101 98.07C113.704 98.0693 113.316 98.1863 112.986 98.4062C112.656 98.6262 112.398 98.9391 112.246 99.3055C112.094 99.6718 112.054 100.075 112.131 100.464C112.208 100.853 112.399 101.211 112.68 101.491C112.96 101.772 113.318 101.963 113.707 102.04C114.096 102.117 114.499 102.077 114.865 101.925C115.232 101.773 115.545 101.515 115.765 101.185C115.985 100.855 116.102 100.467 116.101 100.07C116.1 99.5402 115.889 99.0319 115.514 98.657C115.139 98.2821 114.631 98.071 114.101 98.07Z" fill="#313131"/>
<path d="M131.929 95.3214H131.881C131.268 95.2581 130.691 95.0034 130.232 94.5934C129.772 94.1834 129.453 93.639 129.321 93.0375C129.188 92.4361 129.248 91.8081 129.493 91.2429C129.738 90.6777 130.154 90.204 130.684 89.889C130.745 89.8505 130.816 89.8276 130.888 89.8224C130.961 89.8172 131.033 89.8299 131.1 89.8593C131.167 89.887 131.227 89.93 131.275 89.9848C131.323 90.0397 131.357 90.1049 131.375 90.1753C131.747 91.711 132.085 93.254 132.387 94.7674C132.4 94.8348 132.398 94.9043 132.381 94.9709C132.364 95.0375 132.333 95.0995 132.289 95.1525C132.245 95.2055 132.19 95.2481 132.128 95.2773C132.066 95.3065 131.998 95.3216 131.929 95.3214ZM130.646 91.1272C130.452 91.362 130.314 91.6379 130.242 91.9341C130.171 92.2302 130.168 92.5388 130.233 92.8364C130.299 93.1339 130.432 93.4126 130.621 93.6512C130.811 93.8898 131.052 94.0821 131.327 94.2134C131.115 93.1908 130.888 92.1572 130.646 91.1272Z" fill="#313131"/>
<path d="M119.689 88.0486C119.199 88.0478 118.722 87.8872 118.332 87.5913C117.941 87.2954 117.658 86.8803 117.525 86.4089C111.166 64.0323 100.067 55.1754 99.9557 55.075C99.5085 54.7012 99.2235 54.1687 99.1606 53.5892C99.0977 53.0098 99.2618 52.4285 99.6184 51.9675C99.975 51.5064 100.496 51.2015 101.073 51.1167C101.65 51.032 102.237 51.174 102.711 51.5129C103.209 51.8847 115.056 61.2473 121.856 85.1819C122.018 85.7558 121.946 86.3703 121.655 86.891C121.364 87.4116 120.879 87.7958 120.306 87.9594C120.105 88.0179 119.898 88.0479 119.689 88.0486Z" fill="#7B40AA"/>
<path d="M119.689 88.5139C119.1 88.5096 118.529 88.315 118.06 87.9592C117.591 87.6033 117.249 87.1053 117.086 86.5395C110.795 64.3935 99.7852 55.5291 99.6774 55.4399C99.1079 54.9991 98.7368 54.3501 98.6458 53.6357C98.5548 52.9213 98.7513 52.2 99.1921 51.6305C99.6329 51.061 100.282 50.6899 100.996 50.5989C101.711 50.5079 102.432 50.7044 103.001 51.1452C103.507 51.5357 115.469 60.9764 122.31 85.0522C122.504 85.7424 122.417 86.481 122.069 87.1075C121.721 87.734 121.139 88.198 120.451 88.3986C120.204 88.4722 119.947 88.511 119.689 88.5139ZM101.339 51.5134C100.967 51.513 100.604 51.629 100.301 51.8451C99.9985 52.0611 99.7706 52.3665 99.6497 52.7184C99.5289 53.0704 99.521 53.4513 99.6273 53.8079C99.7336 54.1645 99.9487 54.479 100.243 54.7074C100.354 54.7966 111.576 63.7651 117.971 86.2829C118.079 86.6562 118.304 86.9847 118.614 87.2192C118.923 87.4538 119.301 87.5819 119.689 87.5843C119.855 87.5828 120.02 87.5591 120.18 87.5137C120.635 87.3838 121.02 87.0788 121.251 86.6655C121.482 86.2522 121.539 85.7643 121.411 85.3088C114.651 61.5118 102.923 52.2645 102.425 51.8815C102.114 51.6415 101.732 51.5119 101.339 51.5134Z" fill="#313131"/>
<path d="M139.523 157.885C139.447 157.885 139.372 157.866 139.305 157.831C139.238 157.795 139.181 157.744 139.139 157.681C139.096 157.619 139.07 157.546 139.061 157.471C139.053 157.396 139.063 157.32 139.091 157.249L155.916 114.987C155.938 114.93 155.971 114.877 156.014 114.832C156.056 114.787 156.108 114.751 156.164 114.726C156.221 114.701 156.282 114.688 156.344 114.687C156.405 114.686 156.467 114.697 156.524 114.72C156.582 114.743 156.634 114.777 156.678 114.821C156.722 114.864 156.757 114.916 156.781 114.973C156.804 115.03 156.816 115.091 156.816 115.153C156.816 115.215 156.803 115.276 156.779 115.333L139.943 157.595C139.909 157.679 139.851 157.751 139.776 157.803C139.701 157.854 139.613 157.883 139.523 157.885Z" fill="#313131"/>
<path d="M141.88 198.973C141.793 198.973 141.709 198.949 141.635 198.903C141.562 198.858 141.502 198.793 141.464 198.716C141.425 198.638 141.409 198.552 141.417 198.466C141.424 198.38 141.456 198.298 141.508 198.229C141.549 198.173 143.612 195.21 142.928 183.902C142.33 174.053 140.868 171.785 140.853 171.762C140.809 171.698 140.782 171.624 140.773 171.547C140.765 171.47 140.776 171.392 140.805 171.32C140.835 171.248 140.882 171.185 140.942 171.136C141.003 171.088 141.074 171.055 141.151 171.041L216.305 157.518C216.365 157.505 216.428 157.505 216.489 157.517C216.55 157.529 216.608 157.553 216.659 157.588C216.711 157.622 216.755 157.667 216.789 157.719C216.823 157.771 216.846 157.83 216.857 157.891C216.868 157.952 216.866 158.015 216.852 158.075C216.839 158.136 216.813 158.193 216.777 158.244C216.74 158.294 216.695 158.337 216.642 158.369C216.589 158.402 216.53 158.423 216.468 158.432L141.928 171.855C142.43 173.056 143.415 176.276 143.858 183.858C144.575 195.7 142.341 198.69 142.244 198.809C142.2 198.862 142.144 198.905 142.081 198.933C142.018 198.961 141.949 198.975 141.88 198.973Z" fill="#313131"/>
<path d="M211.914 158.979H211.813C211.693 158.952 211.588 158.879 211.522 158.775C211.456 158.671 211.434 158.545 211.46 158.425L217.584 130.988C217.611 130.867 217.685 130.763 217.789 130.697C217.894 130.631 218.02 130.609 218.14 130.636C218.26 130.664 218.365 130.737 218.431 130.842C218.497 130.946 218.519 131.072 218.491 131.192L212.367 158.626C212.342 158.727 212.283 158.816 212.201 158.88C212.119 158.944 212.018 158.979 211.914 158.979Z" fill="#313131"/>
<path d="M217.238 82.0439L218.989 87.4169L201.755 104.13L194.705 91.9792L217.238 82.0439Z" fill="white"/>
<path d="M194.705 91.979L193.537 80.4263L194.21 78.0615L189.484 79.348L181.155 96.5228L194.705 91.979Z" fill="white"/>
<path d="M201.755 104.595H201.692C201.622 104.584 201.555 104.558 201.497 104.518C201.438 104.478 201.389 104.425 201.353 104.364L194.289 92.2167C194.255 92.1599 194.234 92.0968 194.227 92.0313C194.22 91.9659 194.227 91.8998 194.247 91.8372C194.268 91.7746 194.301 91.7171 194.346 91.6684C194.39 91.6197 194.444 91.581 194.504 91.5548L217.037 81.6233C217.096 81.5967 217.161 81.583 217.226 81.583C217.291 81.5831 217.355 81.5969 217.415 81.6236C217.474 81.6503 217.527 81.6892 217.57 81.7379C217.614 81.7865 217.646 81.8438 217.665 81.9059L219.417 87.2788C219.445 87.3612 219.448 87.4499 219.427 87.5342C219.406 87.6186 219.361 87.6952 219.298 87.7547L202.064 104.465C201.981 104.546 201.871 104.592 201.755 104.595ZM195.367 92.1944L201.859 103.383L218.457 87.2862L216.97 82.6793L195.367 92.1944Z" fill="#313131"/>
<path d="M181.167 96.9871C181.088 96.987 181.011 96.9668 180.942 96.9284C180.873 96.8901 180.815 96.8349 180.773 96.7679C180.732 96.701 180.708 96.6246 180.704 96.5458C180.7 96.4671 180.716 96.3887 180.751 96.3179L189.079 79.1469C189.105 79.0898 189.142 79.0383 189.188 78.9956C189.234 78.9528 189.288 78.9196 189.347 78.8977L194.073 77.6149C194.153 77.5933 194.236 77.5932 194.316 77.6146C194.396 77.6361 194.468 77.6783 194.526 77.7369C194.584 77.7956 194.625 77.8685 194.645 77.9484C194.666 78.0282 194.665 78.1121 194.642 78.1913L193.995 80.4706L195.151 91.9303C195.163 92.0349 195.138 92.1403 195.081 92.2289C195.024 92.3176 194.939 92.384 194.839 92.4174L181.29 96.9611C181.25 96.9759 181.209 96.9847 181.167 96.9871ZM189.823 79.7418L182.067 95.7304L194.218 91.6403L193.103 80.4594C193.09 80.4019 193.09 80.3422 193.103 80.2847L193.549 78.7118L189.823 79.7418Z" fill="#313131"/>
<path d="M136.76 133.319C136.665 133.319 136.572 133.29 136.494 133.236C136.416 133.181 136.357 133.104 136.325 133.014L131.491 119.77C131.449 119.654 131.454 119.526 131.506 119.414C131.558 119.302 131.652 119.215 131.768 119.173C131.884 119.13 132.012 119.136 132.124 119.188C132.236 119.24 132.323 119.334 132.365 119.45L137.199 132.698C137.225 132.768 137.233 132.844 137.223 132.918C137.214 132.992 137.186 133.063 137.143 133.124C137.1 133.185 137.042 133.235 136.976 133.269C136.909 133.303 136.835 133.32 136.76 133.319Z" fill="#313131"/>
<path d="M166.469 167.419C166.41 167.42 166.351 167.411 166.294 167.393C166.18 167.348 166.087 167.261 166.036 167.149C165.985 167.037 165.98 166.909 166.023 166.794L194.259 91.8188C194.281 91.7616 194.313 91.7093 194.355 91.6647C194.397 91.6202 194.447 91.5843 194.503 91.5591C194.558 91.5339 194.618 91.5198 194.679 91.5178C194.74 91.5158 194.801 91.5258 194.858 91.5473C194.915 91.5688 194.968 91.6013 195.012 91.643C195.057 91.6848 195.093 91.7348 195.118 91.7904C195.143 91.846 195.157 91.906 195.159 91.967C195.161 92.028 195.151 92.0888 195.129 92.146L166.904 167.118C166.871 167.206 166.811 167.282 166.734 167.336C166.656 167.39 166.564 167.419 166.469 167.419Z" fill="#313131"/>
<path d="M195.256 101.904C194.893 101.904 194.539 101.796 194.238 101.595C193.936 101.393 193.701 101.107 193.562 100.772C193.424 100.437 193.387 100.068 193.458 99.7128C193.529 99.3572 193.703 99.0306 193.96 98.7742C194.216 98.5178 194.543 98.3433 194.898 98.2725C195.254 98.2018 195.622 98.2381 195.957 98.3768C196.292 98.5156 196.579 98.7505 196.78 99.052C196.982 99.3534 197.089 99.7079 197.089 100.07C197.089 100.557 196.896 101.023 196.552 101.367C196.208 101.71 195.742 101.904 195.256 101.904ZM195.256 99.1706C195.077 99.1706 194.902 99.2237 194.754 99.3231C194.605 99.4226 194.489 99.5639 194.421 99.7292C194.353 99.8945 194.335 100.076 194.37 100.252C194.405 100.427 194.492 100.588 194.618 100.714C194.745 100.841 194.906 100.926 195.082 100.961C195.257 100.995 195.439 100.977 195.604 100.908C195.769 100.839 195.91 100.722 196.009 100.573C196.108 100.424 196.16 100.249 196.16 100.07C196.159 99.8314 196.063 99.6026 195.894 99.4339C195.724 99.2653 195.495 99.1706 195.256 99.1706Z" fill="#313131"/>
<path d="M186.094 126.028C185.731 126.028 185.376 125.921 185.074 125.72C184.772 125.519 184.536 125.233 184.397 124.898C184.258 124.563 184.221 124.194 184.292 123.838C184.362 123.482 184.537 123.155 184.794 122.898C185.05 122.642 185.377 122.467 185.733 122.396C186.089 122.326 186.458 122.362 186.793 122.502C187.128 122.641 187.415 122.876 187.616 123.178C187.817 123.48 187.924 123.835 187.923 124.198C187.922 124.683 187.729 125.148 187.386 125.491C187.043 125.833 186.579 126.027 186.094 126.028ZM186.094 123.295C185.915 123.294 185.74 123.346 185.591 123.445C185.442 123.544 185.325 123.685 185.256 123.85C185.187 124.015 185.169 124.197 185.203 124.372C185.238 124.548 185.324 124.709 185.45 124.836C185.576 124.962 185.737 125.049 185.912 125.084C186.088 125.119 186.27 125.102 186.435 125.033C186.6 124.965 186.742 124.849 186.841 124.701C186.94 124.552 186.993 124.377 186.993 124.198C186.993 123.959 186.899 123.73 186.73 123.561C186.562 123.391 186.333 123.296 186.094 123.295Z" fill="#313131"/>
<path d="M176.921 150.906C176.558 150.907 176.203 150.8 175.901 150.599C175.599 150.398 175.363 150.112 175.224 149.777C175.085 149.441 175.048 149.073 175.119 148.717C175.19 148.361 175.364 148.034 175.621 147.777C175.877 147.521 176.204 147.346 176.56 147.275C176.916 147.205 177.285 147.241 177.62 147.38C177.955 147.52 178.242 147.755 178.443 148.057C178.644 148.359 178.751 148.714 178.75 149.077C178.749 149.562 178.556 150.027 178.213 150.37C177.87 150.712 177.406 150.905 176.921 150.906ZM176.921 148.174C176.742 148.173 176.567 148.225 176.418 148.324C176.269 148.423 176.152 148.564 176.083 148.729C176.014 148.894 175.996 149.076 176.03 149.251C176.065 149.427 176.151 149.588 176.277 149.715C176.403 149.841 176.564 149.928 176.739 149.963C176.915 149.998 177.097 149.98 177.262 149.912C177.427 149.844 177.569 149.728 177.668 149.579C177.768 149.431 177.821 149.256 177.821 149.077C177.821 148.838 177.726 148.609 177.557 148.439C177.389 148.27 177.16 148.175 176.921 148.174Z" fill="#313131"/>
<path d="M99.9268 117.323L100.351 119.327C100.351 119.327 118.25 117.58 128.122 109.924L127.851 109.225C127.851 109.225 118.54 116.059 99.9268 117.323Z" fill="#313131"/>
<path d="M156.054 115.869L135.982 159.685L139.511 157.421L156.054 115.869Z" fill="#313131"/>
<path d="M217.64 132.854L211.85 158.788L208.232 159.395L217.64 132.854Z" fill="#313131"/>
<path d="M181.155 96.5222L194.705 91.9785L195.348 93.0866L181.155 96.5222Z" fill="#313131"/>
<path d="M201.755 104.13L194.705 91.9785L193.21 92.4805L201.755 104.13Z" fill="#313131"/>
</svg>
