<svg width="159" height="38" viewBox="0 0 159 38" fill="none" xmlns="http://www.w3.org/2000/svg">
<path fill-rule="evenodd" clip-rule="evenodd" d="M38.7695 29.3176V9.87791H46.5138V29.3176H38.7695ZM42.6417 8.06037C41.509 8.06037 40.5607 7.67842 39.7968 6.91453C39.0593 6.1243 38.6905 5.16285 38.6905 4.03019C38.6905 2.89752 39.0593 1.94924 39.7968 1.18535C40.5607 0.395117 41.509 0 42.6417 0C43.8007 0 44.749 0.395117 45.4865 1.18535C45.9437 1.6589 46.2592 2.20331 46.433 2.81859C46.0103 2.21008 45.3062 1.81169 44.5092 1.81169C43.2163 1.81169 42.1683 2.85974 42.1683 4.15259C42.1683 5.44543 43.2163 6.49349 44.5092 6.49349C45.2202 6.49349 45.8571 6.17653 46.2864 5.67618C46.1026 6.12739 45.8359 6.54018 45.4865 6.91453C44.749 7.67842 43.8007 8.06037 42.6417 8.06037ZM5.4526 28.4879C7.13843 29.3571 9.03499 29.7918 11.1423 29.7918C12.7754 29.7918 14.211 29.5415 15.449 29.041C16.6871 28.5142 17.8724 27.724 19.0051 26.6703L14.1452 21.8104C13.8027 22.1792 13.4076 22.4689 12.9598 22.6797C12.512 22.8904 11.9457 22.9958 11.2608 22.9958C10.655 22.9958 10.0886 22.8509 9.56181 22.5611C9.03499 22.2714 8.61353 21.8763 8.29744 21.3758C7.98135 20.849 7.8233 20.2431 7.8233 19.5583C7.8233 18.8734 7.98135 18.2807 8.29744 17.7802C8.61353 17.2797 9.02182 16.8978 9.5223 16.6344C10.0491 16.3446 10.6286 16.1998 11.2608 16.1998C11.8667 16.1998 12.3803 16.2788 12.8018 16.4368C13.2232 16.5949 13.6052 16.832 13.9476 17.148L18.8075 12.2881C17.7539 11.3135 16.6081 10.5891 15.37 10.115C14.1583 9.64084 12.7886 9.40377 11.2608 9.40377C9.12718 9.40377 7.20429 9.85156 5.49212 10.7472C3.80629 11.6164 2.46289 12.8281 1.46193 14.3822C0.48731 15.91 0 17.6617 0 19.6373C0 21.5865 0.48731 23.3382 1.46193 24.8923C2.43655 26.4201 3.76677 27.6186 5.4526 28.4879ZM21.2526 9.87791V29.3176H28.9969V18.8075C28.9969 17.9383 29.1945 17.2797 29.5896 16.832C29.9847 16.3578 30.5774 16.1207 31.3676 16.1207C31.8417 16.1207 32.25 16.1998 32.5925 16.3578C32.9612 16.4895 33.2378 16.6607 33.4222 16.8715L37.7685 10.7076C37.3734 10.3125 36.8465 10.0096 36.188 9.79888C35.5558 9.58815 34.7919 9.48279 33.8963 9.48279C31.9529 9.48279 30.3197 9.95446 28.9969 10.8978V9.87791H21.2526ZM52.7601 16.1998V29.3176H60.5043V16.1998H64.653V9.87791H60.5043H52.7601H48.6113V16.1998H52.7601ZM66.7441 29.3176V9.87791H74.4883V29.3176H66.7441ZM70.6162 8.06037C69.4835 8.06037 68.5353 7.67842 67.7714 6.91453C67.0338 6.1243 66.665 5.16285 66.665 4.03019C66.665 2.89752 67.0338 1.94924 67.7714 1.18535C68.5353 0.395117 69.4835 0 70.6162 0C71.7752 0 72.7235 0.395117 73.461 1.18535C73.8572 1.59569 74.147 2.05924 74.3304 2.57599C73.9023 2.10638 73.2855 1.81169 72.6 1.81169C71.3072 1.81169 70.2591 2.85974 70.2591 4.15259C70.2591 5.44543 71.3072 6.49349 72.6 6.49349C73.2013 6.49349 73.7497 6.26676 74.1643 5.89413C73.9878 6.26117 73.7534 6.6013 73.461 6.91453C72.7235 7.67842 71.7752 8.06037 70.6162 8.06037ZM85.9106 20.2793L90.6915 29.3176H99.3841L92.9499 18.9021L98.989 9.87791H90.652L85.9106 18.001V9.87791H78.1663V29.3176H85.9106V20.2793ZM110.608 29.7127C108.738 29.7127 107.066 29.2913 105.59 28.4484C104.115 27.6055 102.943 26.4464 102.074 24.9713C101.231 23.4962 100.81 21.8368 100.81 19.9929C100.81 18.1753 101.231 16.5422 102.074 15.0934C102.917 13.6183 104.063 12.4593 105.511 11.6164C106.96 10.7735 108.58 10.352 110.371 10.352C112.057 10.352 113.545 10.734 114.836 11.4979C116.153 12.2618 117.181 13.3286 117.918 14.6983C118.682 16.0417 119.064 17.5958 119.064 19.3607C119.064 19.5714 119.051 19.8217 119.024 20.1114C118.998 20.3748 118.945 20.6909 118.866 21.0597H103.642C103.759 22.0183 104.026 22.8875 104.445 23.6675C105.05 24.7474 105.88 25.5904 106.934 26.1962C108.014 26.802 109.252 27.105 110.648 27.105C111.781 27.105 112.821 26.9074 113.769 26.5123C114.718 26.0908 115.521 25.4718 116.18 24.6553L117.958 26.4728C117.088 27.5001 116.008 28.3035 114.718 28.883C113.453 29.4362 112.084 29.7127 110.608 29.7127ZM104.405 16.2393C104.018 16.9589 103.766 17.7755 103.65 18.689H116.357C116.287 17.6859 116.057 16.8035 115.666 16.0417C115.192 15.0408 114.494 14.2769 113.572 13.75C112.676 13.1969 111.583 12.9203 110.292 12.9203C108.949 12.9203 107.777 13.2101 106.776 13.7896C105.775 14.3691 104.985 15.1856 104.405 16.2393ZM130.77 29.3966L127.175 37.1409H124.132L128.565 27.9657L121.05 10.7472H124.093L130.094 24.9908L136.42 10.7472H139.502L130.77 29.3966ZM150.545 29.7127C148.674 29.7127 147.002 29.2913 145.527 28.4484C144.051 27.6055 142.879 26.4464 142.01 24.9713C141.167 23.4962 140.746 21.8368 140.746 19.9929C140.746 18.1753 141.167 16.5422 142.01 15.0934C142.853 13.6183 143.999 12.4593 145.448 11.6164C146.896 10.7735 148.516 10.352 150.307 10.352C151.993 10.352 153.482 10.734 154.772 11.4979C156.089 12.2618 157.117 13.3286 157.854 14.6983C158.618 16.0417 159 17.5958 159 19.3607C159 19.5714 158.987 19.8217 158.96 20.1114C158.934 20.3748 158.881 20.6909 158.802 21.0597H143.579C143.695 22.0183 143.962 22.8875 144.381 23.6675C144.987 24.7474 145.816 25.5904 146.87 26.1962C147.95 26.802 149.188 27.105 150.584 27.105C151.717 27.105 152.757 26.9074 153.705 26.5123C154.654 26.0908 155.457 25.4718 156.116 24.6553L157.894 26.4728C157.024 27.5001 155.944 28.3035 154.654 28.883C153.389 29.4362 152.02 29.7127 150.545 29.7127ZM144.341 16.2393C143.954 16.9589 143.702 17.7755 143.586 18.689H156.293C156.223 17.6859 155.993 16.8035 155.602 16.0417C155.128 15.0408 154.43 14.2769 153.508 13.75C152.612 13.1969 151.519 12.9203 150.228 12.9203C148.885 12.9203 147.713 13.2101 146.712 13.7896C145.711 14.3691 144.921 15.1856 144.341 16.2393Z" fill="white"/>
</svg>
