<svg width="22" height="21" viewBox="0 0 22 21" fill="none" xmlns="http://www.w3.org/2000/svg">
<path d="M20.0975 8.74317L14.3762 6.6686L12.2953 0.940975C12.1928 0.664783 12.0082 0.426582 11.7664 0.258372C11.5245 0.0901614 11.2369 0 10.9423 0C10.6477 0 10.3602 0.0901614 10.1183 0.258372C9.87647 0.426582 9.69188 0.664783 9.58936 0.940975L7.51479 6.66228L1.78717 8.74317C1.51097 8.84569 1.27277 9.03028 1.10456 9.27214C0.936353 9.514 0.846191 9.80155 0.846191 10.0962C0.846191 10.3908 0.936353 10.6783 1.10456 10.9202C1.27277 11.162 1.51097 11.3466 1.78717 11.4491L7.50847 13.5237L9.58936 19.2513C9.69188 19.5275 9.87647 19.7657 10.1183 19.9339C10.3602 20.1021 10.6477 20.1923 10.9423 20.1923C11.2369 20.1923 11.5245 20.1021 11.7664 19.9339C12.0082 19.7657 12.1928 19.5275 12.2953 19.2513L14.3762 13.5291L20.0975 11.4491C20.3737 11.3466 20.6119 11.162 20.7801 10.9202C20.9483 10.6783 21.0385 10.3908 21.0385 10.0962C21.0385 9.80155 20.9483 9.514 20.7801 9.27214C20.6119 9.03028 20.3737 8.84569 20.0975 8.74317ZM13.8801 12.1707C13.6827 12.2428 13.5034 12.3572 13.3547 12.5058C13.2061 12.6545 13.0917 12.8338 13.0196 13.0312L10.9423 18.7462L8.86777 13.0339C8.7957 12.8357 8.68107 12.6557 8.53193 12.5066C8.3828 12.3574 8.20278 12.2428 8.00457 12.1707L2.29228 10.0962L8.00457 8.02158C8.20278 7.94951 8.3828 7.83488 8.53193 7.68574C8.68107 7.5366 8.7957 7.35659 8.86777 7.15838L10.9423 1.44609L13.0169 7.15838C13.089 7.35582 13.2034 7.53512 13.352 7.68376C13.5007 7.83239 13.68 7.94676 13.8774 8.01887L19.5897 10.0934L13.8801 12.1707Z" fill="#00FFC2"/>
</svg>
